<svg xmlns="http://www.w3.org/2000/svg" xmlns:xlink="http://www.w3.org/1999/xlink" contentStyleType="text/css" data-diagram-type="SEQUENCE" height="440px" preserveAspectRatio="none" style="width:777px;height:440px;background:#1B1B1B;" version="1.1" viewBox="0 0 777 440" width="777px" zoomAndPan="magnify"><defs/><g><rect fill="#1B1B1B" height="440" style="stroke:none;stroke-width:1;" width="777" x="0" y="0"/><g><title>Players</title><rect fill="#FFFFFF" height="259.0625" style="stroke:#E7E7E7;stroke-width:1;" width="10" x="28.4297" y="91.2969"/></g><g><title>WebSocketHandler</title><rect fill="#FFFFFF" height="203.9297" style="stroke:#E7E7E7;stroke-width:1;" width="10" x="140.7729" y="112.4297"/></g><g><title>ChatSystem</title><rect fill="#FFFFFF" height="145.6641" style="stroke:#E7E7E7;stroke-width:1;" width="10" x="356.7732" y="141.5625"/></g><g><title>PlayerManagement</title><rect fill="#FFFFFF" height="87.3984" style="stroke:#E7E7E7;stroke-width:1;" width="10" x="580.7734" y="170.6953"/></g><g><title>RedisAccess</title><rect fill="#FFFFFF" height="29.1328" style="stroke:#E7E7E7;stroke-width:1;" width="10" x="715.9599" y="199.8281"/></g><g><title>Players</title><rect fill="#000000" fill-opacity="0.00000" height="278.0625" width="8" x="29.4297" y="81.2969"/><line style="stroke:#E7E7E7;stroke-width:0.5;stroke-dasharray:5,5;" x1="33" x2="33" y1="81.2969" y2="359.3594"/></g><g><title>WebSocketHandler</title><rect fill="#000000" fill-opacity="0.00000" height="278.0625" width="8" x="141.7729" y="81.2969"/><line style="stroke:#E7E7E7;stroke-width:0.5;stroke-dasharray:5,5;" x1="144.8594" x2="144.8594" y1="81.2969" y2="359.3594"/></g><g><title>ChatSystem</title><rect fill="#000000" fill-opacity="0.00000" height="278.0625" width="8" x="357.7732" y="81.2969"/><line style="stroke:#E7E7E7;stroke-width:0.5;stroke-dasharray:5,5;" x1="361.3117" x2="361.3117" y1="81.2969" y2="359.3594"/></g><g><title>PlayerManagement</title><rect fill="#000000" fill-opacity="0.00000" height="278.0625" width="8" x="581.7734" y="81.2969"/><line style="stroke:#E7E7E7;stroke-width:0.5;stroke-dasharray:5,5;" x1="584.8789" x2="584.8789" y1="81.2969" y2="359.3594"/></g><g><title>RedisAccess</title><rect fill="#000000" fill-opacity="0.00000" height="278.0625" width="8" x="716.9599" y="81.2969"/><line style="stroke:#E7E7E7;stroke-width:0.5;stroke-dasharray:5,5;" x1="720.6679" x2="720.6679" y1="81.2969" y2="359.3594"/></g><g class="participant participant-head" data-participant="Players"><text fill="#FFFFFF" font-family="sans-serif" font-size="14" lengthAdjust="spacing" textLength="50.8594" x="5" y="77.9951">Players</text><ellipse cx="33.4297" cy="13.5" fill="#222222" rx="8" ry="8" style="stroke:#E7E7E7;stroke-width:0.5;"/><path d="M33.4297,21.5 L33.4297,48.5 M20.4297,29.5 L46.4297,29.5 M33.4297,48.5 L20.4297,63.5 M33.4297,48.5 L46.4297,63.5" fill="none" style="stroke:#E7E7E7;stroke-width:0.5;"/></g><g class="participant participant-tail" data-participant="Players"><text fill="#FFFFFF" font-family="sans-serif" font-size="14" lengthAdjust="spacing" textLength="50.8594" x="5" y="371.3545">Players</text><ellipse cx="33.4297" cy="383.1563" fill="#222222" rx="8" ry="8" style="stroke:#E7E7E7;stroke-width:0.5;"/><path d="M33.4297,391.1563 L33.4297,418.1563 M20.4297,399.1563 L46.4297,399.1563 M33.4297,418.1563 L20.4297,433.1563 M33.4297,418.1563 L46.4297,433.1563" fill="none" style="stroke:#E7E7E7;stroke-width:0.5;"/></g><g class="participant participant-head" data-participant="WebSocketHandler"><rect fill="#222222" height="30.2969" rx="2.5" ry="2.5" style="stroke:#E7E7E7;stroke-width:0.5;" width="147.8271" x="71.8594" y="50"/><text fill="#FFFFFF" font-family="sans-serif" font-size="14" lengthAdjust="spacing" textLength="133.8271" x="78.8594" y="69.9951">WebSocketHandler</text></g><g class="participant participant-tail" data-participant="WebSocketHandler"><rect fill="#222222" height="30.2969" rx="2.5" ry="2.5" style="stroke:#E7E7E7;stroke-width:0.5;" width="147.8271" x="71.8594" y="358.3594"/><text fill="#FFFFFF" font-family="sans-serif" font-size="14" lengthAdjust="spacing" textLength="133.8271" x="78.8594" y="378.3545">WebSocketHandler</text></g><g class="participant participant-head" data-participant="ChatSystem"><rect fill="#222222" height="30.2969" rx="2.5" ry="2.5" style="stroke:#E7E7E7;stroke-width:0.5;" width="98.9229" x="312.3117" y="50"/><text fill="#FFFFFF" font-family="sans-serif" font-size="14" lengthAdjust="spacing" textLength="84.9229" x="319.3117" y="69.9951">ChatSystem</text></g><g class="participant participant-tail" data-participant="ChatSystem"><rect fill="#222222" height="30.2969" rx="2.5" ry="2.5" style="stroke:#E7E7E7;stroke-width:0.5;" width="98.9229" x="312.3117" y="358.3594"/><text fill="#FFFFFF" font-family="sans-serif" font-size="14" lengthAdjust="spacing" textLength="84.9229" x="319.3117" y="378.3545">ChatSystem</text></g><g class="participant participant-head" data-participant="PlayerManagement"><rect fill="#222222" height="30.2969" rx="2.5" ry="2.5" style="stroke:#E7E7E7;stroke-width:0.5;" width="149.7891" x="510.8789" y="50"/><text fill="#FFFFFF" font-family="sans-serif" font-size="14" lengthAdjust="spacing" textLength="135.7891" x="517.8789" y="69.9951">PlayerManagement</text></g><g class="participant participant-tail" data-participant="PlayerManagement"><rect fill="#222222" height="30.2969" rx="2.5" ry="2.5" style="stroke:#E7E7E7;stroke-width:0.5;" width="149.7891" x="510.8789" y="358.3594"/><text fill="#FFFFFF" font-family="sans-serif" font-size="14" lengthAdjust="spacing" textLength="135.7891" x="517.8789" y="378.3545">PlayerManagement</text></g><g class="participant participant-head" data-participant="RedisAccess"><rect fill="#222222" height="30.2969" rx="2.5" ry="2.5" style="stroke:#E7E7E7;stroke-width:0.5;" width="100.584" x="670.6679" y="50"/><text fill="#FFFFFF" font-family="sans-serif" font-size="14" lengthAdjust="spacing" textLength="86.584" x="677.6679" y="69.9951">RedisAccess</text></g><g class="participant participant-tail" data-participant="RedisAccess"><rect fill="#222222" height="30.2969" rx="2.5" ry="2.5" style="stroke:#E7E7E7;stroke-width:0.5;" width="100.584" x="670.6679" y="358.3594"/><text fill="#FFFFFF" font-family="sans-serif" font-size="14" lengthAdjust="spacing" textLength="86.584" x="677.6679" y="378.3545">RedisAccess</text></g><g><title>Players</title><rect fill="#FFFFFF" height="259.0625" style="stroke:#E7E7E7;stroke-width:1;" width="10" x="28.4297" y="91.2969"/></g><g><title>WebSocketHandler</title><rect fill="#FFFFFF" height="203.9297" style="stroke:#E7E7E7;stroke-width:1;" width="10" x="140.7729" y="112.4297"/></g><g><title>ChatSystem</title><rect fill="#FFFFFF" height="145.6641" style="stroke:#E7E7E7;stroke-width:1;" width="10" x="356.7732" y="141.5625"/></g><g><title>PlayerManagement</title><rect fill="#FFFFFF" height="87.3984" style="stroke:#E7E7E7;stroke-width:1;" width="10" x="580.7734" y="170.6953"/></g><g><title>RedisAccess</title><rect fill="#FFFFFF" height="29.1328" style="stroke:#E7E7E7;stroke-width:1;" width="10" x="715.9599" y="199.8281"/></g><g class="message" data-participant-1="Players" data-participant-2="WebSocketHandler"><polygon fill="#E7E7E7" points="128.7729,108.4297,138.7729,112.4297,128.7729,116.4297,132.7729,112.4297" style="stroke:#E7E7E7;stroke-width:1;"/><line style="stroke:#E7E7E7;stroke-width:1;" x1="38.4297" x2="134.7729" y1="112.4297" y2="112.4297"/><text fill="#FFFFFF" font-family="sans-serif" font-size="13" lengthAdjust="spacing" textLength="78.0001" x="45.4297" y="107.3638">&#30332;&#36865;&#32842;&#22825;&#35338;&#24687;</text></g><g class="message" data-participant-1="WebSocketHandler" data-participant-2="ChatSystem"><polygon fill="#E7E7E7" points="344.7732,137.5625,354.7732,141.5625,344.7732,145.5625,348.7732,141.5625" style="stroke:#E7E7E7;stroke-width:1;"/><line style="stroke:#E7E7E7;stroke-width:1;" x1="150.7729" x2="350.7732" y1="141.5625" y2="141.5625"/><text fill="#FFFFFF" font-family="sans-serif" font-size="13" lengthAdjust="spacing" textLength="78.0001" x="157.7729" y="136.4966">&#34389;&#29702;&#32842;&#22825;&#35531;&#27714;</text></g><g class="message" data-participant-1="ChatSystem" data-participant-2="PlayerManagement"><polygon fill="#E7E7E7" points="568.7734,166.6953,578.7734,170.6953,568.7734,174.6953,572.7734,170.6953" style="stroke:#E7E7E7;stroke-width:1;"/><line style="stroke:#E7E7E7;stroke-width:1;" x1="366.7732" x2="574.7734" y1="170.6953" y2="170.6953"/><text fill="#FFFFFF" font-family="sans-serif" font-size="13" lengthAdjust="spacing" textLength="195.0002" x="373.7732" y="165.6294">&#29554;&#21462;&#34389;&#26044;&#24453;&#27231;&#23460;&#19988;&#22312;&#32218;&#30340;&#29609;&#23478;&#21015;&#34920;</text></g><g class="message" data-participant-1="PlayerManagement" data-participant-2="RedisAccess"><polygon fill="#E7E7E7" points="703.9599,195.8281,713.9599,199.8281,703.9599,203.8281,707.9599,199.8281" style="stroke:#E7E7E7;stroke-width:1;"/><line style="stroke:#E7E7E7;stroke-width:1;" x1="590.7734" x2="709.9599" y1="199.8281" y2="199.8281"/><text fill="#FFFFFF" font-family="sans-serif" font-size="13" lengthAdjust="spacing" textLength="78.0001" x="597.7734" y="194.7622">&#29554;&#21462;&#29609;&#23478;&#25976;&#25818;</text></g><g class="message" data-participant-1="RedisAccess" data-participant-2="PlayerManagement"><polygon fill="#E7E7E7" points="601.7734,224.9609,591.7734,228.9609,601.7734,232.9609,597.7734,228.9609" style="stroke:#E7E7E7;stroke-width:1;"/><line style="stroke:#E7E7E7;stroke-width:1;stroke-dasharray:2,2;" x1="595.7734" x2="719.9599" y1="228.9609" y2="228.9609"/><text fill="#FFFFFF" font-family="sans-serif" font-size="13" lengthAdjust="spacing" textLength="78.0001" x="607.7734" y="223.895">&#36820;&#22238;&#29609;&#23478;&#25976;&#25818;</text></g><g class="message" data-participant-1="PlayerManagement" data-participant-2="ChatSystem"><polygon fill="#E7E7E7" points="377.7732,254.0938,367.7732,258.0938,377.7732,262.0938,373.7732,258.0938" style="stroke:#E7E7E7;stroke-width:1;"/><line style="stroke:#E7E7E7;stroke-width:1;stroke-dasharray:2,2;" x1="371.7732" x2="584.7734" y1="258.0938" y2="258.0938"/><text fill="#FFFFFF" font-family="sans-serif" font-size="13" lengthAdjust="spacing" textLength="78.0001" x="383.7732" y="253.0278">&#36820;&#22238;&#29609;&#23478;&#21015;&#34920;</text></g><g class="message" data-participant-1="ChatSystem" data-participant-2="WebSocketHandler"><polygon fill="#E7E7E7" points="161.7729,283.2266,151.7729,287.2266,161.7729,291.2266,157.7729,287.2266" style="stroke:#E7E7E7;stroke-width:1;"/><line style="stroke:#E7E7E7;stroke-width:1;stroke-dasharray:2,2;" x1="155.7729" x2="360.7732" y1="287.2266" y2="287.2266"/><text fill="#FFFFFF" font-family="sans-serif" font-size="13" lengthAdjust="spacing" textLength="182.0002" x="167.7729" y="282.1606">&#23559;&#35338;&#24687;&#20839;&#23481;&#24291;&#25773;&#32102;&#21015;&#34920;&#20013;&#30340;&#29609;&#23478;</text></g><g class="message" data-participant-1="WebSocketHandler" data-participant-2="Players"><polygon fill="#E7E7E7" points="49.4297,312.3594,39.4297,316.3594,49.4297,320.3594,45.4297,316.3594" style="stroke:#E7E7E7;stroke-width:1;"/><line style="stroke:#E7E7E7;stroke-width:1;stroke-dasharray:2,2;" x1="43.4297" x2="144.7729" y1="316.3594" y2="316.3594"/><text fill="#FFFFFF" font-family="sans-serif" font-size="13" lengthAdjust="spacing" textLength="78.0001" x="55.4297" y="311.2935">&#24291;&#25773;&#35338;&#24687;&#20839;&#23481;</text></g><!--SRC=[PP5DIm916CVlyoa6BnvaJOKk4K5qwH947ZfFwr2IhhAx18A7ZAnGUbT3YoAKMWar3Lz2go_ZpApVedr3zmNsiC_C__T__iypViW6FNNOcOrlMVM7rekGWsgkG1fDzZLc_IxjvvXI17uO2KMMbqBQ5uP7M0o6Wn4042-dHBYTG1aiIY2DH3dEnzD8aA5l5-z5K_mXbZUH44jWqGUH1Ds7JcJZ0CdHZ2JZf25Ub4wPsMuB2MWV9x4W6sBteHFPmR6ujCxpM98CjQq6m8eF0u7vBxVcYQfTmnN8gfFPSSxSZweKQAu3F48DNaGtCRLQPZTd5lPHfDqJO9DeW3k-rUsoHwuh6amh4_ARfyqNqcvCHoNofB1XZTLEsLMJj0Vaua5zLO37G_Er3MgtD3bQ7j7xcfTRvJW7g9NQ27ybylZi06qZw8YtlvkpWdesfjFsVUWS-Jmt5qpoxwJzJSPrUjTY_JVJOpfgpSUVlvfkutqDmyoWxNuWcyt-0m00]--></g></svg>