<svg xmlns="http://www.w3.org/2000/svg" xmlns:xlink="http://www.w3.org/1999/xlink" contentStyleType="text/css" data-diagram-type="SEQUENCE" height="1477px" preserveAspectRatio="none" style="width:1513px;height:1477px;background:#1B1B1B;" version="1.1" viewBox="0 0 1513 1477" width="1513px" zoomAndPan="magnify"><?plantuml 1.2026.4beta2?><defs/><g><rect fill="#1B1B1B" height="1477" style="stroke:none;stroke-width:1;" width="1513" x="0" y="0"/><g><title>Spectators</title><rect fill="#FFFFFF" height="1295.0156" style="stroke:#E7E7E7;stroke-width:1;" width="10" x="65.6284" y="91.2969"/></g><g><title>PlayerA</title><rect fill="#FFFFFF" height="1295.0156" style="stroke:#E7E7E7;stroke-width:1;" width="10" x="145.8281" y="91.2969"/></g><g><title>PlayerB</title><rect fill="#FFFFFF" height="1295.0156" style="stroke:#E7E7E7;stroke-width:1;" width="10" x="214.9844" y="91.2969"/></g><g><title>WebSocketHandler</title><rect fill="#FFFFFF" height="1015.3828" style="stroke:#E7E7E7;stroke-width:1;" width="10" x="352.9845" y="155.5625"/></g><g><title>GameThreadManager</title><rect fill="#FFFFFF" height="53.2656" style="stroke:#E7E7E7;stroke-width:1;" width="10" x="654.9848" y="184.6953"/></g><g><title>GameThread</title><rect fill="#FFFFFF" height="1017.25" style="stroke:#E7E7E7;stroke-width:1;" width="10" x="800.6064" y="237.9609"/></g><g><title>GameLogic</title><rect fill="#FFFFFF" height="32.1328" style="stroke:#E7E7E7;stroke-width:1;" width="10" x="1038.4806" y="310.2266"/></g><g><title>GameLogic</title><rect fill="#FFFFFF" height="29.1328" style="stroke:#E7E7E7;stroke-width:1;" width="10" x="1038.4806" y="398.625"/></g><g><title>GameLogic</title><rect fill="#FFFFFF" height="29.1328" style="stroke:#E7E7E7;stroke-width:1;" width="10" x="1038.4806" y="456.8906"/></g><g><title>GameLogic</title><rect fill="#FFFFFF" height="29.1328" style="stroke:#E7E7E7;stroke-width:1;" width="10" x="1038.4806" y="515.1563"/></g><g><title>GameLogic</title><rect fill="#FFFFFF" height="29.1328" style="stroke:#E7E7E7;stroke-width:1;" width="10" x="1038.4806" y="616.5547"/></g><g><title>GameLogic</title><rect fill="#FFFFFF" height="29.1328" style="stroke:#E7E7E7;stroke-width:1;" width="10" x="1038.4806" y="698.9531"/></g><g><title>PlayerManagement</title><rect fill="#FFFFFF" height="87.3984" style="stroke:#E7E7E7;stroke-width:1;" width="10" x="1169.6339" y="967.0156"/></g><g><title>GameService</title><rect fill="#FFFFFF" height="87.3984" style="stroke:#E7E7E7;stroke-width:1;" width="10" x="1308.2384" y="807.3516"/></g><g><title>RedisAccess</title><rect fill="#FFFFFF" height="29.1328" style="stroke:#E7E7E7;stroke-width:1;" width="10" x="1422.2403" y="836.4844"/></g><g><title>RedisAccess</title><rect fill="#FFFFFF" height="29.1328" style="stroke:#E7E7E7;stroke-width:1;" width="10" x="1422.2403" y="996.1484"/></g><rect fill="none" height="1153.6172" style="stroke:#FFFFFF;stroke-width:1.5;" width="1487.5323" x="10" y="199.6953"/><rect fill="none" height="985.9531" style="stroke:#FFFFFF;stroke-width:1.5;" width="1467.5323" x="20" y="360.3594"/><rect fill="none" height="75.3984" style="stroke:#FFFFFF;stroke-width:1.5;" width="356.6022" x="743.1371" y="660.6875"/><rect fill="none" height="128.3672" style="stroke:#FFFFFF;stroke-width:1.5;" width="198.5052" x="743.1371" y="1210.9453"/><g class="participant-lifeline" data-entity-uid="part1" data-qualified-name="Spectators" data-source-line="4" id="part1-lifeline"><g><title>Spectators</title><rect fill="#000000" fill-opacity="0.00000" height="1314.0156" width="8" x="66.6284" y="81.2969"/><line style="stroke:#E7E7E7;stroke-width:0.5;stroke-dasharray:5,5;" x1="70" x2="70" y1="81.2969" y2="1395.3125"/></g></g><g class="participant-lifeline" data-entity-uid="part2" data-qualified-name="PlayerA" data-source-line="5" id="part2-lifeline"><g><title>PlayerA</title><rect fill="#000000" fill-opacity="0.00000" height="1314.0156" width="8" x="146.8281" y="81.2969"/><line style="stroke:#E7E7E7;stroke-width:0.5;stroke-dasharray:5,5;" x1="150.2568" x2="150.2568" y1="81.2969" y2="1395.3125"/></g></g><g class="participant-lifeline" data-entity-uid="part3" data-qualified-name="PlayerB" data-source-line="6" id="part3-lifeline"><g><title>PlayerB</title><rect fill="#000000" fill-opacity="0.00000" height="1314.0156" width="8" x="215.9844" y="81.2969"/><line style="stroke:#E7E7E7;stroke-width:0.5;stroke-dasharray:5,5;" x1="219.3994" x2="219.3994" y1="81.2969" y2="1395.3125"/></g></g><g class="participant-lifeline" data-entity-uid="part4" data-qualified-name="WebSocketHandler" data-source-line="7" id="part4-lifeline"><g><title>WebSocketHandler</title><rect fill="#000000" fill-opacity="0.00000" height="1314.0156" width="8" x="353.9845" y="81.2969"/><line style="stroke:#E7E7E7;stroke-width:0.5;stroke-dasharray:5,5;" x1="357.0709" x2="357.0709" y1="81.2969" y2="1395.3125"/></g></g><g class="participant-lifeline" data-entity-uid="part5" data-qualified-name="GameThreadManager" data-source-line="8" id="part5-lifeline"><g><title>GameThreadManager</title><rect fill="#000000" fill-opacity="0.00000" height="1314.0156" width="8" x="655.9848" y="81.2969"/><line style="stroke:#E7E7E7;stroke-width:0.5;stroke-dasharray:5,5;" x1="659.8325" x2="659.8325" y1="81.2969" y2="1395.3125"/></g></g><g class="participant-lifeline" data-entity-uid="part6" data-qualified-name="GameThread" data-source-line="9" id="part6-lifeline"><g><title>GameThread</title><rect fill="#000000" fill-opacity="0.00000" height="1314.0156" width="8" x="801.6064" y="81.2969"/><line style="stroke:#E7E7E7;stroke-width:0.5;stroke-dasharray:5,5;" x1="805.1371" x2="805.1371" y1="81.2969" y2="1395.3125"/></g></g><g class="participant-lifeline" data-entity-uid="part7" data-qualified-name="GameLogic" data-source-line="10" id="part7-lifeline"><g><title>GameLogic</title><rect fill="#000000" fill-opacity="0.00000" height="1314.0156" width="8" x="1039.4806" y="81.2969"/><line style="stroke:#E7E7E7;stroke-width:0.5;stroke-dasharray:5,5;" x1="1043.2218" x2="1043.2218" y1="81.2969" y2="1395.3125"/></g></g><g class="participant-lifeline" data-entity-uid="part8" data-qualified-name="PlayerManagement" data-source-line="11" id="part8-lifeline"><g><title>PlayerManagement</title><rect fill="#000000" fill-opacity="0.00000" height="1314.0156" width="8" x="1170.6339" y="81.2969"/><line style="stroke:#E7E7E7;stroke-width:0.5;stroke-dasharray:5,5;" x1="1173.7393" x2="1173.7393" y1="81.2969" y2="1395.3125"/></g></g><g class="participant-lifeline" data-entity-uid="part9" data-qualified-name="GameService" data-source-line="12" id="part9-lifeline"><g><title>GameService</title><rect fill="#000000" fill-opacity="0.00000" height="1314.0156" width="8" x="1309.2384" y="81.2969"/><line style="stroke:#E7E7E7;stroke-width:0.5;stroke-dasharray:5,5;" x1="1312.5284" x2="1312.5284" y1="81.2969" y2="1395.3125"/></g></g><g class="participant-lifeline" data-entity-uid="part10" data-qualified-name="RedisAccess" data-source-line="13" id="part10-lifeline"><g><title>RedisAccess</title><rect fill="#000000" fill-opacity="0.00000" height="1314.0156" width="8" x="1423.2403" y="81.2969"/><line style="stroke:#E7E7E7;stroke-width:0.5;stroke-dasharray:5,5;" x1="1426.9483" x2="1426.9483" y1="81.2969" y2="1395.3125"/></g></g><g class="participant participant-head" data-entity-uid="part1" data-qualified-name="Spectators" data-source-line="4" id="part1-head"><text fill="#FFFFFF" font-family="sans-serif" font-size="14" lengthAdjust="spacing" textLength="75.2568" x="30" y="77.9951">Spectators</text><ellipse cx="70.6284" cy="13.5" fill="#222222" rx="8" ry="8" style="stroke:#E7E7E7;stroke-width:0.5;"/><path d="M70.6284,21.5 L70.6284,48.5 M57.6284,29.5 L83.6284,29.5 M70.6284,48.5 L57.6284,63.5 M70.6284,48.5 L83.6284,63.5" fill="none" style="stroke:#E7E7E7;stroke-width:0.5;"/></g><g class="participant participant-tail" data-entity-uid="part1" data-qualified-name="Spectators" data-source-line="4" id="part1-tail"><text fill="#FFFFFF" font-family="sans-serif" font-size="14" lengthAdjust="spacing" textLength="75.2568" x="30" y="1407.3076">Spectators</text><ellipse cx="70.6284" cy="1419.1094" fill="#222222" rx="8" ry="8" style="stroke:#E7E7E7;stroke-width:0.5;"/><path d="M70.6284,1427.1094 L70.6284,1454.1094 M57.6284,1435.1094 L83.6284,1435.1094 M70.6284,1454.1094 L57.6284,1469.1094 M70.6284,1454.1094 L83.6284,1469.1094" fill="none" style="stroke:#E7E7E7;stroke-width:0.5;"/></g><g class="participant participant-head" data-entity-uid="part2" data-qualified-name="PlayerA" data-source-line="5" id="part2-head"><text fill="#FFFFFF" font-family="sans-serif" font-size="14" lengthAdjust="spacing" textLength="53.1426" x="121.2568" y="77.9951">PlayerA</text><ellipse cx="150.8281" cy="13.5" fill="#222222" rx="8" ry="8" style="stroke:#E7E7E7;stroke-width:0.5;"/><path d="M150.8281,21.5 L150.8281,48.5 M137.8281,29.5 L163.8281,29.5 M150.8281,48.5 L137.8281,63.5 M150.8281,48.5 L163.8281,63.5" fill="none" style="stroke:#E7E7E7;stroke-width:0.5;"/></g><g class="participant participant-tail" data-entity-uid="part2" data-qualified-name="PlayerA" data-source-line="5" id="part2-tail"><text fill="#FFFFFF" font-family="sans-serif" font-size="14" lengthAdjust="spacing" textLength="53.1426" x="121.2568" y="1407.3076">PlayerA</text><ellipse cx="150.8281" cy="1419.1094" fill="#222222" rx="8" ry="8" style="stroke:#E7E7E7;stroke-width:0.5;"/><path d="M150.8281,1427.1094 L150.8281,1454.1094 M137.8281,1435.1094 L163.8281,1435.1094 M150.8281,1454.1094 L137.8281,1469.1094 M150.8281,1454.1094 L163.8281,1469.1094" fill="none" style="stroke:#E7E7E7;stroke-width:0.5;"/></g><g class="participant participant-head" data-entity-uid="part3" data-qualified-name="PlayerB" data-source-line="6" id="part3-head"><text fill="#FFFFFF" font-family="sans-serif" font-size="14" lengthAdjust="spacing" textLength="53.1699" x="190.3994" y="77.9951">PlayerB</text><ellipse cx="219.9844" cy="13.5" fill="#222222" rx="8" ry="8" style="stroke:#E7E7E7;stroke-width:0.5;"/><path d="M219.9844,21.5 L219.9844,48.5 M206.9844,29.5 L232.9844,29.5 M219.9844,48.5 L206.9844,63.5 M219.9844,48.5 L232.9844,63.5" fill="none" style="stroke:#E7E7E7;stroke-width:0.5;"/></g><g class="participant participant-tail" data-entity-uid="part3" data-qualified-name="PlayerB" data-source-line="6" id="part3-tail"><text fill="#FFFFFF" font-family="sans-serif" font-size="14" lengthAdjust="spacing" textLength="53.1699" x="190.3994" y="1407.3076">PlayerB</text><ellipse cx="219.9844" cy="1419.1094" fill="#222222" rx="8" ry="8" style="stroke:#E7E7E7;stroke-width:0.5;"/><path d="M219.9844,1427.1094 L219.9844,1454.1094 M206.9844,1435.1094 L232.9844,1435.1094 M219.9844,1454.1094 L206.9844,1469.1094 M219.9844,1454.1094 L232.9844,1469.1094" fill="none" style="stroke:#E7E7E7;stroke-width:0.5;"/></g><g class="participant participant-head" data-entity-uid="part4" data-qualified-name="WebSocketHandler" data-source-line="7" id="part4-head"><rect fill="#222222" height="30.2969" rx="2.5" ry="2.5" style="stroke:#E7E7E7;stroke-width:0.5;" width="147.8271" x="284.0709" y="50"/><text fill="#FFFFFF" font-family="sans-serif" font-size="14" lengthAdjust="spacing" textLength="133.8271" x="291.0709" y="69.9951">WebSocketHandler</text></g><g class="participant participant-tail" data-entity-uid="part4" data-qualified-name="WebSocketHandler" data-source-line="7" id="part4-tail"><rect fill="#222222" height="30.2969" rx="2.5" ry="2.5" style="stroke:#E7E7E7;stroke-width:0.5;" width="147.8271" x="284.0709" y="1394.3125"/><text fill="#FFFFFF" font-family="sans-serif" font-size="14" lengthAdjust="spacing" textLength="133.8271" x="291.0709" y="1414.3076">WebSocketHandler</text></g><g class="participant participant-head" data-entity-uid="part5" data-qualified-name="GameThreadManager" data-source-line="8" id="part5-head"><rect fill="#222222" height="30.2969" rx="2.5" ry="2.5" style="stroke:#E7E7E7;stroke-width:0.5;" width="166.3047" x="576.8325" y="50"/><text fill="#FFFFFF" font-family="sans-serif" font-size="14" lengthAdjust="spacing" textLength="152.3047" x="583.8325" y="69.9951">GameThreadManager</text></g><g class="participant participant-tail" data-entity-uid="part5" data-qualified-name="GameThreadManager" data-source-line="8" id="part5-tail"><rect fill="#222222" height="30.2969" rx="2.5" ry="2.5" style="stroke:#E7E7E7;stroke-width:0.5;" width="166.3047" x="576.8325" y="1394.3125"/><text fill="#FFFFFF" font-family="sans-serif" font-size="14" lengthAdjust="spacing" textLength="152.3047" x="583.8325" y="1414.3076">GameThreadManager</text></g><g class="participant participant-head" data-entity-uid="part6" data-qualified-name="GameThread" data-source-line="9" id="part6-head"><rect fill="#222222" height="30.2969" rx="2.5" ry="2.5" style="stroke:#E7E7E7;stroke-width:0.5;" width="104.9385" x="753.1371" y="50"/><text fill="#FFFFFF" font-family="sans-serif" font-size="14" lengthAdjust="spacing" textLength="90.9385" x="760.1371" y="69.9951">GameThread</text></g><g class="participant participant-tail" data-entity-uid="part6" data-qualified-name="GameThread" data-source-line="9" id="part6-tail"><rect fill="#222222" height="30.2969" rx="2.5" ry="2.5" style="stroke:#E7E7E7;stroke-width:0.5;" width="104.9385" x="753.1371" y="1394.3125"/><text fill="#FFFFFF" font-family="sans-serif" font-size="14" lengthAdjust="spacing" textLength="90.9385" x="760.1371" y="1414.3076">GameThread</text></g><g class="participant participant-head" data-entity-uid="part7" data-qualified-name="GameLogic" data-source-line="10" id="part7-head"><rect fill="#222222" height="30.2969" rx="2.5" ry="2.5" style="stroke:#E7E7E7;stroke-width:0.5;" width="92.5176" x="997.2218" y="50"/><text fill="#FFFFFF" font-family="sans-serif" font-size="14" lengthAdjust="spacing" textLength="78.5176" x="1004.2218" y="69.9951">GameLogic</text></g><g class="participant participant-tail" data-entity-uid="part7" data-qualified-name="GameLogic" data-source-line="10" id="part7-tail"><rect fill="#222222" height="30.2969" rx="2.5" ry="2.5" style="stroke:#E7E7E7;stroke-width:0.5;" width="92.5176" x="997.2218" y="1394.3125"/><text fill="#FFFFFF" font-family="sans-serif" font-size="14" lengthAdjust="spacing" textLength="78.5176" x="1004.2218" y="1414.3076">GameLogic</text></g><g class="participant participant-head" data-entity-uid="part8" data-qualified-name="PlayerManagement" data-source-line="11" id="part8-head"><rect fill="#222222" height="30.2969" rx="2.5" ry="2.5" style="stroke:#E7E7E7;stroke-width:0.5;" width="149.7891" x="1099.7393" y="50"/><text fill="#FFFFFF" font-family="sans-serif" font-size="14" lengthAdjust="spacing" textLength="135.7891" x="1106.7393" y="69.9951">PlayerManagement</text></g><g class="participant participant-tail" data-entity-uid="part8" data-qualified-name="PlayerManagement" data-source-line="11" id="part8-tail"><rect fill="#222222" height="30.2969" rx="2.5" ry="2.5" style="stroke:#E7E7E7;stroke-width:0.5;" width="149.7891" x="1099.7393" y="1394.3125"/><text fill="#FFFFFF" font-family="sans-serif" font-size="14" lengthAdjust="spacing" textLength="135.7891" x="1106.7393" y="1414.3076">PlayerManagement</text></g><g class="participant participant-head" data-entity-uid="part9" data-qualified-name="GameService" data-source-line="12" id="part9-head"><rect fill="#222222" height="30.2969" rx="2.5" ry="2.5" style="stroke:#E7E7E7;stroke-width:0.5;" width="107.4199" x="1259.5284" y="50"/><text fill="#FFFFFF" font-family="sans-serif" font-size="14" lengthAdjust="spacing" textLength="93.4199" x="1266.5284" y="69.9951">GameService</text></g><g class="participant participant-tail" data-entity-uid="part9" data-qualified-name="GameService" data-source-line="12" id="part9-tail"><rect fill="#222222" height="30.2969" rx="2.5" ry="2.5" style="stroke:#E7E7E7;stroke-width:0.5;" width="107.4199" x="1259.5284" y="1394.3125"/><text fill="#FFFFFF" font-family="sans-serif" font-size="14" lengthAdjust="spacing" textLength="93.4199" x="1266.5284" y="1414.3076">GameService</text></g><g class="participant participant-head" data-entity-uid="part10" data-qualified-name="RedisAccess" data-source-line="13" id="part10-head"><rect fill="#222222" height="30.2969" rx="2.5" ry="2.5" style="stroke:#E7E7E7;stroke-width:0.5;" width="100.584" x="1376.9483" y="50"/><text fill="#FFFFFF" font-family="sans-serif" font-size="14" lengthAdjust="spacing" textLength="86.584" x="1383.9483" y="69.9951">RedisAccess</text></g><g class="participant participant-tail" data-entity-uid="part10" data-qualified-name="RedisAccess" data-source-line="13" id="part10-tail"><rect fill="#222222" height="30.2969" rx="2.5" ry="2.5" style="stroke:#E7E7E7;stroke-width:0.5;" width="100.584" x="1376.9483" y="1394.3125"/><text fill="#FFFFFF" font-family="sans-serif" font-size="14" lengthAdjust="spacing" textLength="86.584" x="1383.9483" y="1414.3076">RedisAccess</text></g><g><title>Spectators</title><rect fill="#FFFFFF" height="1295.0156" style="stroke:#E7E7E7;stroke-width:1;" width="10" x="65.6284" y="91.2969"/></g><g><title>PlayerA</title><rect fill="#FFFFFF" height="1295.0156" style="stroke:#E7E7E7;stroke-width:1;" width="10" x="145.8281" y="91.2969"/></g><g><title>PlayerB</title><rect fill="#FFFFFF" height="1295.0156" style="stroke:#E7E7E7;stroke-width:1;" width="10" x="214.9844" y="91.2969"/></g><g><title>WebSocketHandler</title><rect fill="#FFFFFF" height="1015.3828" style="stroke:#E7E7E7;stroke-width:1;" width="10" x="352.9845" y="155.5625"/></g><g><title>GameThreadManager</title><rect fill="#FFFFFF" height="53.2656" style="stroke:#E7E7E7;stroke-width:1;" width="10" x="654.9848" y="184.6953"/></g><g><title>GameThread</title><rect fill="#FFFFFF" height="1017.25" style="stroke:#E7E7E7;stroke-width:1;" width="10" x="800.6064" y="237.9609"/></g><g><title>GameLogic</title><rect fill="#FFFFFF" height="32.1328" style="stroke:#E7E7E7;stroke-width:1;" width="10" x="1038.4806" y="310.2266"/></g><g><title>GameLogic</title><rect fill="#FFFFFF" height="29.1328" style="stroke:#E7E7E7;stroke-width:1;" width="10" x="1038.4806" y="398.625"/></g><g><title>GameLogic</title><rect fill="#FFFFFF" height="29.1328" style="stroke:#E7E7E7;stroke-width:1;" width="10" x="1038.4806" y="456.8906"/></g><g><title>GameLogic</title><rect fill="#FFFFFF" height="29.1328" style="stroke:#E7E7E7;stroke-width:1;" width="10" x="1038.4806" y="515.1563"/></g><g><title>GameLogic</title><rect fill="#FFFFFF" height="29.1328" style="stroke:#E7E7E7;stroke-width:1;" width="10" x="1038.4806" y="616.5547"/></g><g><title>GameLogic</title><rect fill="#FFFFFF" height="29.1328" style="stroke:#E7E7E7;stroke-width:1;" width="10" x="1038.4806" y="698.9531"/></g><g><title>PlayerManagement</title><rect fill="#FFFFFF" height="87.3984" style="stroke:#E7E7E7;stroke-width:1;" width="10" x="1169.6339" y="967.0156"/></g><g><title>GameService</title><rect fill="#FFFFFF" height="87.3984" style="stroke:#E7E7E7;stroke-width:1;" width="10" x="1308.2384" y="807.3516"/></g><g><title>RedisAccess</title><rect fill="#FFFFFF" height="29.1328" style="stroke:#E7E7E7;stroke-width:1;" width="10" x="1422.2403" y="836.4844"/></g><g><title>RedisAccess</title><rect fill="#FFFFFF" height="29.1328" style="stroke:#E7E7E7;stroke-width:1;" width="10" x="1422.2403" y="996.1484"/></g><rect fill="#111111" height="3" style="stroke:#111111;stroke-width:1;" width="1507.5323" x="0" y="111.8633"/><line style="stroke:#FFFFFF;stroke-width:1;" x1="0" x2="1507.5323" y1="111.8633" y2="111.8633"/><line style="stroke:#FFFFFF;stroke-width:1;" x1="0" x2="1507.5323" y1="114.8633" y2="114.8633"/><rect fill="#111111" height="23.1328" style="stroke:#FFFFFF;stroke-width:2;" width="96.526" x="705.5032" y="101.2969"/><text fill="#FFFFFF" font-family="sans-serif" font-size="13" font-weight="700" lengthAdjust="spacing" textLength="78.0001" x="711.5032" y="117.3638">&#29609;&#23478;&#33853;&#23376;&#35531;&#27714;</text><g class="message" data-entity-1="part2" data-entity-2="part4" data-source-line="19" id="msg1"><polygon fill="#E7E7E7" points="340.9845,151.5625,350.9845,155.5625,340.9845,159.5625,344.9845,155.5625" style="stroke:#E7E7E7;stroke-width:1;"/><line style="stroke:#E7E7E7;stroke-width:1;" x1="155.8281" x2="346.9845" y1="155.5625" y2="155.5625"/><text fill="#FFFFFF" font-family="sans-serif" font-size="13" lengthAdjust="spacing" textLength="78.0001" x="162.8281" y="150.4966">&#20659;&#36865;&#33853;&#23376;&#35531;&#27714;</text></g><g class="message" data-entity-1="part4" data-entity-2="part5" data-source-line="20" id="msg2"><polygon fill="#E7E7E7" points="642.9848,180.6953,652.9848,184.6953,642.9848,188.6953,646.9848,184.6953" style="stroke:#E7E7E7;stroke-width:1;"/><line style="stroke:#E7E7E7;stroke-width:1;" x1="362.9845" x2="648.9848" y1="184.6953" y2="184.6953"/><text fill="#FFFFFF" font-family="sans-serif" font-size="13" lengthAdjust="spacing" textLength="273.0003" x="369.9845" y="179.6294">&#21028;&#26039;&#30332;&#36865;&#33853;&#23376;&#35531;&#27714;&#30340;&#29609;&#23478;&#26159;&#21542;&#28858;&#35442;&#23565;&#23616;&#20013;&#30340;&#26827;&#25163;</text></g><path d="M10,199.6953 L79.4512,199.6953 L79.4512,206.8281 L69.4512,216.8281 L10,216.8281 L10,199.6953" fill="#555555" style="stroke:#FFFFFF;stroke-width:1.5;"/><rect fill="none" height="1153.6172" style="stroke:#FFFFFF;stroke-width:1.5;" width="1487.5323" x="10" y="199.6953"/><text fill="#FFFFFF" font-family="sans-serif" font-size="13" font-weight="700" lengthAdjust="spacing" textLength="24.4512" x="25" y="212.7622">opt</text><text fill="#FFFFFF" font-family="sans-serif" font-size="11" font-weight="700" lengthAdjust="spacing" textLength="98.0541" x="94.4512" y="211.9058">[&#26159;&#35442;&#23565;&#23616;&#20013;&#30340;&#26827;&#25163;]</text><g class="message" data-entity-1="part5" data-entity-2="part6" data-source-line="24" id="msg3"><polygon fill="#E7E7E7" points="788.6064,233.9609,798.6064,237.9609,788.6064,241.9609,792.6064,237.9609" style="stroke:#E7E7E7;stroke-width:1;"/><line style="stroke:#E7E7E7;stroke-width:1;" x1="659.9848" x2="794.6064" y1="237.9609" y2="237.9609"/><text fill="#FFFFFF" font-family="sans-serif" font-size="13" lengthAdjust="spacing" textLength="78.0001" x="666.9848" y="232.895">&#34389;&#29702;&#33853;&#23376;&#35531;&#27714;</text></g><rect fill="#111111" height="3" style="stroke:#111111;stroke-width:1;" width="1507.5323" x="0" y="266.5273"/><line style="stroke:#FFFFFF;stroke-width:1;" x1="0" x2="1507.5323" y1="266.5273" y2="266.5273"/><line style="stroke:#FFFFFF;stroke-width:1;" x1="0" x2="1507.5323" y1="269.5273" y2="269.5273"/><rect fill="#111111" height="23.1328" style="stroke:#FFFFFF;stroke-width:2;" width="70.5259" x="718.5032" y="255.9609"/><text fill="#FFFFFF" font-family="sans-serif" font-size="13" font-weight="700" lengthAdjust="spacing" textLength="52.0001" x="724.5032" y="272.0278">&#35215;&#21063;&#34389;&#29702;</text><g class="message" data-entity-1="part6" data-entity-2="part7" data-source-line="28" id="msg4"><polygon fill="#E7E7E7" points="1026.4806,306.2266,1036.4806,310.2266,1026.4806,314.2266,1030.4806,310.2266" style="stroke:#E7E7E7;stroke-width:1;"/><line style="stroke:#E7E7E7;stroke-width:1;" x1="810.6064" x2="1032.4806" y1="310.2266" y2="310.2266"/><text fill="#FFFFFF" font-family="sans-serif" font-size="13" lengthAdjust="spacing" textLength="130.0002" x="817.6064" y="305.1606">&#21028;&#26039;&#33853;&#23376;&#20301;&#32622;&#26159;&#21542;&#21512;&#27861;</text></g><g class="message" data-entity-1="part7" data-entity-2="part6" data-source-line="29" id="msg5"><polygon fill="#E7E7E7" points="821.6064,338.3594,811.6064,342.3594,821.6064,346.3594,817.6064,342.3594" style="stroke:#E7E7E7;stroke-width:1;"/><line style="stroke:#E7E7E7;stroke-width:1;stroke-dasharray:2,2;" x1="815.6064" x2="1042.4806" y1="342.3594" y2="342.3594"/><text fill="#FFFFFF" font-family="sans-serif" font-size="13" lengthAdjust="spacing" textLength="52.0001" x="827.6064" y="337.2935">&#36820;&#22238;&#32080;&#26524;</text></g><path d="M683,323.2266 L683,348.2266 L795,348.2266 L795,333.2266 L785,323.2266 L683,323.2266" fill="#714137" style="stroke:#E7E7E7;stroke-width:0.5;"/><path d="M785,323.2266 L785,333.2266 L795,333.2266 L785,323.2266" fill="#714137" style="stroke:#E7E7E7;stroke-width:0.5;"/><text fill="#FFFFFF" font-family="sans-serif" font-size="13" lengthAdjust="spacing" textLength="91.0001" x="689" y="340.2935">&#19981;&#21512;&#27861;&#21063;&#19981;&#21205;&#20316;</text><path d="M20,360.3594 L89.4512,360.3594 L89.4512,367.4922 L79.4512,377.4922 L20,377.4922 L20,360.3594" fill="#555555" style="stroke:#FFFFFF;stroke-width:1.5;"/><rect fill="none" height="985.9531" style="stroke:#FFFFFF;stroke-width:1.5;" width="1467.5323" x="20" y="360.3594"/><text fill="#FFFFFF" font-family="sans-serif" font-size="13" font-weight="700" lengthAdjust="spacing" textLength="24.4512" x="35" y="373.4263">opt</text><text fill="#FFFFFF" font-family="sans-serif" font-size="11" font-weight="700" lengthAdjust="spacing" textLength="32.0545" x="104.4512" y="372.5698">[&#21512;&#27861;]</text><g class="message" data-entity-1="part6" data-entity-2="part7" data-source-line="33" id="msg7"><polygon fill="#E7E7E7" points="1026.4806,394.625,1036.4806,398.625,1026.4806,402.625,1030.4806,398.625" style="stroke:#E7E7E7;stroke-width:1;"/><line style="stroke:#E7E7E7;stroke-width:1;" x1="810.6064" x2="1032.4806" y1="398.625" y2="398.625"/><text fill="#FFFFFF" font-family="sans-serif" font-size="13" lengthAdjust="spacing" textLength="117.0001" x="817.6064" y="393.5591">&#33853;&#23376;&#20006;&#32763;&#36681;&#23565;&#25163;&#26827;&#23376;</text></g><g class="message" data-entity-1="part7" data-entity-2="part6" data-source-line="34" id="msg8"><polygon fill="#E7E7E7" points="821.6064,423.7578,811.6064,427.7578,821.6064,431.7578,817.6064,427.7578" style="stroke:#E7E7E7;stroke-width:1;"/><line style="stroke:#E7E7E7;stroke-width:1;stroke-dasharray:2,2;" x1="815.6064" x2="1042.4806" y1="427.7578" y2="427.7578"/><text fill="#FFFFFF" font-family="sans-serif" font-size="13" lengthAdjust="spacing" textLength="203.8742" x="827.6064" y="422.6919">&#36820;&#22238;&#33853;&#23376;&#24460;&#30340;&#23565;&#23616;&#36039;&#26009; GameData</text></g><g class="message" data-entity-1="part6" data-entity-2="part7" data-source-line="35" id="msg9"><polygon fill="#E7E7E7" points="1026.4806,452.8906,1036.4806,456.8906,1026.4806,460.8906,1030.4806,456.8906" style="stroke:#E7E7E7;stroke-width:1;"/><line style="stroke:#E7E7E7;stroke-width:1;" x1="810.6064" x2="1032.4806" y1="456.8906" y2="456.8906"/><text fill="#FFFFFF" font-family="sans-serif" font-size="13" lengthAdjust="spacing" textLength="130.0002" x="817.6064" y="451.8247">&#35336;&#31639;&#23565;&#25163;&#30340;&#21487;&#33853;&#23376;&#20301;&#32622;</text></g><g class="message" data-entity-1="part7" data-entity-2="part6" data-source-line="36" id="msg10"><polygon fill="#E7E7E7" points="821.6064,482.0234,811.6064,486.0234,821.6064,490.0234,817.6064,486.0234" style="stroke:#E7E7E7;stroke-width:1;"/><line style="stroke:#E7E7E7;stroke-width:1;stroke-dasharray:2,2;" x1="815.6064" x2="1042.4806" y1="486.0234" y2="486.0234"/><text fill="#FFFFFF" font-family="sans-serif" font-size="13" lengthAdjust="spacing" textLength="130.0002" x="827.6064" y="480.9575">&#32000;&#37636;&#23565;&#25163;&#30340;&#21487;&#33853;&#23376;&#20301;&#32622;</text></g><g class="message" data-entity-1="part6" data-entity-2="part7" data-source-line="37" id="msg11"><polygon fill="#E7E7E7" points="1026.4806,511.1563,1036.4806,515.1563,1026.4806,519.1563,1030.4806,515.1563" style="stroke:#E7E7E7;stroke-width:1;"/><line style="stroke:#E7E7E7;stroke-width:1;" x1="810.6064" x2="1032.4806" y1="515.1563" y2="515.1563"/><text fill="#FFFFFF" font-family="sans-serif" font-size="13" lengthAdjust="spacing" textLength="130.0002" x="817.6064" y="510.0903">&#26681;&#25818;&#26827;&#30436;&#29376;&#27841;&#20999;&#25563;&#22238;&#21512;</text></g><g class="message" data-entity-1="part7" data-entity-2="part6" data-source-line="38" id="msg12"><polygon fill="#E7E7E7" points="821.6064,540.2891,811.6064,544.2891,821.6064,548.2891,817.6064,544.2891" style="stroke:#E7E7E7;stroke-width:1;"/><line style="stroke:#E7E7E7;stroke-width:1;stroke-dasharray:2,2;" x1="815.6064" x2="1042.4806" y1="544.2891" y2="544.2891"/><text fill="#FFFFFF" font-family="sans-serif" font-size="13" lengthAdjust="spacing" textLength="203.8742" x="827.6064" y="539.2231">&#36820;&#22238;&#20999;&#25563;&#24460;&#30340;&#23565;&#23616;&#36039;&#26009; GameData</text></g><rect fill="#111111" height="3" style="stroke:#111111;stroke-width:1;" width="1507.5323" x="0" y="572.8555"/><line style="stroke:#FFFFFF;stroke-width:1;" x1="0" x2="1507.5323" y1="572.8555" y2="572.8555"/><line style="stroke:#FFFFFF;stroke-width:1;" x1="0" x2="1507.5323" y1="575.8555" y2="575.8555"/><rect fill="#111111" height="23.1328" style="stroke:#FFFFFF;stroke-width:2;" width="70.5259" x="718.5032" y="562.2891"/><text fill="#FFFFFF" font-family="sans-serif" font-size="13" font-weight="700" lengthAdjust="spacing" textLength="52.0001" x="724.5032" y="578.356">&#21028;&#26039;&#21213;&#36000;</text><g class="message" data-entity-1="part6" data-entity-2="part7" data-source-line="41" id="msg13"><polygon fill="#E7E7E7" points="1026.4806,612.5547,1036.4806,616.5547,1026.4806,620.5547,1030.4806,616.5547" style="stroke:#E7E7E7;stroke-width:1;"/><line style="stroke:#E7E7E7;stroke-width:1;" x1="810.6064" x2="1032.4806" y1="616.5547" y2="616.5547"/><text fill="#FFFFFF" font-family="sans-serif" font-size="13" lengthAdjust="spacing" textLength="91.0001" x="817.6064" y="611.4888">&#21028;&#26039;&#26159;&#21542;&#26377;&#21213;&#36000;</text></g><g class="message" data-entity-1="part7" data-entity-2="part6" data-source-line="42" id="msg14"><polygon fill="#E7E7E7" points="821.6064,641.6875,811.6064,645.6875,821.6064,649.6875,817.6064,645.6875" style="stroke:#E7E7E7;stroke-width:1;"/><line style="stroke:#E7E7E7;stroke-width:1;stroke-dasharray:2,2;" x1="815.6064" x2="1042.4806" y1="645.6875" y2="645.6875"/><text fill="#FFFFFF" font-family="sans-serif" font-size="13" lengthAdjust="spacing" textLength="118.2505" x="827.6064" y="640.6216">&#36820;&#22238;&#32080;&#26524; (boolean)</text></g><path d="M743.1371,660.6875 L812.5883,660.6875 L812.5883,667.8203 L802.5883,677.8203 L743.1371,677.8203 L743.1371,660.6875" fill="#555555" style="stroke:#FFFFFF;stroke-width:1.5;"/><rect fill="none" height="75.3984" style="stroke:#FFFFFF;stroke-width:1.5;" width="356.6022" x="743.1371" y="660.6875"/><text fill="#FFFFFF" font-family="sans-serif" font-size="13" font-weight="700" lengthAdjust="spacing" textLength="24.4512" x="758.1371" y="673.7544">opt</text><text fill="#FFFFFF" font-family="sans-serif" font-size="11" font-weight="700" lengthAdjust="spacing" textLength="65.0543" x="827.5883" y="672.8979">[&#26377;&#21213;&#36000;&#32080;&#26524;]</text><g class="message" data-entity-1="part6" data-entity-2="part7" data-source-line="44" id="msg15"><polygon fill="#E7E7E7" points="1026.4806,694.9531,1036.4806,698.9531,1026.4806,702.9531,1030.4806,698.9531" style="stroke:#E7E7E7;stroke-width:1;"/><line style="stroke:#E7E7E7;stroke-width:1;" x1="810.6064" x2="1032.4806" y1="698.9531" y2="698.9531"/><text fill="#FFFFFF" font-family="sans-serif" font-size="13" lengthAdjust="spacing" textLength="203.8742" x="817.6064" y="693.8872">&#32080;&#31639;&#40657;&#30333;&#23376;&#25976;&#37327;&#20006;&#26356;&#26032; GameData</text></g><g class="message" data-entity-1="part7" data-entity-2="part6" data-source-line="45" id="msg16"><polygon fill="#E7E7E7" points="821.6064,724.0859,811.6064,728.0859,821.6064,732.0859,817.6064,728.0859" style="stroke:#E7E7E7;stroke-width:1;"/><line style="stroke:#E7E7E7;stroke-width:1;stroke-dasharray:2,2;" x1="815.6064" x2="1042.4806" y1="728.0859" y2="728.0859"/><text fill="#FFFFFF" font-family="sans-serif" font-size="13" lengthAdjust="spacing" textLength="52.0001" x="827.6064" y="723.02">&#36820;&#22238;&#32080;&#26524;</text></g><rect fill="#111111" height="3" style="stroke:#111111;stroke-width:1;" width="1507.5323" x="0" y="763.6523"/><line style="stroke:#FFFFFF;stroke-width:1;" x1="0" x2="1507.5323" y1="763.6523" y2="763.6523"/><line style="stroke:#FFFFFF;stroke-width:1;" x1="0" x2="1507.5323" y1="766.6523" y2="766.6523"/><rect fill="#111111" height="23.1328" style="stroke:#FFFFFF;stroke-width:2;" width="96.526" x="705.5032" y="753.0859"/><text fill="#FFFFFF" font-family="sans-serif" font-size="13" font-weight="700" lengthAdjust="spacing" textLength="78.0001" x="711.5032" y="769.1528">&#26356;&#26032;&#23565;&#23616;&#36039;&#26009;</text><g class="message" data-entity-1="part6" data-entity-2="part9" data-source-line="49" id="msg17"><polygon fill="#E7E7E7" points="1296.2384,803.3516,1306.2384,807.3516,1296.2384,811.3516,1300.2384,807.3516" style="stroke:#E7E7E7;stroke-width:1;"/><line style="stroke:#E7E7E7;stroke-width:1;" x1="810.6064" x2="1302.2384" y1="807.3516" y2="807.3516"/><text fill="#FFFFFF" font-family="sans-serif" font-size="13" lengthAdjust="spacing" textLength="192.15" x="817.6064" y="802.2856">&#26356;&#26032;&#23565;&#23616;&#36039;&#26009; (GameData &#29289;&#20214;)</text></g><g class="message" data-entity-1="part9" data-entity-2="part10" data-source-line="50" id="msg18"><polygon fill="#E7E7E7" points="1410.2403,832.4844,1420.2403,836.4844,1410.2403,840.4844,1414.2403,836.4844" style="stroke:#E7E7E7;stroke-width:1;"/><line style="stroke:#E7E7E7;stroke-width:1;" x1="1318.2384" x2="1416.2403" y1="836.4844" y2="836.4844"/><text fill="#FFFFFF" font-family="sans-serif" font-size="13" lengthAdjust="spacing" textLength="78.0001" x="1325.2384" y="831.4185">&#26356;&#26032;&#23565;&#23616;&#36039;&#26009;</text></g><g class="message" data-entity-1="part10" data-entity-2="part9" data-source-line="51" id="msg19"><polygon fill="#E7E7E7" points="1329.2384,861.6172,1319.2384,865.6172,1329.2384,869.6172,1325.2384,865.6172" style="stroke:#E7E7E7;stroke-width:1;"/><line style="stroke:#E7E7E7;stroke-width:1;stroke-dasharray:2,2;" x1="1323.2384" x2="1426.2403" y1="865.6172" y2="865.6172"/><text fill="#FFFFFF" font-family="sans-serif" font-size="13" lengthAdjust="spacing" textLength="52.0001" x="1335.2384" y="860.5513">&#26356;&#26032;&#25104;&#21151;</text></g><g class="message" data-entity-1="part9" data-entity-2="part6" data-source-line="52" id="msg20"><polygon fill="#E7E7E7" points="821.6064,890.75,811.6064,894.75,821.6064,898.75,817.6064,894.75" style="stroke:#E7E7E7;stroke-width:1;"/><line style="stroke:#E7E7E7;stroke-width:1;stroke-dasharray:2,2;" x1="815.6064" x2="1312.2384" y1="894.75" y2="894.75"/><text fill="#FFFFFF" font-family="sans-serif" font-size="13" lengthAdjust="spacing" textLength="52.0001" x="827.6064" y="889.6841">&#26356;&#26032;&#25104;&#21151;</text></g><rect fill="#111111" height="3" style="stroke:#111111;stroke-width:1;" width="1507.5323" x="0" y="923.3164"/><line style="stroke:#FFFFFF;stroke-width:1;" x1="0" x2="1507.5323" y1="923.3164" y2="923.3164"/><line style="stroke:#FFFFFF;stroke-width:1;" x1="0" x2="1507.5323" y1="926.3164" y2="926.3164"/><rect fill="#111111" height="23.1328" style="stroke:#FFFFFF;stroke-width:2;" width="70.5259" x="718.5032" y="912.75"/><text fill="#FFFFFF" font-family="sans-serif" font-size="13" font-weight="700" lengthAdjust="spacing" textLength="52.0001" x="724.5032" y="928.8169">&#24291;&#25773;&#32080;&#26524;</text><g class="message" data-entity-1="part6" data-entity-2="part8" data-source-line="55" id="msg21"><polygon fill="#E7E7E7" points="1157.6339,963.0156,1167.6339,967.0156,1157.6339,971.0156,1161.6339,967.0156" style="stroke:#E7E7E7;stroke-width:1;"/><line style="stroke:#E7E7E7;stroke-width:1;" x1="810.6064" x2="1163.6339" y1="967.0156" y2="967.0156"/><text fill="#FFFFFF" font-family="sans-serif" font-size="13" lengthAdjust="spacing" textLength="221.0003" x="817.6064" y="961.9497">&#29554;&#21462;&#25152;&#26377;&#34389;&#26044;&#35442;&#23565;&#23616;&#19988;&#22312;&#32218;&#30340;&#29609;&#23478;&#21015;&#34920;</text></g><g class="message" data-entity-1="part8" data-entity-2="part10" data-source-line="56" id="msg22"><polygon fill="#E7E7E7" points="1410.2403,992.1484,1420.2403,996.1484,1410.2403,1000.1484,1414.2403,996.1484" style="stroke:#E7E7E7;stroke-width:1;"/><line style="stroke:#E7E7E7;stroke-width:1;" x1="1179.6339" x2="1416.2403" y1="996.1484" y2="996.1484"/><text fill="#FFFFFF" font-family="sans-serif" font-size="13" lengthAdjust="spacing" textLength="78.0001" x="1186.6339" y="991.0825">&#29554;&#21462;&#29609;&#23478;&#21015;&#34920;</text></g><g class="message" data-entity-1="part10" data-entity-2="part8" data-source-line="57" id="msg23"><polygon fill="#E7E7E7" points="1190.6339,1021.2813,1180.6339,1025.2813,1190.6339,1029.2813,1186.6339,1025.2813" style="stroke:#E7E7E7;stroke-width:1;"/><line style="stroke:#E7E7E7;stroke-width:1;stroke-dasharray:2,2;" x1="1184.6339" x2="1426.2403" y1="1025.2813" y2="1025.2813"/><text fill="#FFFFFF" font-family="sans-serif" font-size="13" lengthAdjust="spacing" textLength="52.0001" x="1196.6339" y="1020.2153">&#36820;&#22238;&#32080;&#26524;</text></g><g class="message" data-entity-1="part8" data-entity-2="part6" data-source-line="58" id="msg24"><polygon fill="#E7E7E7" points="821.6064,1050.4141,811.6064,1054.4141,821.6064,1058.4141,817.6064,1054.4141" style="stroke:#E7E7E7;stroke-width:1;"/><line style="stroke:#E7E7E7;stroke-width:1;stroke-dasharray:2,2;" x1="815.6064" x2="1173.6339" y1="1054.4141" y2="1054.4141"/><text fill="#FFFFFF" font-family="sans-serif" font-size="13" lengthAdjust="spacing" textLength="78.0001" x="827.6064" y="1049.3481">&#36820;&#22238;&#29609;&#23478;&#21015;&#34920;</text></g><g class="message" data-entity-1="part6" data-entity-2="part4" data-source-line="61" id="msg25"><polygon fill="#E7E7E7" points="373.9845,1079.5469,363.9845,1083.5469,373.9845,1087.5469,369.9845,1083.5469" style="stroke:#E7E7E7;stroke-width:1;"/><line style="stroke:#E7E7E7;stroke-width:1;stroke-dasharray:2,2;" x1="367.9845" x2="799.6064" y1="1083.5469" y2="1083.5469"/><text fill="#FFFFFF" font-family="sans-serif" font-size="13" lengthAdjust="spacing" textLength="221.0003" x="379.9845" y="1078.481">&#24291;&#25773;&#36890;&#30693;&#29609;&#23478;&#33287;&#35264;&#25136;&#32773;&#26356;&#26032;&#24460;&#23565;&#23616;&#36039;&#26009;</text></g><g class="message" data-entity-1="part4" data-entity-2="part3" data-source-line="62" id="msg26"><polygon fill="#E7E7E7" points="235.9844,1108.6797,225.9844,1112.6797,235.9844,1116.6797,231.9844,1112.6797" style="stroke:#E7E7E7;stroke-width:1;"/><line style="stroke:#E7E7E7;stroke-width:1;stroke-dasharray:2,2;" x1="229.9844" x2="351.9845" y1="1112.6797" y2="1112.6797"/><text fill="#FFFFFF" font-family="sans-serif" font-size="13" lengthAdjust="spacing" textLength="104.0001" x="241.9844" y="1107.6138">&#36890;&#30693;&#36938;&#25138;&#29376;&#24907;&#26356;&#26032;</text></g><g class="message" data-entity-1="part4" data-entity-2="part2" data-source-line="63" id="msg27"><polygon fill="#E7E7E7" points="166.8281,1137.8125,156.8281,1141.8125,166.8281,1145.8125,162.8281,1141.8125" style="stroke:#E7E7E7;stroke-width:1;"/><line style="stroke:#E7E7E7;stroke-width:1;stroke-dasharray:2,2;" x1="160.8281" x2="351.9845" y1="1141.8125" y2="1141.8125"/><text fill="#FFFFFF" font-family="sans-serif" font-size="13" lengthAdjust="spacing" textLength="104.0001" x="172.8281" y="1136.7466">&#36890;&#30693;&#36938;&#25138;&#29376;&#24907;&#26356;&#26032;</text></g><g class="message" data-entity-1="part4" data-entity-2="part1" data-source-line="64" id="msg28"><polygon fill="#E7E7E7" points="86.6284,1166.9453,76.6284,1170.9453,86.6284,1174.9453,82.6284,1170.9453" style="stroke:#E7E7E7;stroke-width:1;"/><line style="stroke:#E7E7E7;stroke-width:1;stroke-dasharray:2,2;" x1="80.6284" x2="356.9845" y1="1170.9453" y2="1170.9453"/><text fill="#FFFFFF" font-family="sans-serif" font-size="13" lengthAdjust="spacing" textLength="104.0001" x="92.6284" y="1165.8794">&#36890;&#30693;&#36938;&#25138;&#29376;&#24907;&#26356;&#26032;</text></g><path d="M743.1371,1210.9453 L812.5883,1210.9453 L812.5883,1218.0781 L802.5883,1228.0781 L743.1371,1228.0781 L743.1371,1210.9453" fill="#555555" style="stroke:#FFFFFF;stroke-width:1.5;"/><rect fill="none" height="128.3672" style="stroke:#FFFFFF;stroke-width:1.5;" width="198.5052" x="743.1371" y="1210.9453"/><text fill="#FFFFFF" font-family="sans-serif" font-size="13" font-weight="700" lengthAdjust="spacing" textLength="24.4512" x="758.1371" y="1224.0122">opt</text><text fill="#FFFFFF" font-family="sans-serif" font-size="11" font-weight="700" lengthAdjust="spacing" textLength="109.054" x="827.5883" y="1223.1558">[&#30070;&#20986;&#29694;&#21213;&#36000;&#25110;&#24179;&#25163;&#26178;]</text><g class="message" data-entity-1="part6" data-entity-2="part6" data-source-line="67" id="msg29"><line style="stroke:#E7E7E7;stroke-width:1;" x1="810.6064" x2="852.6064" y1="1254.2109" y2="1254.2109"/><line style="stroke:#E7E7E7;stroke-width:1;" x1="852.6064" x2="852.6064" y1="1254.2109" y2="1267.2109"/><line style="stroke:#E7E7E7;stroke-width:1;" x1="805.6064" x2="852.6064" y1="1267.2109" y2="1267.2109"/><polygon fill="#E7E7E7" points="815.6064,1263.2109,805.6064,1267.2109,815.6064,1271.2109,811.6064,1267.2109" style="stroke:#E7E7E7;stroke-width:1;"/><text fill="#FFFFFF" font-family="sans-serif" font-size="13" lengthAdjust="spacing" textLength="52.0001" x="817.6064" y="1249.145">&#23565;&#23616;&#32080;&#26463;</text></g><rect fill="none" height="39.1016" style="stroke:#DDDDDD;stroke-width:1.5;" width="140.001" x="750.1371" y="1295.2109"/><path d="M750.1371,1295.2109 L815.1371,1295.2109 L815.1371,1302.2109 L805.1371,1312.2109 L750.1371,1312.2109 L750.1371,1295.2109" fill="#444444" style="stroke:#DDDDDD;stroke-width:2;"/><text fill="#FFFFFF" font-family="sans-serif" font-size="13" font-weight="700" lengthAdjust="spacing" textLength="20.8838" x="763.1371" y="1309.2778">ref</text><text fill="#FFFFFF" font-family="sans-serif" font-size="12" lengthAdjust="spacing" textLength="132.001" x="754.1371" y="1327.3496">&#35443;&#35211;&#12300;&#23565;&#23616;&#32080;&#26463;&#12301;&#24490;&#24207;&#22294;</text><?plantuml-src dLPRJnf157xVNp7fYng36fBwO4eJJPFseKsQsgJFAuoM5C70ngI93olHihXIQ2jOBbuQBSKsta3nWk2FaPbP_aLdTrRS6u9kekpEdkyxPxxpSOO-GAfbvUomLVj6idMy8mCN85_tq44L7INGiOXF5qb9vlg0UyGzEZpoTDWz2kPXUCWzvEOutYk4mc1o3de5djv5z8Mt0Vup38-RdYQuEJui-Bt-EJueW2SVuDHaoFi92g_ue2y0mqy07m7MHJFa9JyBttyCGzxtXW_oCph6jje9P8csXxqEpVYzxIZjoHp4DiBIpCAWeCLQ5-syap0yx_V2DhF-R0vy1tt-oBZN2oCHBT3mp74UZzuI9LL7-odbduoFey3ZuUwK1uE3d2xxtUs4STNrtAOlVGt608fMMkAYaPgp1LAmJMWTBUtYp1d9NbauI6w9rOn_7g9KaKGlbRqoirJpV9--fLR3SPdZkD2S06YGysj0BtjcKpd0vG9ZIZPDKbzCcp13LIcq9IgcKaoYU8n1L1ajaJgxvW3Z9XbxivuWzGEsAvIIS2LjnJ-Z1TqHgDK1vNeDvJV9QGfl5hJmO4Y0802d1VgoUPvWHBGezLvED-iiIlkdwcD8rBLOlSpp8hckAVKu5PKAIUMaYqu47QjbFAYnIhl1EgDKOZYJrQ9Vy0BVOpabYHoiiofKfkIXKSSUAo8dOcjrwI4azaBmzWN-aQD2aFmkaKLSMKHI32VpTAjKtWT9emExIDEcf9PZ3aBoXbBUlhLSZxPZLiE5E4C_g53cED0_5Ge581ySQ8ErBzqjfS6NFTL5usbBsOb1cu3JvwrOaXeEvqzmviZkZqTyFzGB1dqs7LaAa-RtggaFMzq1Td3_RR60nFUQjUg0YUiMJSaC0xaJcIDKtQmHgssNOR6KGYjRz_MpdTyHPF9NRGT_tzVRtL4Hws6bjpDHHiaCZelK47GeuioLOHQleKA9dENQunn9wyglKflVnkWa5KlG6zvHBqTxMFIoLs90MbERzJET9Gx7v9WkRqlCaQtV-b4inPG_8fQE575Pjq9ZrT4DziEqtOa9Iir8MuihM2ghOsbPPdIzuCSVZJVySj1qwigoiB1W6XuaNKMnIv9ii162fGowgAW7JJRQPP0OJct015CRkx5bWXdJgLSOJeCG_TrfPA3TtQieHVb6N3Not8W9rFYBBfEeaB7D4lLJ_UCuck4_?></g></svg>