<svg xmlns="http://www.w3.org/2000/svg" xmlns:xlink="http://www.w3.org/1999/xlink" contentStyleType="text/css" data-diagram-type="SEQUENCE" height="637px" preserveAspectRatio="none" style="width:1128px;height:637px;background:#1B1B1B;" version="1.1" viewBox="0 0 1128 637" width="1128px" zoomAndPan="magnify"><defs/><g><rect fill="#1B1B1B" height="637" style="stroke:none;stroke-width:1;" width="1128" x="0" y="0"/><g><title>Player</title><rect fill="#FFFFFF" height="456.5625" style="stroke:#E7E7E7;stroke-width:1;" width="10" x="24.7827" y="91.2969"/></g><g><title>GameThread</title><rect fill="#FFFFFF" height="293.1953" style="stroke:#E7E7E7;stroke-width:1;" width="10" x="305.5968" y="91.2969"/></g><g><title>GameService</title><rect fill="#FFFFFF" height="90.3984" style="stroke:#E7E7E7;stroke-width:1;" width="10" x="743.8221" y="158.5625"/></g><g><title>RedisAccess</title><rect fill="#FFFFFF" height="29.1328" style="stroke:#E7E7E7;stroke-width:1;" width="10" x="857.8241" y="190.6953"/></g><g><title>DisconnectTimerManager</title><rect fill="#FFFFFF" height="29.1328" style="stroke:#E7E7E7;stroke-width:1;" width="10" x="1014.9095" y="278.0938"/></g><g><title>Player</title><rect fill="#000000" fill-opacity="0.00000" height="475.5625" width="8" x="25.7827" y="81.2969"/><line style="stroke:#E7E7E7;stroke-width:0.5;stroke-dasharray:5,5;" x1="29" x2="29" y1="81.2969" y2="556.8594"/></g><g><title>HttpRestController</title><rect fill="#000000" fill-opacity="0.00000" height="475.5625" width="8" x="171.7829" y="81.2969"/><line style="stroke:#E7E7E7;stroke-width:0.5;stroke-dasharray:5,5;" x1="175.4381" x2="175.4381" y1="81.2969" y2="556.8594"/></g><g><title>GameThread</title><rect fill="#000000" fill-opacity="0.00000" height="475.5625" width="8" x="306.5968" y="81.2969"/><line style="stroke:#E7E7E7;stroke-width:0.5;stroke-dasharray:5,5;" x1="310.1276" x2="310.1276" y1="81.2969" y2="556.8594"/></g><g><title>GameService</title><rect fill="#000000" fill-opacity="0.00000" height="475.5625" width="8" x="744.8221" y="81.2969"/><line style="stroke:#E7E7E7;stroke-width:0.5;stroke-dasharray:5,5;" x1="748.1121" x2="748.1121" y1="81.2969" y2="556.8594"/></g><g><title>RedisAccess</title><rect fill="#000000" fill-opacity="0.00000" height="475.5625" width="8" x="858.8241" y="81.2969"/><line style="stroke:#E7E7E7;stroke-width:0.5;stroke-dasharray:5,5;" x1="862.5321" x2="862.5321" y1="81.2969" y2="556.8594"/></g><g><title>DisconnectTimerManager</title><rect fill="#000000" fill-opacity="0.00000" height="475.5625" width="8" x="1015.9095" y="81.2969"/><line style="stroke:#E7E7E7;stroke-width:0.5;stroke-dasharray:5,5;" x1="1019.116" x2="1019.116" y1="81.2969" y2="556.8594"/></g><g class="participant participant-head" data-participant="Player"><text fill="#FFFFFF" font-family="sans-serif" font-size="14" lengthAdjust="spacing" textLength="43.5654" x="5" y="77.9951">Player</text><ellipse cx="29.7827" cy="13.5" fill="#222222" rx="8" ry="8" style="stroke:#E7E7E7;stroke-width:0.5;"/><path d="M29.7827,21.5 L29.7827,48.5 M16.7827,29.5 L42.7827,29.5 M29.7827,48.5 L16.7827,63.5 M29.7827,48.5 L42.7827,63.5" fill="none" style="stroke:#E7E7E7;stroke-width:0.5;"/></g><g class="participant participant-tail" data-participant="Player"><text fill="#FFFFFF" font-family="sans-serif" font-size="14" lengthAdjust="spacing" textLength="43.5654" x="5" y="568.8545">Player</text><ellipse cx="29.7827" cy="580.6563" fill="#222222" rx="8" ry="8" style="stroke:#E7E7E7;stroke-width:0.5;"/><path d="M29.7827,588.6563 L29.7827,615.6563 M16.7827,596.6563 L42.7827,596.6563 M29.7827,615.6563 L16.7827,630.6563 M29.7827,615.6563 L42.7827,630.6563" fill="none" style="stroke:#E7E7E7;stroke-width:0.5;"/></g><g class="participant participant-head" data-participant="HttpRestController"><rect fill="#222222" height="30.2969" rx="2.5" ry="2.5" style="stroke:#E7E7E7;stroke-width:0.5;" width="144.6895" x="103.4381" y="50"/><text fill="#FFFFFF" font-family="sans-serif" font-size="14" lengthAdjust="spacing" textLength="130.6895" x="110.4381" y="69.9951">HttpRestController</text></g><g class="participant participant-tail" data-participant="HttpRestController"><rect fill="#222222" height="30.2969" rx="2.5" ry="2.5" style="stroke:#E7E7E7;stroke-width:0.5;" width="144.6895" x="103.4381" y="555.8594"/><text fill="#FFFFFF" font-family="sans-serif" font-size="14" lengthAdjust="spacing" textLength="130.6895" x="110.4381" y="575.8545">HttpRestController</text></g><g class="participant participant-head" data-participant="GameThread"><rect fill="#222222" height="30.2969" rx="2.5" ry="2.5" style="stroke:#E7E7E7;stroke-width:0.5;" width="104.9385" x="258.1276" y="50"/><text fill="#FFFFFF" font-family="sans-serif" font-size="14" lengthAdjust="spacing" textLength="90.9385" x="265.1276" y="69.9951">GameThread</text></g><g class="participant participant-tail" data-participant="GameThread"><rect fill="#222222" height="30.2969" rx="2.5" ry="2.5" style="stroke:#E7E7E7;stroke-width:0.5;" width="104.9385" x="258.1276" y="555.8594"/><text fill="#FFFFFF" font-family="sans-serif" font-size="14" lengthAdjust="spacing" textLength="90.9385" x="265.1276" y="575.8545">GameThread</text></g><g class="participant participant-head" data-participant="GameService"><rect fill="#222222" height="30.2969" rx="2.5" ry="2.5" style="stroke:#E7E7E7;stroke-width:0.5;" width="107.4199" x="695.1121" y="50"/><text fill="#FFFFFF" font-family="sans-serif" font-size="14" lengthAdjust="spacing" textLength="93.4199" x="702.1121" y="69.9951">GameService</text></g><g class="participant participant-tail" data-participant="GameService"><rect fill="#222222" height="30.2969" rx="2.5" ry="2.5" style="stroke:#E7E7E7;stroke-width:0.5;" width="107.4199" x="695.1121" y="555.8594"/><text fill="#FFFFFF" font-family="sans-serif" font-size="14" lengthAdjust="spacing" textLength="93.4199" x="702.1121" y="575.8545">GameService</text></g><g class="participant participant-head" data-participant="RedisAccess"><rect fill="#222222" height="30.2969" rx="2.5" ry="2.5" style="stroke:#E7E7E7;stroke-width:0.5;" width="100.584" x="812.5321" y="50"/><text fill="#FFFFFF" font-family="sans-serif" font-size="14" lengthAdjust="spacing" textLength="86.584" x="819.5321" y="69.9951">RedisAccess</text></g><g class="participant participant-tail" data-participant="RedisAccess"><rect fill="#222222" height="30.2969" rx="2.5" ry="2.5" style="stroke:#E7E7E7;stroke-width:0.5;" width="100.584" x="812.5321" y="555.8594"/><text fill="#FFFFFF" font-family="sans-serif" font-size="14" lengthAdjust="spacing" textLength="86.584" x="819.5321" y="575.8545">RedisAccess</text></g><g class="participant participant-head" data-participant="DisconnectTimerManager"><rect fill="#222222" height="30.2969" rx="2.5" ry="2.5" style="stroke:#E7E7E7;stroke-width:0.5;" width="193.5869" x="923.116" y="50"/><text fill="#FFFFFF" font-family="sans-serif" font-size="14" lengthAdjust="spacing" textLength="179.5869" x="930.116" y="69.9951">DisconnectTimerManager</text></g><g class="participant participant-tail" data-participant="DisconnectTimerManager"><rect fill="#222222" height="30.2969" rx="2.5" ry="2.5" style="stroke:#E7E7E7;stroke-width:0.5;" width="193.5869" x="923.116" y="555.8594"/><text fill="#FFFFFF" font-family="sans-serif" font-size="14" lengthAdjust="spacing" textLength="179.5869" x="930.116" y="575.8545">DisconnectTimerManager</text></g><g><title>Player</title><rect fill="#FFFFFF" height="456.5625" style="stroke:#E7E7E7;stroke-width:1;" width="10" x="24.7827" y="91.2969"/></g><g><title>GameThread</title><rect fill="#FFFFFF" height="293.1953" style="stroke:#E7E7E7;stroke-width:1;" width="10" x="305.5968" y="91.2969"/></g><g><title>GameService</title><rect fill="#FFFFFF" height="90.3984" style="stroke:#E7E7E7;stroke-width:1;" width="10" x="743.8221" y="158.5625"/></g><g><title>RedisAccess</title><rect fill="#FFFFFF" height="29.1328" style="stroke:#E7E7E7;stroke-width:1;" width="10" x="857.8241" y="190.6953"/></g><g><title>DisconnectTimerManager</title><rect fill="#FFFFFF" height="29.1328" style="stroke:#E7E7E7;stroke-width:1;" width="10" x="1014.9095" y="278.0938"/></g><rect fill="#111111" height="3" style="stroke:#111111;stroke-width:1;" width="1121.703" x="0" y="111.8633"/><line style="stroke:#FFFFFF;stroke-width:1;" x1="0" x2="1121.703" y1="111.8633" y2="111.8633"/><line style="stroke:#FFFFFF;stroke-width:1;" x1="0" x2="1121.703" y1="114.8633" y2="114.8633"/><rect fill="#111111" height="23.1328" style="stroke:#FFFFFF;stroke-width:2;" width="135.526" x="493.0885" y="101.2969"/><text fill="#FFFFFF" font-family="sans-serif" font-size="13" font-weight="bold" lengthAdjust="spacing" textLength="117.0001" x="499.0885" y="117.3638">&#37323;&#25918;&#23565;&#23616;&#30456;&#38364;&#30340;&#36039;&#28304;</text><g class="message" data-participant-1="GameThread" data-participant-2="GameService"><polygon fill="#E7E7E7" points="731.8221,154.5625,741.8221,158.5625,731.8221,162.5625,735.8221,158.5625" style="stroke:#E7E7E7;stroke-width:1;"/><line style="stroke:#E7E7E7;stroke-width:1;" x1="315.5968" x2="737.8221" y1="158.5625" y2="158.5625"/><text fill="#FFFFFF" font-family="sans-serif" font-size="13" lengthAdjust="spacing" textLength="262.0822" x="322.5968" y="153.4966">&#21034;&#38500; Redis &#20013;&#30340;&#23565;&#23616;&#25976;&#25818; (GameData &#29289;&#20214;)</text></g><path d="M96,139.4297 L96,164.4297 L300,164.4297 L300,149.4297 L290,139.4297 L96,139.4297" fill="#714137" style="stroke:#E7E7E7;stroke-width:0.5;"/><path d="M290,139.4297 L290,149.4297 L300,149.4297 L290,139.4297" fill="#714137" style="stroke:#E7E7E7;stroke-width:0.5;"/><text fill="#FFFFFF" font-family="sans-serif" font-size="13" lengthAdjust="spacing" textLength="183.2761" x="102" y="156.4966">&#30070;&#23565;&#23616;&#32080;&#26463;&#26178; (&#22914;&#21213;&#36000;&#12289;&#24179;&#25163;&#26178;)</text><g class="message" data-participant-1="GameService" data-participant-2="RedisAccess"><polygon fill="#E7E7E7" points="845.8241,186.6953,855.8241,190.6953,845.8241,194.6953,849.8241,190.6953" style="stroke:#E7E7E7;stroke-width:1;"/><line style="stroke:#E7E7E7;stroke-width:1;" x1="753.8221" x2="851.8241" y1="190.6953" y2="190.6953"/><text fill="#FFFFFF" font-family="sans-serif" font-size="13" lengthAdjust="spacing" textLength="78.0001" x="760.8221" y="185.6294">&#21034;&#38500;&#23565;&#23616;&#25976;&#25818;</text></g><g class="message" data-participant-1="RedisAccess" data-participant-2="GameService"><polygon fill="#E7E7E7" points="764.8221,215.8281,754.8221,219.8281,764.8221,223.8281,760.8221,219.8281" style="stroke:#E7E7E7;stroke-width:1;"/><line style="stroke:#E7E7E7;stroke-width:1;stroke-dasharray:2,2;" x1="758.8221" x2="861.8241" y1="219.8281" y2="219.8281"/><text fill="#FFFFFF" font-family="sans-serif" font-size="13" lengthAdjust="spacing" textLength="52.0001" x="770.8221" y="214.7622">&#36820;&#22238;&#32080;&#26524;</text></g><g class="message" data-participant-1="GameService" data-participant-2="GameThread"><polygon fill="#E7E7E7" points="326.5968,244.9609,316.5968,248.9609,326.5968,252.9609,322.5968,248.9609" style="stroke:#E7E7E7;stroke-width:1;"/><line style="stroke:#E7E7E7;stroke-width:1;stroke-dasharray:2,2;" x1="320.5968" x2="747.8221" y1="248.9609" y2="248.9609"/><text fill="#FFFFFF" font-family="sans-serif" font-size="13" lengthAdjust="spacing" textLength="52.0001" x="332.5968" y="243.895">&#21034;&#38500;&#25104;&#21151;</text></g><g class="message" data-participant-1="GameThread" data-participant-2="DisconnectTimerManager"><polygon fill="#E7E7E7" points="1002.9095,274.0938,1012.9095,278.0938,1002.9095,282.0938,1006.9095,278.0938" style="stroke:#E7E7E7;stroke-width:1;"/><line style="stroke:#E7E7E7;stroke-width:1;" x1="315.5968" x2="1008.9095" y1="278.0938" y2="278.0938"/><text fill="#FFFFFF" font-family="sans-serif" font-size="13" lengthAdjust="spacing" textLength="91.0001" x="322.5968" y="273.0278">&#38364;&#38281;&#26039;&#32218;&#35336;&#26178;&#22120;</text></g><g class="message" data-participant-1="DisconnectTimerManager" data-participant-2="GameThread"><polygon fill="#E7E7E7" points="326.5968,303.2266,316.5968,307.2266,326.5968,311.2266,322.5968,307.2266" style="stroke:#E7E7E7;stroke-width:1;"/><line style="stroke:#E7E7E7;stroke-width:1;stroke-dasharray:2,2;" x1="320.5968" x2="1018.9095" y1="307.2266" y2="307.2266"/><text fill="#FFFFFF" font-family="sans-serif" font-size="13" lengthAdjust="spacing" textLength="52.0001" x="332.5968" y="302.1606">&#38364;&#38281;&#23436;&#25104;</text></g><g class="message" data-participant-1="GameThread" data-participant-2="GameThread"><line style="stroke:#E7E7E7;stroke-width:1;" x1="315.5968" x2="357.5968" y1="336.3594" y2="336.3594"/><line style="stroke:#E7E7E7;stroke-width:1;" x1="357.5968" x2="357.5968" y1="336.3594" y2="349.3594"/><line style="stroke:#E7E7E7;stroke-width:1;" x1="316.5968" x2="357.5968" y1="349.3594" y2="349.3594"/><polygon fill="#E7E7E7" points="326.5968,345.3594,316.5968,349.3594,326.5968,353.3594,322.5968,349.3594" style="stroke:#E7E7E7;stroke-width:1;"/><text fill="#FFFFFF" font-family="sans-serif" font-size="13" lengthAdjust="spacing" textLength="170.2761" x="322.5968" y="331.2935">&#32066;&#27490;&#35442;&#23565;&#23616;&#22519;&#34892;&#32210; (&#33258;&#28982;&#32080;&#26463;)</text></g><g class="message" data-participant-1="GameThread" data-participant-2="GameThread"><line style="stroke:#E7E7E7;stroke-width:1;" x1="315.5968" x2="357.5968" y1="378.4922" y2="378.4922"/><line style="stroke:#E7E7E7;stroke-width:1;" x1="357.5968" x2="357.5968" y1="378.4922" y2="391.4922"/><line style="stroke:#E7E7E7;stroke-width:1;" x1="316.5968" x2="357.5968" y1="391.4922" y2="391.4922"/><polygon fill="#E7E7E7" points="326.5968,387.4922,316.5968,391.4922,326.5968,395.4922,322.5968,391.4922" style="stroke:#E7E7E7;stroke-width:1;"/><text fill="#FFFFFF" font-family="sans-serif" font-size="13" lengthAdjust="spacing" textLength="404.2253" x="322.5968" y="373.4263">&#36890;&#30693;&#20027;&#22519;&#34892;&#32210;&#28165;&#38500; GameManager &#20013;&#35442;&#22519;&#34892;&#32210;&#30340;&#24341;&#29992; (&#25505;&#29992;&#22238;&#21628;&#20989;&#24335;)</text></g><line style="stroke:#A80036;stroke-width:2;" x1="301.5968" x2="319.5968" y1="382.4922" y2="400.4922"/><line style="stroke:#A80036;stroke-width:2;" x1="301.5968" x2="319.5968" y1="400.4922" y2="382.4922"/><rect fill="#111111" height="3" style="stroke:#111111;stroke-width:1;" width="1121.703" x="0" y="420.0586"/><line style="stroke:#FFFFFF;stroke-width:1;" x1="0" x2="1121.703" y1="420.0586" y2="420.0586"/><line style="stroke:#FFFFFF;stroke-width:1;" x1="0" x2="1121.703" y1="423.0586" y2="423.0586"/><rect fill="#111111" height="23.1328" style="stroke:#FFFFFF;stroke-width:2;" width="83.526" x="519.0885" y="409.4922"/><text fill="#FFFFFF" font-family="sans-serif" font-size="13" font-weight="bold" lengthAdjust="spacing" textLength="65.0001" x="525.0885" y="425.5591">&#36820;&#22238;&#24453;&#27231;&#23460;</text><g class="message" data-participant-1="Player" data-participant-2="HttpRestController"><polygon fill="#E7E7E7" points="163.7829,462.7578,173.7829,466.7578,163.7829,470.7578,167.7829,466.7578" style="stroke:#E7E7E7;stroke-width:1;"/><line style="stroke:#E7E7E7;stroke-width:1;" x1="34.7827" x2="169.7829" y1="466.7578" y2="466.7578"/><text fill="#FFFFFF" font-family="sans-serif" font-size="13" lengthAdjust="spacing" textLength="117.0001" x="41.7827" y="461.6919">&#30332;&#20986;&#36820;&#22238;&#24453;&#27231;&#23460;&#35531;&#27714;</text></g><path d="M180,447.625 L180,472.625 L539,472.625 L539,457.625 L529,447.625 L180,447.625" fill="#714137" style="stroke:#E7E7E7;stroke-width:0.5;"/><path d="M529,447.625 L529,457.625 L539,457.625 L529,447.625" fill="#714137" style="stroke:#E7E7E7;stroke-width:0.5;"/><text fill="#FFFFFF" font-family="sans-serif" font-size="13" lengthAdjust="spacing" textLength="338.0003" x="186" y="464.6919">&#30070;&#23565;&#23616;&#32080;&#26463;&#26178;&#65292;&#29609;&#23478;&#33287;&#35264;&#25136;&#32773;&#20173;&#26371;&#20572;&#30041;&#22312;&#26368;&#24460;&#30340;&#23565;&#23616;&#30059;&#38754;&#12290;</text><rect fill="none" height="39.1016" style="stroke:#DDDDDD;stroke-width:1.5;" width="152.0011" x="100.4381" y="477.7578"/><path d="M100.4381,477.7578 L165.4381,477.7578 L165.4381,484.7578 L155.4381,494.7578 L100.4381,494.7578 L100.4381,477.7578" fill="#444444" style="stroke:#DDDDDD;stroke-width:2;"/><text fill="#FFFFFF" font-family="sans-serif" font-size="13" font-weight="bold" lengthAdjust="spacing" textLength="20.8838" x="113.4381" y="491.8247">ref</text><text fill="#FFFFFF" font-family="sans-serif" font-size="12" lengthAdjust="spacing" textLength="144.0011" x="104.4381" y="509.8965">&#35443;&#35211;&#12300;&#36820;&#22238;&#24453;&#27231;&#23460;&#12301;&#24490;&#24207;&#22294;</text><!--SRC=[TLHTJnf157sVNp7w8iIWbgHDOqgJfYRjIvF6-WSswwYR891bOzB4XvLAW2ugja03BbAjjO2HAaIWWFJ7m7pmrB_GMHPn5_5fSsVElUVSS-_i3AIr2gl_xhSEQUQM_D2W2-AhFNojqfi4oUN9pGujQ606kXVSJ-SNdi-xtN0BoNDFvfu188YANuRllS9798E082kIA0K4dmAdtofAO1a5bTT-doBxlLuaJqCX21yUszFU29jePKD6mke0VXy-X7r0yfOaeX5k6Dk1osXL2huIHHGC3e2Ms0vSaeAYt-T3eh8YRIBvdU0JreUQ9ry1uF70VaGZoSxGhgD6_vjEixki6Y7D1FHuW6aCd9q5zusCHQwNLl7y4Yv272trCsUcLjXhNFAQ9WL9DSZNB7GO6Kk28a0QA_PQDIVm-HK4lMXDuTaqLRFDBnE23dmUmbgELRvtrHtyfqfY6Zzs0Yip5s8nnoh4ocrBUU5osN9uk0ZPtoG-EZQuZtLhemROnkSQ4P1e0d_EZxaosNLJ5_UvduwHT9tMiwmGvRtWJ66Sx9420rwp02x7EVM4QGmZxkLDY5oUicB5z03dw-maJkjVe8D5IdItPbhiVBp4r9J1fcPf_cUlqHhbaqROcB01lDF5vspmt26CcRTJD5c03h9_mh_SL7pOnf5Rt3vm3fRFT1ftmgIOn-Kpoy9n3GyVcj5EXXTeZkMn2urSXymLagNrZSaxzAyTf_j5NAwnQ8JzKadqYgdXNckFw9_mZavJ6QmNYAxYJdoqhJHrqS-TTjKGaD4QzFEVncHLh5XbvrfNZOy9wwfxk5F2pGEifm7Otjx-3m00]--></g></svg>