<svg xmlns="http://www.w3.org/2000/svg" xmlns:xlink="http://www.w3.org/1999/xlink" contentStyleType="text/css" data-diagram-type="SEQUENCE" height="298px" preserveAspectRatio="none" style="width:435px;height:298px;background:#1B1B1B;" version="1.1" viewBox="0 0 435 298" width="435px" zoomAndPan="magnify"><defs/><g><rect fill="#1B1B1B" height="298" style="stroke:none;stroke-width:1;" width="435" x="0" y="0"/><g><title>Player</title><rect fill="#FFFFFF" height="117.5313" style="stroke:#E7E7E7;stroke-width:1;" width="10" x="24.7827" y="91.2969"/></g><g><title>HttpRestController</title><rect fill="#FFFFFF" height="87.3984" style="stroke:#E7E7E7;stroke-width:1;" width="10" x="157.7828" y="112.4297"/></g><g><title>GameService</title><rect fill="#FFFFFF" height="29.1328" style="stroke:#E7E7E7;stroke-width:1;" width="10" x="370.9222" y="141.5625"/></g><g><title>Player</title><rect fill="#000000" fill-opacity="0.00000" height="136.5313" width="8" x="25.7827" y="81.2969"/><line style="stroke:#E7E7E7;stroke-width:0.5;stroke-dasharray:5,5;" x1="29" x2="29" y1="81.2969" y2="217.8281"/></g><g><title>HttpRestController</title><rect fill="#000000" fill-opacity="0.00000" height="136.5313" width="8" x="158.7828" y="81.2969"/><line style="stroke:#E7E7E7;stroke-width:0.5;stroke-dasharray:5,5;" x1="162.4381" x2="162.4381" y1="81.2969" y2="217.8281"/></g><g><title>GameService</title><rect fill="#000000" fill-opacity="0.00000" height="136.5313" width="8" x="371.9222" y="81.2969"/><line style="stroke:#E7E7E7;stroke-width:0.5;stroke-dasharray:5,5;" x1="375.2122" x2="375.2122" y1="81.2969" y2="217.8281"/></g><g class="participant participant-head" data-participant="Player"><text fill="#FFFFFF" font-family="sans-serif" font-size="14" lengthAdjust="spacing" textLength="43.5654" x="5" y="77.9951">Player</text><ellipse cx="29.7827" cy="13.5" fill="#222222" rx="8" ry="8" style="stroke:#E7E7E7;stroke-width:0.5;"/><path d="M29.7827,21.5 L29.7827,48.5 M16.7827,29.5 L42.7827,29.5 M29.7827,48.5 L16.7827,63.5 M29.7827,48.5 L42.7827,63.5" fill="none" style="stroke:#E7E7E7;stroke-width:0.5;"/></g><g class="participant participant-tail" data-participant="Player"><text fill="#FFFFFF" font-family="sans-serif" font-size="14" lengthAdjust="spacing" textLength="43.5654" x="5" y="229.8232">Player</text><ellipse cx="29.7827" cy="241.625" fill="#222222" rx="8" ry="8" style="stroke:#E7E7E7;stroke-width:0.5;"/><path d="M29.7827,249.625 L29.7827,276.625 M16.7827,257.625 L42.7827,257.625 M29.7827,276.625 L16.7827,291.625 M29.7827,276.625 L42.7827,291.625" fill="none" style="stroke:#E7E7E7;stroke-width:0.5;"/></g><g class="participant participant-head" data-participant="HttpRestController"><rect fill="#222222" height="30.2969" rx="2.5" ry="2.5" style="stroke:#E7E7E7;stroke-width:0.5;" width="144.6895" x="90.4381" y="50"/><text fill="#FFFFFF" font-family="sans-serif" font-size="14" lengthAdjust="spacing" textLength="130.6895" x="97.4381" y="69.9951">HttpRestController</text></g><g class="participant participant-tail" data-participant="HttpRestController"><rect fill="#222222" height="30.2969" rx="2.5" ry="2.5" style="stroke:#E7E7E7;stroke-width:0.5;" width="144.6895" x="90.4381" y="216.8281"/><text fill="#FFFFFF" font-family="sans-serif" font-size="14" lengthAdjust="spacing" textLength="130.6895" x="97.4381" y="236.8232">HttpRestController</text></g><g class="participant participant-head" data-participant="GameService"><rect fill="#222222" height="30.2969" rx="2.5" ry="2.5" style="stroke:#E7E7E7;stroke-width:0.5;" width="107.4199" x="322.2122" y="50"/><text fill="#FFFFFF" font-family="sans-serif" font-size="14" lengthAdjust="spacing" textLength="93.4199" x="329.2122" y="69.9951">GameService</text></g><g class="participant participant-tail" data-participant="GameService"><rect fill="#222222" height="30.2969" rx="2.5" ry="2.5" style="stroke:#E7E7E7;stroke-width:0.5;" width="107.4199" x="322.2122" y="216.8281"/><text fill="#FFFFFF" font-family="sans-serif" font-size="14" lengthAdjust="spacing" textLength="93.4199" x="329.2122" y="236.8232">GameService</text></g><g><title>Player</title><rect fill="#FFFFFF" height="117.5313" style="stroke:#E7E7E7;stroke-width:1;" width="10" x="24.7827" y="91.2969"/></g><g><title>HttpRestController</title><rect fill="#FFFFFF" height="87.3984" style="stroke:#E7E7E7;stroke-width:1;" width="10" x="157.7828" y="112.4297"/></g><g><title>GameService</title><rect fill="#FFFFFF" height="29.1328" style="stroke:#E7E7E7;stroke-width:1;" width="10" x="370.9222" y="141.5625"/></g><g class="message" data-participant-1="Player" data-participant-2="HttpRestController"><polygon fill="#E7E7E7" points="145.7828,108.4297,155.7828,112.4297,145.7828,116.4297,149.7828,112.4297" style="stroke:#E7E7E7;stroke-width:1;"/><line style="stroke:#E7E7E7;stroke-width:1;" x1="34.7827" x2="151.7828" y1="112.4297" y2="112.4297"/><text fill="#FFFFFF" font-family="sans-serif" font-size="13" lengthAdjust="spacing" textLength="104.0001" x="41.7827" y="107.3638">&#30332;&#36865;&#21462;&#28040;&#25490;&#38538;&#35531;&#27714;</text></g><g class="message" data-participant-1="HttpRestController" data-participant-2="GameService"><polygon fill="#E7E7E7" points="358.9222,137.5625,368.9222,141.5625,358.9222,145.5625,362.9222,141.5625" style="stroke:#E7E7E7;stroke-width:1;"/><line style="stroke:#E7E7E7;stroke-width:1;" x1="167.7828" x2="364.9222" y1="141.5625" y2="141.5625"/><text fill="#FFFFFF" font-family="sans-serif" font-size="13" lengthAdjust="spacing" textLength="184.1393" x="174.7828" y="136.4966">&#26681;&#25818; UUID &#23559;&#29609;&#23478;&#24478;&#38538;&#21015;&#20013;&#31227;&#38500;</text></g><g class="message" data-participant-1="GameService" data-participant-2="HttpRestController"><polygon fill="#E7E7E7" points="178.7828,166.6953,168.7828,170.6953,178.7828,174.6953,174.7828,170.6953" style="stroke:#E7E7E7;stroke-width:1;"/><line style="stroke:#E7E7E7;stroke-width:1;stroke-dasharray:2,2;" x1="172.7828" x2="374.9222" y1="170.6953" y2="170.6953"/><text fill="#FFFFFF" font-family="sans-serif" font-size="13" lengthAdjust="spacing" textLength="52.0001" x="184.7828" y="165.6294">&#36820;&#22238;&#32080;&#26524;</text></g><g class="message" data-participant-1="HttpRestController" data-participant-2="Player"><polygon fill="#E7E7E7" points="45.7827,195.8281,35.7827,199.8281,45.7827,203.8281,41.7827,199.8281" style="stroke:#E7E7E7;stroke-width:1;"/><line style="stroke:#E7E7E7;stroke-width:1;stroke-dasharray:2,2;" x1="39.7827" x2="161.7828" y1="199.8281" y2="199.8281"/><text fill="#FFFFFF" font-family="sans-serif" font-size="13" lengthAdjust="spacing" textLength="52.0001" x="51.7827" y="194.7622">&#38911;&#25033;&#23436;&#25104;</text></g><!--SRC=[KrTulctJY-thN-wU-7pctcUBknLq5PxsJtkshUDPtwINixgURMrylgARIrt1oC38LD_0HD_GLA4ijKZFKC-0YoinkII_I24W9x4ojOYh8B6e93Cvio0nhqH1oQEaf20ejRZ4EJ-lf2W_9oUrI4aXiLW1KnXLctjYRcfmQb5PPd8gM3qIduiBOe-2jZQCfMk7nK2Wl8ALmlEPUrusD29xvCNgxcSRcxYmQ00QWsGFHF-p1JkVJPwb41hgwQBmT4FxyxwLJzTjUxfl7j2WfntJd-nO-tpvxfSpbs0ppaPN5yKy8DTAuSN-AKzdptk-TSApUNDWpWSfnEOSaFgNy_S_Q-zykgxdMSS40000]--></g></svg>