<svg xmlns="http://www.w3.org/2000/svg" xmlns:xlink="http://www.w3.org/1999/xlink" contentStyleType="text/css" data-diagram-type="SEQUENCE" height="917px" preserveAspectRatio="none" style="width:1314px;height:917px;background:#1B1B1B;" version="1.1" viewBox="0 0 1314 917" width="1314px" zoomAndPan="magnify"><defs/><g><rect fill="#1B1B1B" height="917" style="stroke:none;stroke-width:1;" width="1314" x="0" y="0"/><g><title>Spectator</title><rect fill="#FFFFFF" height="736.7578" style="stroke:#E7E7E7;stroke-width:1;" width="10" x="36.9814" y="91.2969"/></g><g><title>HttpRestController</title><rect fill="#FFFFFF" height="29.1328" style="stroke:#E7E7E7;stroke-width:1;" width="10" x="221.9816" y="155.5625"/></g><g><title>HttpRestController</title><rect fill="#FFFFFF" height="29.1328" style="stroke:#E7E7E7;stroke-width:1;" width="10" x="221.9816" y="256.9609"/></g><g><title>WebSocketHandler</title><rect fill="#FFFFFF" height="29.1328" style="stroke:#E7E7E7;stroke-width:1;" width="10" x="378.2399" y="677.6875"/></g><g><title>WatchService</title><rect fill="#FFFFFF" height="391.5938" style="stroke:#E7E7E7;stroke-width:1;" width="10" x="517.2648" y="286.0938"/></g><g><title>PlayerManagement</title><rect fill="#FFFFFF" height="87.3984" style="stroke:#E7E7E7;stroke-width:1;" width="10" x="850.2417" y="358.3594"/></g><g><title>GameService</title><rect fill="#FFFFFF" height="87.3984" style="stroke:#E7E7E7;stroke-width:1;" width="10" x="988.8462" y="518.0234"/></g><g><title>RedisAccess</title><rect fill="#FFFFFF" height="29.1328" style="stroke:#E7E7E7;stroke-width:1;" width="10" x="1102.8481" y="387.4922"/></g><g><title>RedisAccess</title><rect fill="#FFFFFF" height="29.1328" style="stroke:#E7E7E7;stroke-width:1;" width="10" x="1102.8481" y="547.1563"/></g><g><title>Spectator</title><rect fill="#000000" fill-opacity="0.00000" height="755.7578" width="8" x="37.9814" y="81.2969"/><line style="stroke:#E7E7E7;stroke-width:0.5;stroke-dasharray:5,5;" x1="41" x2="41" y1="81.2969" y2="837.0547"/></g><g><title>HttpRestController</title><rect fill="#000000" fill-opacity="0.00000" height="755.7578" width="8" x="222.9816" y="81.2969"/><line style="stroke:#E7E7E7;stroke-width:0.5;stroke-dasharray:5,5;" x1="226.6369" x2="226.6369" y1="81.2969" y2="837.0547"/></g><g><title>WebSocketHandler</title><rect fill="#000000" fill-opacity="0.00000" height="755.7578" width="8" x="379.2399" y="81.2969"/><line style="stroke:#E7E7E7;stroke-width:0.5;stroke-dasharray:5,5;" x1="382.3264" x2="382.3264" y1="81.2969" y2="837.0547"/></g><g><title>WatchService</title><rect fill="#000000" fill-opacity="0.00000" height="755.7578" width="8" x="518.2648" y="81.2969"/><line style="stroke:#E7E7E7;stroke-width:0.5;stroke-dasharray:5,5;" x1="522.1535" x2="522.1535" y1="81.2969" y2="837.0547"/></g><g><title>PlayerManagement</title><rect fill="#000000" fill-opacity="0.00000" height="755.7578" width="8" x="851.2417" y="81.2969"/><line style="stroke:#E7E7E7;stroke-width:0.5;stroke-dasharray:5,5;" x1="854.3472" x2="854.3472" y1="81.2969" y2="837.0547"/></g><g><title>GameService</title><rect fill="#000000" fill-opacity="0.00000" height="755.7578" width="8" x="989.8462" y="81.2969"/><line style="stroke:#E7E7E7;stroke-width:0.5;stroke-dasharray:5,5;" x1="993.1362" x2="993.1362" y1="81.2969" y2="837.0547"/></g><g><title>RedisAccess</title><rect fill="#000000" fill-opacity="0.00000" height="755.7578" width="8" x="1103.8481" y="81.2969"/><line style="stroke:#E7E7E7;stroke-width:0.5;stroke-dasharray:5,5;" x1="1107.5562" x2="1107.5562" y1="81.2969" y2="837.0547"/></g><g><title>GameThread</title><rect fill="#000000" fill-opacity="0.00000" height="755.7578" width="8" x="1216.6094" y="81.2969"/><line style="stroke:#E7E7E7;stroke-width:0.5;stroke-dasharray:5,5;" x1="1220.1401" x2="1220.1401" y1="81.2969" y2="837.0547"/></g><g class="participant participant-head" data-participant="Spectator"><text fill="#FFFFFF" font-family="sans-serif" font-size="14" lengthAdjust="spacing" textLength="67.9629" x="5" y="77.9951">Spectator</text><ellipse cx="41.9814" cy="13.5" fill="#222222" rx="8" ry="8" style="stroke:#E7E7E7;stroke-width:0.5;"/><path d="M41.9814,21.5 L41.9814,48.5 M28.9814,29.5 L54.9814,29.5 M41.9814,48.5 L28.9814,63.5 M41.9814,48.5 L54.9814,63.5" fill="none" style="stroke:#E7E7E7;stroke-width:0.5;"/></g><g class="participant participant-tail" data-participant="Spectator"><text fill="#FFFFFF" font-family="sans-serif" font-size="14" lengthAdjust="spacing" textLength="67.9629" x="5" y="849.0498">Spectator</text><ellipse cx="41.9814" cy="860.8516" fill="#222222" rx="8" ry="8" style="stroke:#E7E7E7;stroke-width:0.5;"/><path d="M41.9814,868.8516 L41.9814,895.8516 M28.9814,876.8516 L54.9814,876.8516 M41.9814,895.8516 L28.9814,910.8516 M41.9814,895.8516 L54.9814,910.8516" fill="none" style="stroke:#E7E7E7;stroke-width:0.5;"/></g><g class="participant participant-head" data-participant="HttpRestController"><rect fill="#222222" height="30.2969" rx="2.5" ry="2.5" style="stroke:#E7E7E7;stroke-width:0.5;" width="144.6895" x="154.6369" y="50"/><text fill="#FFFFFF" font-family="sans-serif" font-size="14" lengthAdjust="spacing" textLength="130.6895" x="161.6369" y="69.9951">HttpRestController</text></g><g class="participant participant-tail" data-participant="HttpRestController"><rect fill="#222222" height="30.2969" rx="2.5" ry="2.5" style="stroke:#E7E7E7;stroke-width:0.5;" width="144.6895" x="154.6369" y="836.0547"/><text fill="#FFFFFF" font-family="sans-serif" font-size="14" lengthAdjust="spacing" textLength="130.6895" x="161.6369" y="856.0498">HttpRestController</text></g><g class="participant participant-head" data-participant="WebSocketHandler"><rect fill="#222222" height="30.2969" rx="2.5" ry="2.5" style="stroke:#E7E7E7;stroke-width:0.5;" width="147.8271" x="309.3264" y="50"/><text fill="#FFFFFF" font-family="sans-serif" font-size="14" lengthAdjust="spacing" textLength="133.8271" x="316.3264" y="69.9951">WebSocketHandler</text></g><g class="participant participant-tail" data-participant="WebSocketHandler"><rect fill="#222222" height="30.2969" rx="2.5" ry="2.5" style="stroke:#E7E7E7;stroke-width:0.5;" width="147.8271" x="309.3264" y="836.0547"/><text fill="#FFFFFF" font-family="sans-serif" font-size="14" lengthAdjust="spacing" textLength="133.8271" x="316.3264" y="856.0498">WebSocketHandler</text></g><g class="participant participant-head" data-participant="WatchService"><rect fill="#222222" height="30.2969" rx="2.5" ry="2.5" style="stroke:#E7E7E7;stroke-width:0.5;" width="110.2227" x="467.1535" y="50"/><text fill="#FFFFFF" font-family="sans-serif" font-size="14" lengthAdjust="spacing" textLength="96.2227" x="474.1535" y="69.9951">WatchService</text></g><g class="participant participant-tail" data-participant="WatchService"><rect fill="#222222" height="30.2969" rx="2.5" ry="2.5" style="stroke:#E7E7E7;stroke-width:0.5;" width="110.2227" x="467.1535" y="836.0547"/><text fill="#FFFFFF" font-family="sans-serif" font-size="14" lengthAdjust="spacing" textLength="96.2227" x="474.1535" y="856.0498">WatchService</text></g><g class="participant participant-head" data-participant="PlayerManagement"><rect fill="#222222" height="30.2969" rx="2.5" ry="2.5" style="stroke:#E7E7E7;stroke-width:0.5;" width="149.7891" x="780.3472" y="50"/><text fill="#FFFFFF" font-family="sans-serif" font-size="14" lengthAdjust="spacing" textLength="135.7891" x="787.3472" y="69.9951">PlayerManagement</text></g><g class="participant participant-tail" data-participant="PlayerManagement"><rect fill="#222222" height="30.2969" rx="2.5" ry="2.5" style="stroke:#E7E7E7;stroke-width:0.5;" width="149.7891" x="780.3472" y="836.0547"/><text fill="#FFFFFF" font-family="sans-serif" font-size="14" lengthAdjust="spacing" textLength="135.7891" x="787.3472" y="856.0498">PlayerManagement</text></g><g class="participant participant-head" data-participant="GameService"><rect fill="#222222" height="30.2969" rx="2.5" ry="2.5" style="stroke:#E7E7E7;stroke-width:0.5;" width="107.4199" x="940.1362" y="50"/><text fill="#FFFFFF" font-family="sans-serif" font-size="14" lengthAdjust="spacing" textLength="93.4199" x="947.1362" y="69.9951">GameService</text></g><g class="participant participant-tail" data-participant="GameService"><rect fill="#222222" height="30.2969" rx="2.5" ry="2.5" style="stroke:#E7E7E7;stroke-width:0.5;" width="107.4199" x="940.1362" y="836.0547"/><text fill="#FFFFFF" font-family="sans-serif" font-size="14" lengthAdjust="spacing" textLength="93.4199" x="947.1362" y="856.0498">GameService</text></g><g class="participant participant-head" data-participant="RedisAccess"><rect fill="#222222" height="30.2969" rx="2.5" ry="2.5" style="stroke:#E7E7E7;stroke-width:0.5;" width="100.584" x="1057.5562" y="50"/><text fill="#FFFFFF" font-family="sans-serif" font-size="14" lengthAdjust="spacing" textLength="86.584" x="1064.5562" y="69.9951">RedisAccess</text></g><g class="participant participant-tail" data-participant="RedisAccess"><rect fill="#222222" height="30.2969" rx="2.5" ry="2.5" style="stroke:#E7E7E7;stroke-width:0.5;" width="100.584" x="1057.5562" y="836.0547"/><text fill="#FFFFFF" font-family="sans-serif" font-size="14" lengthAdjust="spacing" textLength="86.584" x="1064.5562" y="856.0498">RedisAccess</text></g><g class="participant participant-head" data-participant="GameThread"><rect fill="#222222" height="30.2969" rx="2.5" ry="2.5" style="stroke:#E7E7E7;stroke-width:0.5;" width="104.9385" x="1168.1401" y="50"/><text fill="#FFFFFF" font-family="sans-serif" font-size="14" lengthAdjust="spacing" textLength="90.9385" x="1175.1401" y="69.9951">GameThread</text></g><g class="participant participant-tail" data-participant="GameThread"><rect fill="#222222" height="30.2969" rx="2.5" ry="2.5" style="stroke:#E7E7E7;stroke-width:0.5;" width="104.9385" x="1168.1401" y="836.0547"/><text fill="#FFFFFF" font-family="sans-serif" font-size="14" lengthAdjust="spacing" textLength="90.9385" x="1175.1401" y="856.0498">GameThread</text></g><g><title>Spectator</title><rect fill="#FFFFFF" height="736.7578" style="stroke:#E7E7E7;stroke-width:1;" width="10" x="36.9814" y="91.2969"/></g><g><title>HttpRestController</title><rect fill="#FFFFFF" height="29.1328" style="stroke:#E7E7E7;stroke-width:1;" width="10" x="221.9816" y="155.5625"/></g><g><title>HttpRestController</title><rect fill="#FFFFFF" height="29.1328" style="stroke:#E7E7E7;stroke-width:1;" width="10" x="221.9816" y="256.9609"/></g><g><title>WebSocketHandler</title><rect fill="#FFFFFF" height="29.1328" style="stroke:#E7E7E7;stroke-width:1;" width="10" x="378.2399" y="677.6875"/></g><g><title>WatchService</title><rect fill="#FFFFFF" height="391.5938" style="stroke:#E7E7E7;stroke-width:1;" width="10" x="517.2648" y="286.0938"/></g><g><title>PlayerManagement</title><rect fill="#FFFFFF" height="87.3984" style="stroke:#E7E7E7;stroke-width:1;" width="10" x="850.2417" y="358.3594"/></g><g><title>GameService</title><rect fill="#FFFFFF" height="87.3984" style="stroke:#E7E7E7;stroke-width:1;" width="10" x="988.8462" y="518.0234"/></g><g><title>RedisAccess</title><rect fill="#FFFFFF" height="29.1328" style="stroke:#E7E7E7;stroke-width:1;" width="10" x="1102.8481" y="387.4922"/></g><g><title>RedisAccess</title><rect fill="#FFFFFF" height="29.1328" style="stroke:#E7E7E7;stroke-width:1;" width="10" x="1102.8481" y="547.1563"/></g><rect fill="#111111" height="3" style="stroke:#111111;stroke-width:1;" width="1307.1411" x="0" y="111.8633"/><line style="stroke:#FFFFFF;stroke-width:1;" x1="0" x2="1307.1411" y1="111.8633" y2="111.8633"/><line style="stroke:#FFFFFF;stroke-width:1;" x1="0" x2="1307.1411" y1="114.8633" y2="114.8633"/><rect fill="#111111" height="23.1328" style="stroke:#FFFFFF;stroke-width:2;" width="96.526" x="605.3076" y="101.2969"/><text fill="#FFFFFF" font-family="sans-serif" font-size="13" font-weight="bold" lengthAdjust="spacing" textLength="78.0001" x="611.3076" y="117.3638">&#30332;&#36865;&#35264;&#25136;&#35531;&#27714;</text><g class="message" data-participant-1="Spectator" data-participant-2="HttpRestController"><polygon fill="#E7E7E7" points="209.9816,151.5625,219.9816,155.5625,209.9816,159.5625,213.9816,155.5625" style="stroke:#E7E7E7;stroke-width:1;"/><line style="stroke:#E7E7E7;stroke-width:1;" x1="46.9814" x2="215.9816" y1="155.5625" y2="155.5625"/><text fill="#FFFFFF" font-family="sans-serif" font-size="13" lengthAdjust="spacing" textLength="104.0001" x="53.9814" y="150.4966">&#30332;&#36865;&#12300;&#35264;&#25136;&#12301;&#35531;&#27714;</text></g><g class="message" data-participant-1="HttpRestController" data-participant-2="Spectator"><polygon fill="#E7E7E7" points="57.9814,180.6953,47.9814,184.6953,57.9814,188.6953,53.9814,184.6953" style="stroke:#E7E7E7;stroke-width:1;"/><line style="stroke:#E7E7E7;stroke-width:1;stroke-dasharray:2,2;" x1="51.9814" x2="225.9816" y1="184.6953" y2="184.6953"/><text fill="#FFFFFF" font-family="sans-serif" font-size="13" lengthAdjust="spacing" textLength="104.0001" x="63.9814" y="179.6294">&#36820;&#22238;&#12300;&#35264;&#25136;&#12301;&#38913;&#38754;</text></g><rect fill="#111111" height="3" style="stroke:#111111;stroke-width:1;" width="1307.1411" x="0" y="213.2617"/><line style="stroke:#FFFFFF;stroke-width:1;" x1="0" x2="1307.1411" y1="213.2617" y2="213.2617"/><line style="stroke:#FFFFFF;stroke-width:1;" x1="0" x2="1307.1411" y1="216.2617" y2="216.2617"/><rect fill="#111111" height="23.1328" style="stroke:#FFFFFF;stroke-width:2;" width="122.526" x="592.3076" y="202.6953"/><text fill="#FFFFFF" font-family="sans-serif" font-size="13" font-weight="bold" lengthAdjust="spacing" textLength="104.0001" x="598.3076" y="218.7622">&#29554;&#21462;&#35264;&#25136;&#25152;&#38656;&#25976;&#25818;</text><g class="message" data-participant-1="Spectator" data-participant-2="HttpRestController"><polygon fill="#E7E7E7" points="209.9816,252.9609,219.9816,256.9609,209.9816,260.9609,213.9816,256.9609" style="stroke:#E7E7E7;stroke-width:1;"/><line style="stroke:#E7E7E7;stroke-width:1;" x1="46.9814" x2="215.9816" y1="256.9609" y2="256.9609"/><text fill="#FFFFFF" font-family="sans-serif" font-size="13" lengthAdjust="spacing" textLength="156.0002" x="53.9814" y="251.895">&#30332;&#36865;&#29554;&#21462;&#35264;&#25136;&#25152;&#38656;&#25976;&#25818;&#35531;&#27714;</text></g><g class="message" data-participant-1="HttpRestController" data-participant-2="WatchService"><polygon fill="#E7E7E7" points="505.2648,282.0938,515.2648,286.0938,505.2648,290.0938,509.2648,286.0938" style="stroke:#E7E7E7;stroke-width:1;"/><line style="stroke:#E7E7E7;stroke-width:1;" x1="226.9816" x2="511.2648" y1="286.0938" y2="286.0938"/><text fill="#FFFFFF" font-family="sans-serif" font-size="13" lengthAdjust="spacing" textLength="78.0001" x="233.9816" y="281.0278">&#34389;&#29702;&#35264;&#25136;&#35531;&#27714;</text></g><rect fill="#111111" height="3" style="stroke:#111111;stroke-width:1;" width="1307.1411" x="0" y="314.6602"/><line style="stroke:#FFFFFF;stroke-width:1;" x1="0" x2="1307.1411" y1="314.6602" y2="314.6602"/><line style="stroke:#FFFFFF;stroke-width:1;" x1="0" x2="1307.1411" y1="317.6602" y2="317.6602"/><rect fill="#111111" height="23.1328" style="stroke:#FFFFFF;stroke-width:2;" width="96.526" x="605.3076" y="304.0938"/><text fill="#FFFFFF" font-family="sans-serif" font-size="13" font-weight="bold" lengthAdjust="spacing" textLength="78.0001" x="611.3076" y="320.1606">&#26356;&#25913;&#29609;&#23478;&#29376;&#24907;</text><g class="message" data-participant-1="WatchService" data-participant-2="PlayerManagement"><polygon fill="#E7E7E7" points="838.2417,354.3594,848.2417,358.3594,838.2417,362.3594,842.2417,358.3594" style="stroke:#E7E7E7;stroke-width:1;"/><line style="stroke:#E7E7E7;stroke-width:1;" x1="527.2648" x2="844.2417" y1="358.3594" y2="358.3594"/><text fill="#FFFFFF" font-family="sans-serif" font-size="13" lengthAdjust="spacing" textLength="303.9769" x="534.2648" y="353.2935">&#26356;&#25913;&#29609;&#23478;&#36938;&#25138;&#29376;&#24907;&#28858;&#12300;&#35264;&#25136;&#20013;&#12301;&#20006;&#20786;&#23384;&#23565;&#25033;&#30340;&#23565;&#23616; ID</text></g><g class="message" data-participant-1="PlayerManagement" data-participant-2="RedisAccess"><polygon fill="#E7E7E7" points="1090.8481,383.4922,1100.8481,387.4922,1090.8481,391.4922,1094.8481,387.4922" style="stroke:#E7E7E7;stroke-width:1;"/><line style="stroke:#E7E7E7;stroke-width:1;" x1="860.2417" x2="1096.8481" y1="387.4922" y2="387.4922"/><text fill="#FFFFFF" font-family="sans-serif" font-size="13" lengthAdjust="spacing" textLength="104.0001" x="867.2417" y="382.4263">&#26356;&#25913;&#29609;&#23478;&#36938;&#25138;&#29376;&#24907;</text></g><g class="message" data-participant-1="RedisAccess" data-participant-2="PlayerManagement"><polygon fill="#E7E7E7" points="871.2417,412.625,861.2417,416.625,871.2417,420.625,867.2417,416.625" style="stroke:#E7E7E7;stroke-width:1;"/><line style="stroke:#E7E7E7;stroke-width:1;stroke-dasharray:2,2;" x1="865.2417" x2="1106.8481" y1="416.625" y2="416.625"/><text fill="#FFFFFF" font-family="sans-serif" font-size="13" lengthAdjust="spacing" textLength="52.0001" x="877.2417" y="411.5591">&#26356;&#25913;&#23436;&#25104;</text></g><g class="message" data-participant-1="PlayerManagement" data-participant-2="WatchService"><polygon fill="#E7E7E7" points="538.2648,441.7578,528.2648,445.7578,538.2648,449.7578,534.2648,445.7578" style="stroke:#E7E7E7;stroke-width:1;"/><line style="stroke:#E7E7E7;stroke-width:1;stroke-dasharray:2,2;" x1="532.2648" x2="854.2417" y1="445.7578" y2="445.7578"/><text fill="#FFFFFF" font-family="sans-serif" font-size="13" lengthAdjust="spacing" textLength="52.0001" x="544.2648" y="440.6919">&#26356;&#25913;&#23436;&#25104;</text></g><rect fill="#111111" height="3" style="stroke:#111111;stroke-width:1;" width="1307.1411" x="0" y="474.3242"/><line style="stroke:#FFFFFF;stroke-width:1;" x1="0" x2="1307.1411" y1="474.3242" y2="474.3242"/><line style="stroke:#FFFFFF;stroke-width:1;" x1="0" x2="1307.1411" y1="477.3242" y2="477.3242"/><rect fill="#111111" height="23.1328" style="stroke:#FFFFFF;stroke-width:2;" width="187.5261" x="559.8075" y="463.7578"/><text fill="#FFFFFF" font-family="sans-serif" font-size="13" font-weight="bold" lengthAdjust="spacing" textLength="169.0002" x="565.8075" y="479.8247">&#29554;&#21462;&#35264;&#25136;&#23565;&#23616;&#30340;&#26368;&#26032;&#23565;&#23616;&#25976;&#25818;</text><g class="message" data-participant-1="WatchService" data-participant-2="GameService"><polygon fill="#E7E7E7" points="976.8462,514.0234,986.8462,518.0234,976.8462,522.0234,980.8462,518.0234" style="stroke:#E7E7E7;stroke-width:1;"/><line style="stroke:#E7E7E7;stroke-width:1;" x1="527.2648" x2="982.8462" y1="518.0234" y2="518.0234"/><text fill="#FFFFFF" font-family="sans-serif" font-size="13" lengthAdjust="spacing" textLength="178.1091" x="534.2648" y="512.9575">&#26681;&#25818;&#23565;&#23616; ID &#29554;&#21462;&#26368;&#26032;&#23565;&#23616;&#25976;&#25818;</text></g><g class="message" data-participant-1="GameService" data-participant-2="RedisAccess"><polygon fill="#E7E7E7" points="1090.8481,543.1563,1100.8481,547.1563,1090.8481,551.1563,1094.8481,547.1563" style="stroke:#E7E7E7;stroke-width:1;"/><line style="stroke:#E7E7E7;stroke-width:1;" x1="998.8462" x2="1096.8481" y1="547.1563" y2="547.1563"/><text fill="#FFFFFF" font-family="sans-serif" font-size="13" lengthAdjust="spacing" textLength="78.0001" x="1005.8462" y="542.0903">&#29554;&#21462;&#23565;&#23616;&#25976;&#25818;</text></g><g class="message" data-participant-1="RedisAccess" data-participant-2="GameService"><polygon fill="#E7E7E7" points="1009.8462,572.2891,999.8462,576.2891,1009.8462,580.2891,1005.8462,576.2891" style="stroke:#E7E7E7;stroke-width:1;"/><line style="stroke:#E7E7E7;stroke-width:1;stroke-dasharray:2,2;" x1="1003.8462" x2="1106.8481" y1="576.2891" y2="576.2891"/><text fill="#FFFFFF" font-family="sans-serif" font-size="13" lengthAdjust="spacing" textLength="78.0001" x="1015.8462" y="571.2231">&#36820;&#22238;&#23565;&#23616;&#25976;&#25818;</text></g><g class="message" data-participant-1="GameService" data-participant-2="WatchService"><polygon fill="#E7E7E7" points="538.2648,601.4219,528.2648,605.4219,538.2648,609.4219,534.2648,605.4219" style="stroke:#E7E7E7;stroke-width:1;"/><line style="stroke:#E7E7E7;stroke-width:1;stroke-dasharray:2,2;" x1="532.2648" x2="992.8462" y1="605.4219" y2="605.4219"/><text fill="#FFFFFF" font-family="sans-serif" font-size="13" lengthAdjust="spacing" textLength="78.0001" x="544.2648" y="600.356">&#36820;&#22238;&#23565;&#23616;&#25976;&#25818;</text></g><rect fill="#111111" height="3" style="stroke:#111111;stroke-width:1;" width="1307.1411" x="0" y="633.9883"/><line style="stroke:#FFFFFF;stroke-width:1;" x1="0" x2="1307.1411" y1="633.9883" y2="633.9883"/><line style="stroke:#FFFFFF;stroke-width:1;" x1="0" x2="1307.1411" y1="636.9883" y2="636.9883"/><rect fill="#111111" height="23.1328" style="stroke:#FFFFFF;stroke-width:2;" width="226.5261" x="540.3075" y="623.4219"/><text fill="#FFFFFF" font-family="sans-serif" font-size="13" font-weight="bold" lengthAdjust="spacing" textLength="208.0002" x="546.3075" y="639.4888">&#24291;&#25773;&#23565;&#23616;&#25976;&#25818;&#32102;&#12300;&#26032;&#21152;&#20837;&#12301;&#30340;&#35264;&#25136;&#32773;</text><g class="message" data-participant-1="WatchService" data-participant-2="WebSocketHandler"><polygon fill="#E7E7E7" points="399.2399,673.6875,389.2399,677.6875,399.2399,681.6875,395.2399,677.6875" style="stroke:#E7E7E7;stroke-width:1;"/><line style="stroke:#E7E7E7;stroke-width:1;stroke-dasharray:2,2;" x1="393.2399" x2="521.2648" y1="677.6875" y2="677.6875"/><text fill="#FFFFFF" font-family="sans-serif" font-size="13" lengthAdjust="spacing" textLength="78.0001" x="405.2399" y="672.6216">&#24291;&#25773;&#23565;&#23616;&#25976;&#25818;</text></g><g class="message" data-participant-1="WebSocketHandler" data-participant-2="Spectator"><polygon fill="#E7E7E7" points="57.9814,702.8203,47.9814,706.8203,57.9814,710.8203,53.9814,706.8203" style="stroke:#E7E7E7;stroke-width:1;"/><line style="stroke:#E7E7E7;stroke-width:1;stroke-dasharray:2,2;" x1="51.9814" x2="382.2399" y1="706.8203" y2="706.8203"/><text fill="#FFFFFF" font-family="sans-serif" font-size="13" lengthAdjust="spacing" textLength="78.0001" x="63.9814" y="701.7544">&#24291;&#25773;&#23565;&#23616;&#25976;&#25818;</text></g><rect fill="#111111" height="3" style="stroke:#111111;stroke-width:1;" width="1307.1411" x="0" y="735.3867"/><line style="stroke:#FFFFFF;stroke-width:1;" x1="0" x2="1307.1411" y1="735.3867" y2="735.3867"/><line style="stroke:#FFFFFF;stroke-width:1;" x1="0" x2="1307.1411" y1="738.3867" y2="738.3867"/><rect fill="#111111" height="23.1328" style="stroke:#FFFFFF;stroke-width:2;" width="278.5262" x="514.3075" y="724.8203"/><text fill="#FFFFFF" font-family="sans-serif" font-size="13" font-weight="bold" lengthAdjust="spacing" textLength="260.0003" x="520.3075" y="740.8872">&#30070;&#23565;&#23616;&#20013;&#26377;&#26032;&#30340;&#33853;&#23376;&#35338;&#24687;&#26178;&#24291;&#25773;&#32102;&#25152;&#26377;&#35264;&#25136;&#32773;</text><rect fill="none" height="39.1016" style="stroke:#DDDDDD;stroke-width:1.5;" width="140.001" x="1165.1401" y="757.9531"/><path d="M1165.1401,757.9531 L1230.1401,757.9531 L1230.1401,764.9531 L1220.1401,774.9531 L1165.1401,774.9531 L1165.1401,757.9531" fill="#444444" style="stroke:#DDDDDD;stroke-width:2;"/><text fill="#FFFFFF" font-family="sans-serif" font-size="13" font-weight="bold" lengthAdjust="spacing" textLength="20.8838" x="1178.1401" y="772.02">ref</text><text fill="#FFFFFF" font-family="sans-serif" font-size="12" lengthAdjust="spacing" textLength="132.001" x="1169.1401" y="790.0918">&#35443;&#35211;&#12300;&#29609;&#23478;&#23565;&#23616;&#12301;&#24490;&#24207;&#22294;</text><!--SRC=[XLHTRn9157sVNp7fInyQseffOXeXCPfO7qnCQ-BpTXajaG9PDarCU5YmAB35eXOYBIgn4LiD_K2Bj1NzCUtCxluBPtTMdDa1VTkvUy-vvvvxPoQXrUlQtm-TyvTMOq1sJHY2zYU358zm-RtzT41ESjQU2IPXU3OyDpDxRIPy5QuXRVhAz1m0YggdDBYKHggkq2-GLZGzhiRJIbA74mkwdbv46VrcAgbhgKG2QHDGoK0vBC8UeEMbbFeOwGjAClO750m688gkhYmXRIsk8fRE1SJKUmdb2TBkAadb4Lf5ITrB3mP5o6rb5V7at5bCN4InUEQ6gg9CnalapZBZ_HKDAR4X8Ji248b0g_73CN9i1lONanpdOIG2XYR3gIdk48gEC9Icm7cVvyBOO5GNHeMnSUZheT0eE8tEG_lN5jvvnyETLivv-u5fh7JnPftz8IN3QHgarYUljqMb_nKtZiONEafQL1YkBxLHiwhFUCU0a4GTyrIJdMzawzHwiOyFUfPfa8BfwXNvej8sCC4yricLIR7B6ApysT2Zotw7sdJPR-FrBkwymKSLyhnaRQ_J3tnim3ktWCHDwt5hykzICjgT7m_tt61mVB11YbMnEJTTLY1XWWDcycaVXCwdxX__pZle7tS__7vQfpHrQ8BFBPC17ZdA60OS2ndf1bjZ0IDv8jGT0t9DmUUxv5M73ridRJfzjuzo2nS-qkbJc_n5D0gUEu6Nooiehx1CBIE5Y-_H13F6KNaJhVLOZ6ufQPQePbTgTO0xLNklJ7A7f95dKDeKlOmqHsX4GmzXYhxyt7FbEhN_rMwRr0Eshgm2jG7__8pFDd6p3a0sc_qD]--></g></svg>