<svg xmlns="http://www.w3.org/2000/svg" xmlns:xlink="http://www.w3.org/1999/xlink" contentStyleType="text/css" data-diagram-type="SEQUENCE" height="1466px" preserveAspectRatio="none" style="width:1736px;height:1466px;background:#1B1B1B;" version="1.1" viewBox="0 0 1736 1466" width="1736px" zoomAndPan="magnify"><defs/><g><rect fill="#1B1B1B" height="1466" style="stroke:none;stroke-width:1;" width="1736" x="0" y="0"/><g><title>PlayerAndSpectators</title><rect fill="#FFFFFF" height="1285.2813" style="stroke:#E7E7E7;stroke-width:1;" width="10" x="111.0796" y="91.2969"/></g><g><title>Player</title><rect fill="#FFFFFF" height="1285.2813" style="stroke:#E7E7E7;stroke-width:1;" width="10" x="221.9419" y="91.2969"/></g><g><title>HttpRestController</title><rect fill="#FFFFFF" height="852.5547" style="stroke:#E7E7E7;stroke-width:1;" width="10" x="458.2248" y="155.5625"/></g><g><title>HttpRestController</title><rect fill="#FFFFFF" height="262.1953" style="stroke:#E7E7E7;stroke-width:1;" width="10" x="458.2248" y="1080.3828"/></g><g><title>WebSocketHandler</title><rect fill="#FFFFFF" height="29.1328" style="stroke:#E7E7E7;stroke-width:1;" width="10" x="614.4831" y="813.4844"/></g><g><title>GameService</title><rect fill="#FFFFFF" height="794.2891" style="stroke:#E7E7E7;stroke-width:1;" width="10" x="752.1066" y="184.6953"/></g><g><title>GameService</title><rect fill="#FFFFFF" height="203.9297" style="stroke:#E7E7E7;stroke-width:1;" width="10" x="752.1066" y="1109.5156"/></g><g><title>GameThreadManager</title><rect fill="#FFFFFF" height="39.6992" style="stroke:#E7E7E7;stroke-width:1;" width="10" x="1116.1996" y="384.0586"/></g><g><title>GameThreadManager</title><rect fill="#FFFFFF" height="82.3984" style="stroke:#E7E7E7;stroke-width:1;" width="10" x="1116.1996" y="543.2891"/></g><g><title>GameThread</title><rect fill="#FFFFFF" height="305.3281" style="stroke:#E7E7E7;stroke-width:1;" width="10" x="1261.8212" y="572.4219"/></g><g><title>PlayerManagement</title><rect fill="#FFFFFF" height="87.3984" style="stroke:#E7E7E7;stroke-width:1;" width="10" x="1498.7877" y="256.9609"/></g><g><title>PlayerManagement</title><rect fill="#FFFFFF" height="87.3984" style="stroke:#E7E7E7;stroke-width:1;" width="10" x="1498.7877" y="696.9531"/></g><g><title>PlayerManagement</title><rect fill="#FFFFFF" height="87.3984" style="stroke:#E7E7E7;stroke-width:1;" width="10" x="1498.7877" y="1138.6484"/></g><g><title>RedisAccess</title><rect fill="#FFFFFF" height="29.1328" style="stroke:#E7E7E7;stroke-width:1;" width="10" x="1633.9742" y="286.0938"/></g><g><title>RedisAccess</title><rect fill="#FFFFFF" height="29.1328" style="stroke:#E7E7E7;stroke-width:1;" width="10" x="1633.9742" y="726.0859"/></g><g><title>RedisAccess</title><rect fill="#FFFFFF" height="29.1328" style="stroke:#E7E7E7;stroke-width:1;" width="10" x="1633.9742" y="1167.7813"/></g><g><title>RedisAccess</title><rect fill="#FFFFFF" height="29.1328" style="stroke:#E7E7E7;stroke-width:1;" width="10" x="1633.9742" y="1255.1797"/></g><rect fill="none" height="512.0938" style="stroke:#FFFFFF;stroke-width:1.5;" width="1709.2662" x="10" y="438.7578"/><rect fill="none" height="438.8281" style="stroke:#FFFFFF;stroke-width:1.5;" width="1689.2662" x="20" y="505.0234"/><rect fill="none" height="349.4297" style="stroke:#FFFFFF;stroke-width:1.5;" width="1669.2662" x="30" y="587.4219"/><g><title>PlayerAndSpectators</title><rect fill="#000000" fill-opacity="0.00000" height="1304.2813" width="8" x="112.0796" y="81.2969"/><line style="stroke:#E7E7E7;stroke-width:0.5;stroke-dasharray:5,5;" x1="116" x2="116" y1="81.2969" y2="1385.5781"/></g><g><title>Player</title><rect fill="#000000" fill-opacity="0.00000" height="1304.2813" width="8" x="222.9419" y="81.2969"/><line style="stroke:#E7E7E7;stroke-width:0.5;stroke-dasharray:5,5;" x1="226.1592" x2="226.1592" y1="81.2969" y2="1385.5781"/></g><g><title>HttpRestController</title><rect fill="#000000" fill-opacity="0.00000" height="1304.2813" width="8" x="459.2248" y="81.2969"/><line style="stroke:#E7E7E7;stroke-width:0.5;stroke-dasharray:5,5;" x1="462.8801" x2="462.8801" y1="81.2969" y2="1385.5781"/></g><g><title>WebSocketHandler</title><rect fill="#000000" fill-opacity="0.00000" height="1304.2813" width="8" x="615.4831" y="81.2969"/><line style="stroke:#E7E7E7;stroke-width:0.5;stroke-dasharray:5,5;" x1="618.5695" x2="618.5695" y1="81.2969" y2="1385.5781"/></g><g><title>GameService</title><rect fill="#000000" fill-opacity="0.00000" height="1304.2813" width="8" x="753.1066" y="81.2969"/><line style="stroke:#E7E7E7;stroke-width:0.5;stroke-dasharray:5,5;" x1="756.3967" x2="756.3967" y1="81.2969" y2="1385.5781"/></g><g><title>GameThreadManager</title><rect fill="#000000" fill-opacity="0.00000" height="1304.2813" width="8" x="1117.1996" y="81.2969"/><line style="stroke:#E7E7E7;stroke-width:0.5;stroke-dasharray:5,5;" x1="1121.0473" x2="1121.0473" y1="81.2969" y2="1385.5781"/></g><g><title>GameThread</title><rect fill="#000000" fill-opacity="0.00000" height="1304.2813" width="8" x="1262.8212" y="81.2969"/><line style="stroke:#E7E7E7;stroke-width:0.5;stroke-dasharray:5,5;" x1="1266.352" x2="1266.352" y1="81.2969" y2="1385.5781"/></g><g><title>PlayerManagement</title><rect fill="#000000" fill-opacity="0.00000" height="1304.2813" width="8" x="1499.7877" y="81.2969"/><line style="stroke:#E7E7E7;stroke-width:0.5;stroke-dasharray:5,5;" x1="1502.8932" x2="1502.8932" y1="81.2969" y2="1385.5781"/></g><g><title>RedisAccess</title><rect fill="#000000" fill-opacity="0.00000" height="1304.2813" width="8" x="1634.9742" y="81.2969"/><line style="stroke:#E7E7E7;stroke-width:0.5;stroke-dasharray:5,5;" x1="1638.6823" x2="1638.6823" y1="81.2969" y2="1385.5781"/></g><g class="participant participant-head" data-participant="PlayerAndSpectators"><text fill="#FFFFFF" font-family="sans-serif" font-size="14" lengthAdjust="spacing" textLength="146.1592" x="40" y="77.9951">PlayerAndSpectators</text><ellipse cx="116.0796" cy="13.5" fill="#222222" rx="8" ry="8" style="stroke:#E7E7E7;stroke-width:0.5;"/><path d="M116.0796,21.5 L116.0796,48.5 M103.0796,29.5 L129.0796,29.5 M116.0796,48.5 L103.0796,63.5 M116.0796,48.5 L129.0796,63.5" fill="none" style="stroke:#E7E7E7;stroke-width:0.5;"/></g><g class="participant participant-tail" data-participant="PlayerAndSpectators"><text fill="#FFFFFF" font-family="sans-serif" font-size="14" lengthAdjust="spacing" textLength="146.1592" x="40" y="1397.5732">PlayerAndSpectators</text><ellipse cx="116.0796" cy="1409.375" fill="#222222" rx="8" ry="8" style="stroke:#E7E7E7;stroke-width:0.5;"/><path d="M116.0796,1417.375 L116.0796,1444.375 M103.0796,1425.375 L129.0796,1425.375 M116.0796,1444.375 L103.0796,1459.375 M116.0796,1444.375 L129.0796,1459.375" fill="none" style="stroke:#E7E7E7;stroke-width:0.5;"/></g><g class="participant participant-head" data-participant="Player"><text fill="#FFFFFF" font-family="sans-serif" font-size="14" lengthAdjust="spacing" textLength="43.5654" x="202.1592" y="77.9951">Player</text><ellipse cx="226.9419" cy="13.5" fill="#222222" rx="8" ry="8" style="stroke:#E7E7E7;stroke-width:0.5;"/><path d="M226.9419,21.5 L226.9419,48.5 M213.9419,29.5 L239.9419,29.5 M226.9419,48.5 L213.9419,63.5 M226.9419,48.5 L239.9419,63.5" fill="none" style="stroke:#E7E7E7;stroke-width:0.5;"/></g><g class="participant participant-tail" data-participant="Player"><text fill="#FFFFFF" font-family="sans-serif" font-size="14" lengthAdjust="spacing" textLength="43.5654" x="202.1592" y="1397.5732">Player</text><ellipse cx="226.9419" cy="1409.375" fill="#222222" rx="8" ry="8" style="stroke:#E7E7E7;stroke-width:0.5;"/><path d="M226.9419,1417.375 L226.9419,1444.375 M213.9419,1425.375 L239.9419,1425.375 M226.9419,1444.375 L213.9419,1459.375 M226.9419,1444.375 L239.9419,1459.375" fill="none" style="stroke:#E7E7E7;stroke-width:0.5;"/></g><g class="participant participant-head" data-participant="HttpRestController"><rect fill="#222222" height="30.2969" rx="2.5" ry="2.5" style="stroke:#E7E7E7;stroke-width:0.5;" width="144.6895" x="390.8801" y="50"/><text fill="#FFFFFF" font-family="sans-serif" font-size="14" lengthAdjust="spacing" textLength="130.6895" x="397.8801" y="69.9951">HttpRestController</text></g><g class="participant participant-tail" data-participant="HttpRestController"><rect fill="#222222" height="30.2969" rx="2.5" ry="2.5" style="stroke:#E7E7E7;stroke-width:0.5;" width="144.6895" x="390.8801" y="1384.5781"/><text fill="#FFFFFF" font-family="sans-serif" font-size="14" lengthAdjust="spacing" textLength="130.6895" x="397.8801" y="1404.5732">HttpRestController</text></g><g class="participant participant-head" data-participant="WebSocketHandler"><rect fill="#222222" height="30.2969" rx="2.5" ry="2.5" style="stroke:#E7E7E7;stroke-width:0.5;" width="147.8271" x="545.5695" y="50"/><text fill="#FFFFFF" font-family="sans-serif" font-size="14" lengthAdjust="spacing" textLength="133.8271" x="552.5695" y="69.9951">WebSocketHandler</text></g><g class="participant participant-tail" data-participant="WebSocketHandler"><rect fill="#222222" height="30.2969" rx="2.5" ry="2.5" style="stroke:#E7E7E7;stroke-width:0.5;" width="147.8271" x="545.5695" y="1384.5781"/><text fill="#FFFFFF" font-family="sans-serif" font-size="14" lengthAdjust="spacing" textLength="133.8271" x="552.5695" y="1404.5732">WebSocketHandler</text></g><g class="participant participant-head" data-participant="GameService"><rect fill="#222222" height="30.2969" rx="2.5" ry="2.5" style="stroke:#E7E7E7;stroke-width:0.5;" width="107.4199" x="703.3967" y="50"/><text fill="#FFFFFF" font-family="sans-serif" font-size="14" lengthAdjust="spacing" textLength="93.4199" x="710.3967" y="69.9951">GameService</text></g><g class="participant participant-tail" data-participant="GameService"><rect fill="#222222" height="30.2969" rx="2.5" ry="2.5" style="stroke:#E7E7E7;stroke-width:0.5;" width="107.4199" x="703.3967" y="1384.5781"/><text fill="#FFFFFF" font-family="sans-serif" font-size="14" lengthAdjust="spacing" textLength="93.4199" x="710.3967" y="1404.5732">GameService</text></g><g class="participant participant-head" data-participant="GameThreadManager"><rect fill="#222222" height="30.2969" rx="2.5" ry="2.5" style="stroke:#E7E7E7;stroke-width:0.5;" width="166.3047" x="1038.0473" y="50"/><text fill="#FFFFFF" font-family="sans-serif" font-size="14" lengthAdjust="spacing" textLength="152.3047" x="1045.0473" y="69.9951">GameThreadManager</text></g><g class="participant participant-tail" data-participant="GameThreadManager"><rect fill="#222222" height="30.2969" rx="2.5" ry="2.5" style="stroke:#E7E7E7;stroke-width:0.5;" width="166.3047" x="1038.0473" y="1384.5781"/><text fill="#FFFFFF" font-family="sans-serif" font-size="14" lengthAdjust="spacing" textLength="152.3047" x="1045.0473" y="1404.5732">GameThreadManager</text></g><g class="participant participant-head" data-participant="GameThread"><rect fill="#222222" height="30.2969" rx="2.5" ry="2.5" style="stroke:#E7E7E7;stroke-width:0.5;" width="104.9385" x="1214.352" y="50"/><text fill="#FFFFFF" font-family="sans-serif" font-size="14" lengthAdjust="spacing" textLength="90.9385" x="1221.352" y="69.9951">GameThread</text></g><g class="participant participant-tail" data-participant="GameThread"><rect fill="#222222" height="30.2969" rx="2.5" ry="2.5" style="stroke:#E7E7E7;stroke-width:0.5;" width="104.9385" x="1214.352" y="1384.5781"/><text fill="#FFFFFF" font-family="sans-serif" font-size="14" lengthAdjust="spacing" textLength="90.9385" x="1221.352" y="1404.5732">GameThread</text></g><g class="participant participant-head" data-participant="PlayerManagement"><rect fill="#222222" height="30.2969" rx="2.5" ry="2.5" style="stroke:#E7E7E7;stroke-width:0.5;" width="149.7891" x="1428.8932" y="50"/><text fill="#FFFFFF" font-family="sans-serif" font-size="14" lengthAdjust="spacing" textLength="135.7891" x="1435.8932" y="69.9951">PlayerManagement</text></g><g class="participant participant-tail" data-participant="PlayerManagement"><rect fill="#222222" height="30.2969" rx="2.5" ry="2.5" style="stroke:#E7E7E7;stroke-width:0.5;" width="149.7891" x="1428.8932" y="1384.5781"/><text fill="#FFFFFF" font-family="sans-serif" font-size="14" lengthAdjust="spacing" textLength="135.7891" x="1435.8932" y="1404.5732">PlayerManagement</text></g><g class="participant participant-head" data-participant="RedisAccess"><rect fill="#222222" height="30.2969" rx="2.5" ry="2.5" style="stroke:#E7E7E7;stroke-width:0.5;" width="100.584" x="1588.6823" y="50"/><text fill="#FFFFFF" font-family="sans-serif" font-size="14" lengthAdjust="spacing" textLength="86.584" x="1595.6823" y="69.9951">RedisAccess</text></g><g class="participant participant-tail" data-participant="RedisAccess"><rect fill="#222222" height="30.2969" rx="2.5" ry="2.5" style="stroke:#E7E7E7;stroke-width:0.5;" width="100.584" x="1588.6823" y="1384.5781"/><text fill="#FFFFFF" font-family="sans-serif" font-size="14" lengthAdjust="spacing" textLength="86.584" x="1595.6823" y="1404.5732">RedisAccess</text></g><g><title>PlayerAndSpectators</title><rect fill="#FFFFFF" height="1285.2813" style="stroke:#E7E7E7;stroke-width:1;" width="10" x="111.0796" y="91.2969"/></g><g><title>Player</title><rect fill="#FFFFFF" height="1285.2813" style="stroke:#E7E7E7;stroke-width:1;" width="10" x="221.9419" y="91.2969"/></g><g><title>HttpRestController</title><rect fill="#FFFFFF" height="852.5547" style="stroke:#E7E7E7;stroke-width:1;" width="10" x="458.2248" y="155.5625"/></g><g><title>HttpRestController</title><rect fill="#FFFFFF" height="262.1953" style="stroke:#E7E7E7;stroke-width:1;" width="10" x="458.2248" y="1080.3828"/></g><g><title>WebSocketHandler</title><rect fill="#FFFFFF" height="29.1328" style="stroke:#E7E7E7;stroke-width:1;" width="10" x="614.4831" y="813.4844"/></g><g><title>GameService</title><rect fill="#FFFFFF" height="794.2891" style="stroke:#E7E7E7;stroke-width:1;" width="10" x="752.1066" y="184.6953"/></g><g><title>GameService</title><rect fill="#FFFFFF" height="203.9297" style="stroke:#E7E7E7;stroke-width:1;" width="10" x="752.1066" y="1109.5156"/></g><g><title>GameThreadManager</title><rect fill="#FFFFFF" height="39.6992" style="stroke:#E7E7E7;stroke-width:1;" width="10" x="1116.1996" y="384.0586"/></g><g><title>GameThreadManager</title><rect fill="#FFFFFF" height="82.3984" style="stroke:#E7E7E7;stroke-width:1;" width="10" x="1116.1996" y="543.2891"/></g><g><title>GameThread</title><rect fill="#FFFFFF" height="305.3281" style="stroke:#E7E7E7;stroke-width:1;" width="10" x="1261.8212" y="572.4219"/></g><g><title>PlayerManagement</title><rect fill="#FFFFFF" height="87.3984" style="stroke:#E7E7E7;stroke-width:1;" width="10" x="1498.7877" y="256.9609"/></g><g><title>PlayerManagement</title><rect fill="#FFFFFF" height="87.3984" style="stroke:#E7E7E7;stroke-width:1;" width="10" x="1498.7877" y="696.9531"/></g><g><title>PlayerManagement</title><rect fill="#FFFFFF" height="87.3984" style="stroke:#E7E7E7;stroke-width:1;" width="10" x="1498.7877" y="1138.6484"/></g><g><title>RedisAccess</title><rect fill="#FFFFFF" height="29.1328" style="stroke:#E7E7E7;stroke-width:1;" width="10" x="1633.9742" y="286.0938"/></g><g><title>RedisAccess</title><rect fill="#FFFFFF" height="29.1328" style="stroke:#E7E7E7;stroke-width:1;" width="10" x="1633.9742" y="726.0859"/></g><g><title>RedisAccess</title><rect fill="#FFFFFF" height="29.1328" style="stroke:#E7E7E7;stroke-width:1;" width="10" x="1633.9742" y="1167.7813"/></g><g><title>RedisAccess</title><rect fill="#FFFFFF" height="29.1328" style="stroke:#E7E7E7;stroke-width:1;" width="10" x="1633.9742" y="1255.1797"/></g><rect fill="#111111" height="3" style="stroke:#111111;stroke-width:1;" width="1729.2662" x="0" y="111.8633"/><line style="stroke:#FFFFFF;stroke-width:1;" x1="0" x2="1729.2662" y1="111.8633" y2="111.8633"/><line style="stroke:#FFFFFF;stroke-width:1;" x1="0" x2="1729.2662" y1="114.8633" y2="114.8633"/><rect fill="#111111" height="23.1328" style="stroke:#FFFFFF;stroke-width:2;" width="135.526" x="796.8701" y="101.2969"/><text fill="#FFFFFF" font-family="sans-serif" font-size="13" font-weight="bold" lengthAdjust="spacing" textLength="117.0001" x="802.8701" y="117.3638">&#30332;&#20986;&#36820;&#22238;&#24453;&#27231;&#23460;&#35531;&#27714;</text><g class="message" data-participant-1="Player" data-participant-2="HttpRestController"><polygon fill="#E7E7E7" points="446.2248,151.5625,456.2248,155.5625,446.2248,159.5625,450.2248,155.5625" style="stroke:#E7E7E7;stroke-width:1;"/><line style="stroke:#E7E7E7;stroke-width:1;" x1="231.9419" x2="452.2248" y1="155.5625" y2="155.5625"/><text fill="#FFFFFF" font-family="sans-serif" font-size="13" lengthAdjust="spacing" textLength="207.2829" x="238.9419" y="150.4966">&#30332;&#20986;&#36820;&#22238;&#24453;&#27231;&#23460;&#35531;&#27714; (&#21547;&#29609;&#23478; UUID)</text></g><g class="message" data-participant-1="HttpRestController" data-participant-2="GameService"><polygon fill="#E7E7E7" points="740.1066,180.6953,750.1066,184.6953,740.1066,188.6953,744.1066,184.6953" style="stroke:#E7E7E7;stroke-width:1;"/><line style="stroke:#E7E7E7;stroke-width:1;" x1="468.2248" x2="746.1066" y1="184.6953" y2="184.6953"/><text fill="#FFFFFF" font-family="sans-serif" font-size="13" lengthAdjust="spacing" textLength="104.0001" x="475.2248" y="179.6294">&#35519;&#29992;&#12300;&#25237;&#38477;&#12301;&#20989;&#24335;</text></g><rect fill="#111111" height="3" style="stroke:#111111;stroke-width:1;" width="1729.2662" x="0" y="213.2617"/><line style="stroke:#FFFFFF;stroke-width:1;" x1="0" x2="1729.2662" y1="213.2617" y2="213.2617"/><line style="stroke:#FFFFFF;stroke-width:1;" x1="0" x2="1729.2662" y1="216.2617" y2="216.2617"/><rect fill="#111111" height="23.1328" style="stroke:#FFFFFF;stroke-width:2;" width="135.526" x="796.8701" y="202.6953"/><text fill="#FFFFFF" font-family="sans-serif" font-size="13" font-weight="bold" lengthAdjust="spacing" textLength="117.0001" x="802.8701" y="218.7622">&#21028;&#26039;&#23565;&#23616;&#26159;&#21542;&#36996;&#23384;&#22312;</text><g class="message" data-participant-1="GameService" data-participant-2="PlayerManagement"><polygon fill="#E7E7E7" points="1486.7877,252.9609,1496.7877,256.9609,1486.7877,260.9609,1490.7877,256.9609" style="stroke:#E7E7E7;stroke-width:1;"/><line style="stroke:#E7E7E7;stroke-width:1;" x1="762.1066" x2="1492.7877" y1="256.9609" y2="256.9609"/><text fill="#FFFFFF" font-family="sans-serif" font-size="13" lengthAdjust="spacing" textLength="197.1393" x="769.1066" y="251.895">&#26681;&#25818;&#29609;&#23478; UUID &#29554;&#21462;&#12300;&#29609;&#23478;&#25976;&#25818;&#12301;</text></g><g class="message" data-participant-1="PlayerManagement" data-participant-2="RedisAccess"><polygon fill="#E7E7E7" points="1621.9742,282.0938,1631.9742,286.0938,1621.9742,290.0938,1625.9742,286.0938" style="stroke:#E7E7E7;stroke-width:1;"/><line style="stroke:#E7E7E7;stroke-width:1;" x1="1508.7877" x2="1627.9742" y1="286.0938" y2="286.0938"/><text fill="#FFFFFF" font-family="sans-serif" font-size="13" lengthAdjust="spacing" textLength="78.0001" x="1515.7877" y="281.0278">&#29554;&#21462;&#29609;&#23478;&#25976;&#25818;</text></g><g class="message" data-participant-1="RedisAccess" data-participant-2="PlayerManagement"><polygon fill="#E7E7E7" points="1519.7877,311.2266,1509.7877,315.2266,1519.7877,319.2266,1515.7877,315.2266" style="stroke:#E7E7E7;stroke-width:1;"/><line style="stroke:#E7E7E7;stroke-width:1;stroke-dasharray:2,2;" x1="1513.7877" x2="1637.9742" y1="315.2266" y2="315.2266"/><text fill="#FFFFFF" font-family="sans-serif" font-size="13" lengthAdjust="spacing" textLength="78.0001" x="1525.7877" y="310.1606">&#21462;&#24471;&#29609;&#23478;&#25976;&#25818;</text></g><g class="message" data-participant-1="PlayerManagement" data-participant-2="GameService"><polygon fill="#E7E7E7" points="773.1066,340.3594,763.1066,344.3594,773.1066,348.3594,769.1066,344.3594" style="stroke:#E7E7E7;stroke-width:1;"/><line style="stroke:#E7E7E7;stroke-width:1;stroke-dasharray:2,2;" x1="767.1066" x2="1502.7877" y1="344.3594" y2="344.3594"/><text fill="#FFFFFF" font-family="sans-serif" font-size="13" lengthAdjust="spacing" textLength="78.0001" x="779.1066" y="339.2935">&#36820;&#22238;&#29609;&#23478;&#25976;&#25818;</text></g><g class="message" data-participant-1="GameService" data-participant-2="GameThreadManager"><polygon fill="#E7E7E7" points="1104.1996,380.0586,1114.1996,384.0586,1104.1996,388.0586,1108.1996,384.0586" style="stroke:#E7E7E7;stroke-width:1;"/><line style="stroke:#E7E7E7;stroke-width:1;" x1="762.1066" x2="1110.1996" y1="384.0586" y2="384.0586"/><text fill="#FFFFFF" font-family="sans-serif" font-size="13" lengthAdjust="spacing" textLength="335.093" x="769.1066" y="378.9927">&#21028;&#26039;&#35442;&#29609;&#23478;&#25976;&#25818;&#20013;&#30340;&#23565;&#23616;&#26159;&#21542;&#36996;&#23384;&#22312; (GameManager &#20013;)</text></g><path d="M1131,357.3594 L1131,397.3594 L1412,397.3594 L1412,367.3594 L1402,357.3594 L1131,357.3594" fill="#714137" style="stroke:#E7E7E7;stroke-width:0.5;"/><path d="M1402,357.3594 L1402,367.3594 L1412,367.3594 L1402,357.3594" fill="#714137" style="stroke:#E7E7E7;stroke-width:0.5;"/><text fill="#FFFFFF" font-family="sans-serif" font-size="13" lengthAdjust="spacing" textLength="143.0002" x="1137" y="374.4263">&#23384;&#22312;&#65306;&#34920;&#31034;&#23565;&#23616;&#26410;&#32080;&#26463;&#12290;</text><text fill="#FFFFFF" font-family="sans-serif" font-size="13" lengthAdjust="spacing" textLength="260.0003" x="1137" y="389.5591">&#19981;&#23384;&#22312;&#65306;&#34920;&#31034;&#23565;&#23616;&#24050;&#32080;&#26463;&#65292;&#35442;&#23565;&#23616;&#24050;&#34987;&#28165;&#38500;&#12290;</text><g class="message" data-participant-1="GameThreadManager" data-participant-2="GameService"><polygon fill="#E7E7E7" points="773.1066,419.7578,763.1066,423.7578,773.1066,427.7578,769.1066,423.7578" style="stroke:#E7E7E7;stroke-width:1;"/><line style="stroke:#E7E7E7;stroke-width:1;stroke-dasharray:2,2;" x1="767.1066" x2="1120.1996" y1="423.7578" y2="423.7578"/><text fill="#FFFFFF" font-family="sans-serif" font-size="13" lengthAdjust="spacing" textLength="52.0001" x="779.1066" y="418.6919">&#36820;&#22238;&#32080;&#26524;</text></g><path d="M10,438.7578 L79.4512,438.7578 L79.4512,445.8906 L69.4512,455.8906 L10,455.8906 L10,438.7578" fill="#555555" style="stroke:#FFFFFF;stroke-width:1.5;"/><rect fill="none" height="512.0938" style="stroke:#FFFFFF;stroke-width:1.5;" width="1709.2662" x="10" y="438.7578"/><text fill="#FFFFFF" font-family="sans-serif" font-size="13" font-weight="bold" lengthAdjust="spacing" textLength="24.4512" x="25" y="451.8247">opt</text><text fill="#FFFFFF" font-family="sans-serif" font-size="11" font-weight="bold" lengthAdjust="spacing" textLength="54.0544" x="94.4512" y="450.9683">[&#23565;&#23616;&#23384;&#22312;]</text><g class="message" data-participant-1="GameService" data-participant-2="GameService"><line style="stroke:#E7E7E7;stroke-width:1;" x1="762.1066" x2="804.1066" y1="477.0234" y2="477.0234"/><line style="stroke:#E7E7E7;stroke-width:1;" x1="804.1066" x2="804.1066" y1="477.0234" y2="490.0234"/><line style="stroke:#E7E7E7;stroke-width:1;" x1="763.1066" x2="804.1066" y1="490.0234" y2="490.0234"/><polygon fill="#E7E7E7" points="773.1066,486.0234,763.1066,490.0234,773.1066,494.0234,769.1066,490.0234" style="stroke:#E7E7E7;stroke-width:1;"/><text fill="#FFFFFF" font-family="sans-serif" font-size="13" lengthAdjust="spacing" textLength="286.0003" x="769.1066" y="471.9575">&#21028;&#26039;&#35442;&#29609;&#23478;&#26159;&#21542;&#28858;&#35442;&#23565;&#23616;&#20013;&#30340;&#26827;&#25163;&#65292;&#32780;&#38750;&#35264;&#25136;&#32773;&#12290;</text></g><path d="M1077.0003,464.3906 L1077.0003,489.3906 L1449.0003,489.3906 L1449.0003,474.3906 L1439.0003,464.3906 L1077.0003,464.3906" fill="#714137" style="stroke:#E7E7E7;stroke-width:0.5;"/><path d="M1439.0003,464.3906 L1439.0003,474.3906 L1449.0003,474.3906 L1439.0003,464.3906" fill="#714137" style="stroke:#E7E7E7;stroke-width:0.5;"/><text fill="#FFFFFF" font-family="sans-serif" font-size="13" lengthAdjust="spacing" textLength="351.0003" x="1083.0003" y="481.4575">&#36991;&#20813;&#22240;&#20854;&#23427;&#35264;&#25136;&#32773;&#22312;&#23565;&#23616;&#26410;&#32080;&#26463;&#21069;&#36820;&#22238;&#24453;&#27231;&#23460;&#36896;&#25104;&#23565;&#23616;&#20013;&#26039;&#12290;</text><path d="M20,505.0234 L89.4512,505.0234 L89.4512,512.1563 L79.4512,522.1563 L20,522.1563 L20,505.0234" fill="#555555" style="stroke:#FFFFFF;stroke-width:1.5;"/><rect fill="none" height="438.8281" style="stroke:#FFFFFF;stroke-width:1.5;" width="1689.2662" x="20" y="505.0234"/><text fill="#FFFFFF" font-family="sans-serif" font-size="13" font-weight="bold" lengthAdjust="spacing" textLength="24.4512" x="35" y="518.0903">opt</text><text fill="#FFFFFF" font-family="sans-serif" font-size="11" font-weight="bold" lengthAdjust="spacing" textLength="98.0541" x="104.4512" y="517.2339">[&#26159;&#35442;&#23565;&#23616;&#20013;&#30340;&#26827;&#25163;]</text><g class="message" data-participant-1="GameService" data-participant-2="GameThreadManager"><polygon fill="#E7E7E7" points="1104.1996,539.2891,1114.1996,543.2891,1104.1996,547.2891,1108.1996,543.2891" style="stroke:#E7E7E7;stroke-width:1;"/><line style="stroke:#E7E7E7;stroke-width:1;" x1="762.1066" x2="1110.1996" y1="543.2891" y2="543.2891"/><text fill="#FFFFFF" font-family="sans-serif" font-size="13" lengthAdjust="spacing" textLength="143.0002" x="769.1066" y="538.2231">&#20013;&#26039;&#23565;&#23616;&#20006;&#21028;&#35442;&#29609;&#23478;&#28858;&#36664;</text></g><g class="message" data-participant-1="GameThreadManager" data-participant-2="GameThread"><line style="stroke:#E7E7E7;stroke-width:1;" x1="1259.8212" x2="1249.8212" y1="572.4219" y2="568.4219"/><line style="stroke:#E7E7E7;stroke-width:1;" x1="1259.8212" x2="1249.8212" y1="572.4219" y2="576.4219"/><line style="stroke:#E7E7E7;stroke-width:1;" x1="1126.1996" x2="1260.8212" y1="572.4219" y2="572.4219"/><text fill="#FFFFFF" font-family="sans-serif" font-size="13" lengthAdjust="spacing" textLength="104.0001" x="1133.1996" y="567.356">&#30001;&#22806;&#37096;&#20013;&#26039;&#35442;&#23565;&#23616;</text></g><path d="M30,587.4219 L99.4893,587.4219 L99.4893,594.5547 L89.4893,604.5547 L30,604.5547 L30,587.4219" fill="#555555" style="stroke:#FFFFFF;stroke-width:1.5;"/><rect fill="none" height="349.4297" style="stroke:#FFFFFF;stroke-width:1.5;" width="1669.2662" x="30" y="587.4219"/><text fill="#FFFFFF" font-family="sans-serif" font-size="13" font-weight="bold" lengthAdjust="spacing" textLength="24.4893" x="45" y="600.4888">par</text><g class="message" data-participant-1="GameThreadManager" data-participant-2="GameService"><polygon fill="#E7E7E7" points="773.1066,621.6875,763.1066,625.6875,773.1066,629.6875,769.1066,625.6875" style="stroke:#E7E7E7;stroke-width:1;"/><line style="stroke:#E7E7E7;stroke-width:1;stroke-dasharray:2,2;" x1="767.1066" x2="1120.1996" y1="625.6875" y2="625.6875"/><text fill="#FFFFFF" font-family="sans-serif" font-size="13" lengthAdjust="spacing" textLength="65.0001" x="779.1066" y="620.6216">&#23565;&#23616;&#24050;&#20013;&#26039;</text></g><g class="message" data-participant-1="GameThread" data-participant-2="GameThread"><line style="stroke:#E7E7E7;stroke-width:1;" x1="1271.8212" x2="1313.8212" y1="654.8203" y2="654.8203"/><line style="stroke:#E7E7E7;stroke-width:1;" x1="1313.8212" x2="1313.8212" y1="654.8203" y2="667.8203"/><line style="stroke:#E7E7E7;stroke-width:1;" x1="1272.8212" x2="1313.8212" y1="667.8203" y2="667.8203"/><polygon fill="#E7E7E7" points="1282.8212,663.8203,1272.8212,667.8203,1282.8212,671.8203,1278.8212,667.8203" style="stroke:#E7E7E7;stroke-width:1;"/><text fill="#FFFFFF" font-family="sans-serif" font-size="13" lengthAdjust="spacing" textLength="202.9665" x="1278.8212" y="649.7544">&#26356;&#26032; Game &#29289;&#20214;&#20013;&#35442;&#29609;&#23478;&#25237;&#38477;&#21028;&#36664;</text></g><g class="message" data-participant-1="GameThread" data-participant-2="PlayerManagement"><polygon fill="#E7E7E7" points="1486.7877,692.9531,1496.7877,696.9531,1486.7877,700.9531,1490.7877,696.9531" style="stroke:#E7E7E7;stroke-width:1;"/><line style="stroke:#E7E7E7;stroke-width:1;" x1="1271.8212" x2="1492.7877" y1="696.9531" y2="696.9531"/><text fill="#FFFFFF" font-family="sans-serif" font-size="13" lengthAdjust="spacing" textLength="182.0002" x="1278.8212" y="691.8872">&#29554;&#21462;&#25152;&#26377;&#34389;&#26044;&#35442;&#23565;&#23616;&#30340;&#29609;&#23478;&#21015;&#34920;</text></g><g class="message" data-participant-1="PlayerManagement" data-participant-2="RedisAccess"><polygon fill="#E7E7E7" points="1621.9742,722.0859,1631.9742,726.0859,1621.9742,730.0859,1625.9742,726.0859" style="stroke:#E7E7E7;stroke-width:1;"/><line style="stroke:#E7E7E7;stroke-width:1;" x1="1508.7877" x2="1627.9742" y1="726.0859" y2="726.0859"/><text fill="#FFFFFF" font-family="sans-serif" font-size="13" lengthAdjust="spacing" textLength="78.0001" x="1515.7877" y="721.02">&#29554;&#21462;&#29609;&#23478;&#21015;&#34920;</text></g><g class="message" data-participant-1="RedisAccess" data-participant-2="PlayerManagement"><polygon fill="#E7E7E7" points="1519.7877,751.2188,1509.7877,755.2188,1519.7877,759.2188,1515.7877,755.2188" style="stroke:#E7E7E7;stroke-width:1;"/><line style="stroke:#E7E7E7;stroke-width:1;stroke-dasharray:2,2;" x1="1513.7877" x2="1637.9742" y1="755.2188" y2="755.2188"/><text fill="#FFFFFF" font-family="sans-serif" font-size="13" lengthAdjust="spacing" textLength="78.0001" x="1525.7877" y="750.1528">&#21462;&#24471;&#29609;&#23478;&#21015;&#34920;</text></g><g class="message" data-participant-1="PlayerManagement" data-participant-2="GameThread"><polygon fill="#E7E7E7" points="1282.8212,780.3516,1272.8212,784.3516,1282.8212,788.3516,1278.8212,784.3516" style="stroke:#E7E7E7;stroke-width:1;"/><line style="stroke:#E7E7E7;stroke-width:1;stroke-dasharray:2,2;" x1="1276.8212" x2="1502.7877" y1="784.3516" y2="784.3516"/><text fill="#FFFFFF" font-family="sans-serif" font-size="13" lengthAdjust="spacing" textLength="78.0001" x="1288.8212" y="779.2856">&#36820;&#22238;&#29609;&#23478;&#21015;&#34920;</text></g><g class="message" data-participant-1="GameThread" data-participant-2="WebSocketHandler"><line style="stroke:#E7E7E7;stroke-width:1;" x1="625.4831" x2="635.4831" y1="813.4844" y2="809.4844"/><line style="stroke:#E7E7E7;stroke-width:1;" x1="625.4831" x2="635.4831" y1="813.4844" y2="817.4844"/><line style="stroke:#E7E7E7;stroke-width:1;" x1="624.4831" x2="1260.8212" y1="813.4844" y2="813.4844"/><text fill="#FFFFFF" font-family="sans-serif" font-size="13" lengthAdjust="spacing" textLength="273.0003" x="641.4831" y="808.4185">&#24291;&#25773;&#36890;&#30693;&#26032;&#30340;&#12300;&#23565;&#23616;&#12301;&#25976;&#25818;&#32102;&#23565;&#23616;&#20013;&#30340;&#20854;&#20182;&#29609;&#23478;</text></g><g class="message" data-participant-1="WebSocketHandler" data-participant-2="PlayerAndSpectators"><line style="stroke:#E7E7E7;stroke-width:1;" x1="122.0796" x2="132.0796" y1="842.6172" y2="838.6172"/><line style="stroke:#E7E7E7;stroke-width:1;" x1="122.0796" x2="132.0796" y1="842.6172" y2="846.6172"/><line style="stroke:#E7E7E7;stroke-width:1;" x1="121.0796" x2="618.4831" y1="842.6172" y2="842.6172"/><text fill="#FFFFFF" font-family="sans-serif" font-size="13" lengthAdjust="spacing" textLength="104.0001" x="138.0796" y="837.5513">&#24291;&#25773;&#36890;&#30693;&#23565;&#23616;&#32080;&#26524;</text></g><g class="message" data-participant-1="GameThread" data-participant-2="GameThread"><line style="stroke:#E7E7E7;stroke-width:1;" x1="1271.8212" x2="1313.8212" y1="876.75" y2="876.75"/><line style="stroke:#E7E7E7;stroke-width:1;" x1="1313.8212" x2="1313.8212" y1="876.75" y2="889.75"/><line style="stroke:#E7E7E7;stroke-width:1;" x1="1266.8212" x2="1313.8212" y1="889.75" y2="889.75"/><polygon fill="#E7E7E7" points="1276.8212,885.75,1266.8212,889.75,1276.8212,893.75,1272.8212,889.75" style="stroke:#E7E7E7;stroke-width:1;"/><text fill="#FFFFFF" font-family="sans-serif" font-size="13" lengthAdjust="spacing" textLength="52.0001" x="1278.8212" y="871.6841">&#23565;&#23616;&#32080;&#26463;</text></g><rect fill="none" height="39.1016" style="stroke:#DDDDDD;stroke-width:1.5;" width="140.001" x="1211.352" y="892.75"/><path d="M1211.352,892.75 L1276.352,892.75 L1276.352,899.75 L1266.352,909.75 L1211.352,909.75 L1211.352,892.75" fill="#444444" style="stroke:#DDDDDD;stroke-width:2;"/><text fill="#FFFFFF" font-family="sans-serif" font-size="13" font-weight="bold" lengthAdjust="spacing" textLength="20.8838" x="1224.352" y="906.8169">ref</text><text fill="#FFFFFF" font-family="sans-serif" font-size="12" lengthAdjust="spacing" textLength="132.001" x="1215.352" y="924.8887">&#35443;&#35211;&#12300;&#23565;&#23616;&#32080;&#26463;&#12301;&#24490;&#24207;&#22294;</text><g class="message" data-participant-1="GameService" data-participant-2="HttpRestController"><polygon fill="#E7E7E7" points="479.2248,974.9844,469.2248,978.9844,479.2248,982.9844,475.2248,978.9844" style="stroke:#E7E7E7;stroke-width:1;"/><line style="stroke:#E7E7E7;stroke-width:1;stroke-dasharray:2,2;" x1="473.2248" x2="756.1066" y1="978.9844" y2="978.9844"/><text fill="#FFFFFF" font-family="sans-serif" font-size="13" lengthAdjust="spacing" textLength="52.0001" x="485.2248" y="973.9185">&#34389;&#29702;&#23436;&#25104;</text></g><g class="message" data-participant-1="HttpRestController" data-participant-2="Player"><polygon fill="#E7E7E7" points="242.9419,1004.1172,232.9419,1008.1172,242.9419,1012.1172,238.9419,1008.1172" style="stroke:#E7E7E7;stroke-width:1;"/><line style="stroke:#E7E7E7;stroke-width:1;stroke-dasharray:2,2;" x1="236.9419" x2="462.2248" y1="1008.1172" y2="1008.1172"/><text fill="#FFFFFF" font-family="sans-serif" font-size="13" lengthAdjust="spacing" textLength="117.0001" x="248.9419" y="1003.0513">&#36820;&#22238;&#12300;&#24453;&#27231;&#23460;&#12301;&#38913;&#38754;</text></g><rect fill="#111111" height="3" style="stroke:#111111;stroke-width:1;" width="1729.2662" x="0" y="1036.6836"/><line style="stroke:#FFFFFF;stroke-width:1;" x1="0" x2="1729.2662" y1="1036.6836" y2="1036.6836"/><line style="stroke:#FFFFFF;stroke-width:1;" x1="0" x2="1729.2662" y1="1039.6836" y2="1039.6836"/><rect fill="#111111" height="23.1328" style="stroke:#FFFFFF;stroke-width:2;" width="109.526" x="809.8701" y="1026.1172"/><text fill="#FFFFFF" font-family="sans-serif" font-size="13" font-weight="bold" lengthAdjust="spacing" textLength="91.0001" x="815.8701" y="1042.1841">&#29554;&#21462;&#24453;&#27231;&#23460;&#25976;&#25818;</text><g class="message" data-participant-1="Player" data-participant-2="HttpRestController"><polygon fill="#E7E7E7" points="446.2248,1076.3828,456.2248,1080.3828,446.2248,1084.3828,450.2248,1080.3828" style="stroke:#E7E7E7;stroke-width:1;"/><line style="stroke:#E7E7E7;stroke-width:1;" x1="231.9419" x2="452.2248" y1="1080.3828" y2="1080.3828"/><text fill="#FFFFFF" font-family="sans-serif" font-size="13" lengthAdjust="spacing" textLength="195.0002" x="238.9419" y="1075.3169">&#30332;&#36865;&#35531;&#27714;&#29554;&#21462;&#12300;&#24453;&#27231;&#23460;&#12301;&#25152;&#38656;&#25976;&#25818;</text></g><g class="message" data-participant-1="HttpRestController" data-participant-2="GameService"><polygon fill="#E7E7E7" points="740.1066,1105.5156,750.1066,1109.5156,740.1066,1113.5156,744.1066,1109.5156" style="stroke:#E7E7E7;stroke-width:1;"/><line style="stroke:#E7E7E7;stroke-width:1;" x1="468.2248" x2="746.1066" y1="1109.5156" y2="1109.5156"/><text fill="#FFFFFF" font-family="sans-serif" font-size="13" lengthAdjust="spacing" textLength="91.0001" x="475.2248" y="1104.4497">&#36914;&#20837;&#12300;&#24453;&#27231;&#23460;&#12301;</text></g><g class="message" data-participant-1="GameService" data-participant-2="PlayerManagement"><polygon fill="#E7E7E7" points="1486.7877,1134.6484,1496.7877,1138.6484,1486.7877,1142.6484,1490.7877,1138.6484" style="stroke:#E7E7E7;stroke-width:1;"/><line style="stroke:#E7E7E7;stroke-width:1;" x1="762.1066" x2="1492.7877" y1="1138.6484" y2="1138.6484"/><text fill="#FFFFFF" font-family="sans-serif" font-size="13" lengthAdjust="spacing" textLength="195.0002" x="769.1066" y="1133.5825">&#26356;&#25913;&#35442;&#29609;&#23478;&#36938;&#25138;&#29376;&#24907;&#28858;&#12300;&#24453;&#27231;&#23460;&#12301;</text></g><g class="message" data-participant-1="PlayerManagement" data-participant-2="RedisAccess"><polygon fill="#E7E7E7" points="1621.9742,1163.7813,1631.9742,1167.7813,1621.9742,1171.7813,1625.9742,1167.7813" style="stroke:#E7E7E7;stroke-width:1;"/><line style="stroke:#E7E7E7;stroke-width:1;" x1="1508.7877" x2="1627.9742" y1="1167.7813" y2="1167.7813"/><text fill="#FFFFFF" font-family="sans-serif" font-size="13" lengthAdjust="spacing" textLength="104.0001" x="1515.7877" y="1162.7153">&#26356;&#25913;&#29609;&#23478;&#36938;&#25138;&#29376;&#24907;</text></g><g class="message" data-participant-1="RedisAccess" data-participant-2="PlayerManagement"><polygon fill="#E7E7E7" points="1519.7877,1192.9141,1509.7877,1196.9141,1519.7877,1200.9141,1515.7877,1196.9141" style="stroke:#E7E7E7;stroke-width:1;"/><line style="stroke:#E7E7E7;stroke-width:1;stroke-dasharray:2,2;" x1="1513.7877" x2="1637.9742" y1="1196.9141" y2="1196.9141"/><text fill="#FFFFFF" font-family="sans-serif" font-size="13" lengthAdjust="spacing" textLength="52.0001" x="1525.7877" y="1191.8481">&#26356;&#25913;&#25104;&#21151;</text></g><g class="message" data-participant-1="PlayerManagement" data-participant-2="GameService"><polygon fill="#E7E7E7" points="773.1066,1222.0469,763.1066,1226.0469,773.1066,1230.0469,769.1066,1226.0469" style="stroke:#E7E7E7;stroke-width:1;"/><line style="stroke:#E7E7E7;stroke-width:1;stroke-dasharray:2,2;" x1="767.1066" x2="1502.7877" y1="1226.0469" y2="1226.0469"/><text fill="#FFFFFF" font-family="sans-serif" font-size="13" lengthAdjust="spacing" textLength="52.0001" x="779.1066" y="1220.981">&#26356;&#25913;&#25104;&#21151;</text></g><g class="message" data-participant-1="GameService" data-participant-2="RedisAccess"><polygon fill="#E7E7E7" points="1621.9742,1251.1797,1631.9742,1255.1797,1621.9742,1259.1797,1625.9742,1255.1797" style="stroke:#E7E7E7;stroke-width:1;"/><line style="stroke:#E7E7E7;stroke-width:1;" x1="762.1066" x2="1627.9742" y1="1255.1797" y2="1255.1797"/><text fill="#FFFFFF" font-family="sans-serif" font-size="13" lengthAdjust="spacing" textLength="91.0001" x="769.1066" y="1250.1138">&#29554;&#21462;&#24453;&#27231;&#23460;&#25976;&#25818;</text></g><g class="message" data-participant-1="RedisAccess" data-participant-2="GameService"><polygon fill="#E7E7E7" points="773.1066,1280.3125,763.1066,1284.3125,773.1066,1288.3125,769.1066,1284.3125" style="stroke:#E7E7E7;stroke-width:1;"/><line style="stroke:#E7E7E7;stroke-width:1;stroke-dasharray:2,2;" x1="767.1066" x2="1637.9742" y1="1284.3125" y2="1284.3125"/><text fill="#FFFFFF" font-family="sans-serif" font-size="13" lengthAdjust="spacing" textLength="91.0001" x="779.1066" y="1279.2466">&#36820;&#22238;&#24453;&#27231;&#23460;&#25976;&#25818;</text></g><g class="message" data-participant-1="GameService" data-participant-2="HttpRestController"><polygon fill="#E7E7E7" points="479.2248,1309.4453,469.2248,1313.4453,479.2248,1317.4453,475.2248,1313.4453" style="stroke:#E7E7E7;stroke-width:1;"/><line style="stroke:#E7E7E7;stroke-width:1;stroke-dasharray:2,2;" x1="473.2248" x2="756.1066" y1="1313.4453" y2="1313.4453"/><text fill="#FFFFFF" font-family="sans-serif" font-size="13" lengthAdjust="spacing" textLength="91.0001" x="485.2248" y="1308.3794">&#36820;&#22238;&#24453;&#27231;&#23460;&#25976;&#25818;</text></g><g class="message" data-participant-1="HttpRestController" data-participant-2="Player"><polygon fill="#E7E7E7" points="242.9419,1338.5781,232.9419,1342.5781,242.9419,1346.5781,238.9419,1342.5781" style="stroke:#E7E7E7;stroke-width:1;"/><line style="stroke:#E7E7E7;stroke-width:1;stroke-dasharray:2,2;" x1="236.9419" x2="462.2248" y1="1342.5781" y2="1342.5781"/><text fill="#FFFFFF" font-family="sans-serif" font-size="13" lengthAdjust="spacing" textLength="143.0002" x="248.9419" y="1337.5122">&#36820;&#22238;&#24453;&#27231;&#23460;&#25976;&#25818;&#28210;&#26579;&#38913;&#38754;</text></g><!--SRC=[bLPVRzDM57_tfxZY1H0Ai4fC2Ar8Q9C63vCGNSNBNhpa3g8L9t8if4bzS0ePITEiORI1j6dJGUYILYrjHjlGXlR3jFVQVk8hx5nVsxtsTTeGAOfzSyxldFCx_-v5PErsxRqFpi5Bg_wPlYkZ1BAFviZYCZaiq4wJRBReJjvgbvMBQEJwo8rhrszU6nb1Jx5-zPkhtogAcZGoEhe_eVw1zJjQQYoBauOAHxdGFqfMrOrqCfrLDGDTk6iOsGSuPtoVqGmzCp61zGj8pI7vEAps4Fywbad-ZesxgfRobQA7OPKVrITu3EjFqqdiIWllik3FZtMifdvIDVMH1owT3bAAI8V5E0KSuGdM35SuUXXMUO1JwToTP1BdSgwqyAueewF8glV9Y_r8dkprCjsUGgEZIamwq9Khth7mbBWTGphyZswTQU4IgQvRVtN8vYuQ7x_tmsKb1WIW1R8vfhrsPCsrZyqPEZtlr2l7PeMy-4pwisv8fDYYjJsoLI7R9dtpWLHNdQddPECDQRHPI28OO4VfumReoYVwQa5m3LcLBfcjWKb-IETx80265Ga0G0MMFH9SRL5LrlikaGWfmkij15hay7L8KGo0wSWEC4LEU4XHYSOkLILtbXDeTxgYzablmrfu7i_g9GRaGu3WPKNB61ZfwKUF3ORdIdtfBzZ_jAtMleVHMBDsgdIfUMnE_QATz2gnKcIlowM-z6V0eU3GVhjEUmMdtW9jYH0vB94HW5jkA4ecQo0FpZMi8FZ4yEE_ohIu95XJ-u5Vd2AOVBHKPlwQCyxIilslIOjRjbbWdZ8R8MgS_14fLCZY2YdiairdWJ0u5A69b2gH7dBC5Lgi1gR1Dzy4YmtSYtNC5HWGQqmjS60VPXKu20XWeVTx8Rm8wxT5MAyHvhP9g-OyQtFWmCK01gPNy1nryupa1fN1SKCG4fxdK2XgrlIB7sbjopr3LgbpSh0BOAVvTaSD8q08-Xpu-E72Xm4jGN9BTdsUrle13P0cReqKNqCVXA2_Uj0CWt7kq8a14M8SRlwSZS7A9BfylK5qy8x-lU6O2rRpFMG6o87vouc2oSldahMpAXOvzD79WHT_oA1aWPcDMs-S0S6obna-DuOg9Q4YUVE6r7Jy6yh0jITSV7RdFtkr7CJdpyOAELmZ-xEaKGimi9PI_5_sZLkQVgS43Uwcf3vlLVyacpCmDlp5pGJZbkvf2fbB_iW1VvoLlBFqbjyTt5exlTsv-JYzDPnpAN3CFBy519jLD0FTuJHCRt4DUIjmp2ufl8y0oLjlmCQ7vf_x57Ixav-cnQvLDccX38Ck2ZfKBt986M_8rS_LsOYVRWwvz0Ug31uLaVH9XYItedTwMIqHd_ZXL6EJ7MJj31TehqkRh_pod9oS_1y0]--></g></svg>