<svg xmlns="http://www.w3.org/2000/svg" xmlns:xlink="http://www.w3.org/1999/xlink" contentStyleType="text/css" data-diagram-type="SEQUENCE" height="871px" preserveAspectRatio="none" style="width:1742px;height:871px;background:#1B1B1B;" version="1.1" viewBox="0 0 1742 871" width="1742px" zoomAndPan="magnify"><defs/><g><rect fill="#1B1B1B" height="871" style="stroke:none;stroke-width:1;" width="1742" x="0" y="0"/><g><title>Spectators</title><rect fill="#FFFFFF" height="690.7891" style="stroke:#E7E7E7;stroke-width:1;" width="10" x="40.6284" y="91.2969"/></g><g><title>PlayerB</title><rect fill="#FFFFFF" height="690.7891" style="stroke:#E7E7E7;stroke-width:1;" width="10" x="120.8418" y="91.2969"/></g><g><title>PlayerA_...</title><rect fill="#FFFFFF" height="690.7891" style="stroke:#E7E7E7;stroke-width:1;" width="10" x="214.498" y="91.2969"/></g><g><title>HttpRestController</title><rect fill="#FFFFFF" height="24.1328" style="stroke:#E7E7E7;stroke-width:1;" width="10" x="350.9139" y="91.2969"/></g><g><title>WebSocketHandler</title><rect fill="#FFFFFF" height="87.3984" style="stroke:#E7E7E7;stroke-width:1;" width="10" x="507.1722" y="524.1563"/></g><g><title>GameService</title><rect fill="#FFFFFF" height="632.6563" style="stroke:#E7E7E7;stroke-width:1;" width="10" x="783.1725" y="115.4297"/></g><g><title>PlayerManagement</title><rect fill="#FFFFFF" height="87.3984" style="stroke:#E7E7E7;stroke-width:1;" width="10" x="1012.1727" y="190.6953"/></g><g><title>RedisAccess</title><rect fill="#FFFFFF" height="29.1328" style="stroke:#E7E7E7;stroke-width:1;" width="10" x="1199.312" y="219.8281"/></g><g><title>RedisAccess</title><rect fill="#FFFFFF" height="29.1328" style="stroke:#E7E7E7;stroke-width:1;" width="10" x="1199.312" y="350.3594"/></g><g><title>RedisAccess</title><rect fill="#FFFFFF" height="29.1328" style="stroke:#E7E7E7;stroke-width:1;" width="10" x="1199.312" y="465.8906"/></g><g><title>GameThreadManager</title><rect fill="#FFFFFF" height="64.2656" style="stroke:#E7E7E7;stroke-width:1;" width="10" x="1342.7563" y="683.8203"/></g><g><title>GameThread</title><rect fill="#FFFFFF" height="32.1328" style="stroke:#E7E7E7;stroke-width:1;" width="10" x="1514.7565" y="715.9531"/></g><g><title>Spectators</title><rect fill="#000000" fill-opacity="0.00000" height="709.7891" width="8" x="41.6284" y="81.2969"/><line style="stroke:#E7E7E7;stroke-width:0.5;stroke-dasharray:5,5;" x1="45" x2="45" y1="81.2969" y2="791.0859"/></g><g><title>PlayerB</title><rect fill="#000000" fill-opacity="0.00000" height="709.7891" width="8" x="121.8418" y="81.2969"/><line style="stroke:#E7E7E7;stroke-width:0.5;stroke-dasharray:5,5;" x1="125.2568" x2="125.2568" y1="81.2969" y2="791.0859"/></g><g><title>PlayerA_...</title><rect fill="#000000" fill-opacity="0.00000" height="709.7891" width="8" x="215.498" y="81.2969"/><line style="stroke:#E7E7E7;stroke-width:0.5;stroke-dasharray:5,5;" x1="219.4268" x2="219.4268" y1="81.2969" y2="791.0859"/></g><g><title>HttpRestController</title><rect fill="#000000" fill-opacity="0.00000" height="709.7891" width="8" x="351.9139" y="81.2969"/><line style="stroke:#E7E7E7;stroke-width:0.5;stroke-dasharray:5,5;" x1="355.5692" x2="355.5692" y1="81.2969" y2="791.0859"/></g><g><title>WebSocketHandler</title><rect fill="#000000" fill-opacity="0.00000" height="709.7891" width="8" x="508.1722" y="81.2969"/><line style="stroke:#E7E7E7;stroke-width:0.5;stroke-dasharray:5,5;" x1="511.2586" x2="511.2586" y1="81.2969" y2="791.0859"/></g><g><title>GameService</title><rect fill="#000000" fill-opacity="0.00000" height="709.7891" width="8" x="784.1725" y="81.2969"/><line style="stroke:#E7E7E7;stroke-width:0.5;stroke-dasharray:5,5;" x1="787.4625" x2="787.4625" y1="81.2969" y2="791.0859"/></g><g><title>PlayerManagement</title><rect fill="#000000" fill-opacity="0.00000" height="709.7891" width="8" x="1013.1727" y="81.2969"/><line style="stroke:#E7E7E7;stroke-width:0.5;stroke-dasharray:5,5;" x1="1016.2782" x2="1016.2782" y1="81.2969" y2="791.0859"/></g><g><title>RedisAccess</title><rect fill="#000000" fill-opacity="0.00000" height="709.7891" width="8" x="1200.312" y="81.2969"/><line style="stroke:#E7E7E7;stroke-width:0.5;stroke-dasharray:5,5;" x1="1204.02" x2="1204.02" y1="81.2969" y2="791.0859"/></g><g><title>GameThreadManager</title><rect fill="#000000" fill-opacity="0.00000" height="709.7891" width="8" x="1343.7563" y="81.2969"/><line style="stroke:#E7E7E7;stroke-width:0.5;stroke-dasharray:5,5;" x1="1347.604" x2="1347.604" y1="81.2969" y2="791.0859"/></g><g><title>GameThread</title><rect fill="#000000" fill-opacity="0.00000" height="709.7891" width="8" x="1515.7565" y="81.2969"/><line style="stroke:#E7E7E7;stroke-width:0.5;stroke-dasharray:5,5;" x1="1519.2873" x2="1519.2873" y1="81.2969" y2="791.0859"/></g><g class="participant participant-head" data-participant="Spectators"><text fill="#FFFFFF" font-family="sans-serif" font-size="14" lengthAdjust="spacing" textLength="75.2568" x="5" y="77.9951">Spectators</text><ellipse cx="45.6284" cy="13.5" fill="#222222" rx="8" ry="8" style="stroke:#E7E7E7;stroke-width:0.5;"/><path d="M45.6284,21.5 L45.6284,48.5 M32.6284,29.5 L58.6284,29.5 M45.6284,48.5 L32.6284,63.5 M45.6284,48.5 L58.6284,63.5" fill="none" style="stroke:#E7E7E7;stroke-width:0.5;"/></g><g class="participant participant-tail" data-participant="Spectators"><text fill="#FFFFFF" font-family="sans-serif" font-size="14" lengthAdjust="spacing" textLength="75.2568" x="5" y="803.0811">Spectators</text><ellipse cx="45.6284" cy="814.8828" fill="#222222" rx="8" ry="8" style="stroke:#E7E7E7;stroke-width:0.5;"/><path d="M45.6284,822.8828 L45.6284,849.8828 M32.6284,830.8828 L58.6284,830.8828 M45.6284,849.8828 L32.6284,864.8828 M45.6284,849.8828 L58.6284,864.8828" fill="none" style="stroke:#E7E7E7;stroke-width:0.5;"/></g><g class="participant participant-head" data-participant="PlayerB"><text fill="#FFFFFF" font-family="sans-serif" font-size="14" lengthAdjust="spacing" textLength="53.1699" x="96.2568" y="77.9951">PlayerB</text><ellipse cx="125.8418" cy="13.5" fill="#222222" rx="8" ry="8" style="stroke:#E7E7E7;stroke-width:0.5;"/><path d="M125.8418,21.5 L125.8418,48.5 M112.8418,29.5 L138.8418,29.5 M125.8418,48.5 L112.8418,63.5 M125.8418,48.5 L138.8418,63.5" fill="none" style="stroke:#E7E7E7;stroke-width:0.5;"/></g><g class="participant participant-tail" data-participant="PlayerB"><text fill="#FFFFFF" font-family="sans-serif" font-size="14" lengthAdjust="spacing" textLength="53.1699" x="96.2568" y="803.0811">PlayerB</text><ellipse cx="125.8418" cy="814.8828" fill="#222222" rx="8" ry="8" style="stroke:#E7E7E7;stroke-width:0.5;"/><path d="M125.8418,822.8828 L125.8418,849.8828 M112.8418,830.8828 L138.8418,830.8828 M125.8418,849.8828 L112.8418,864.8828 M125.8418,849.8828 L138.8418,864.8828" fill="none" style="stroke:#E7E7E7;stroke-width:0.5;"/></g><g class="participant participant-head" data-participant="PlayerA"><text fill="#FFFFFF" font-family="sans-serif" font-size="14" lengthAdjust="spacing" textLength="102.1424" x="165.4268" y="77.9951">PlayerA_&#26039;&#32218;&#32773;</text><ellipse cx="219.498" cy="13.5" fill="#222222" rx="8" ry="8" style="stroke:#E7E7E7;stroke-width:0.5;"/><path d="M219.498,21.5 L219.498,48.5 M206.498,29.5 L232.498,29.5 M219.498,48.5 L206.498,63.5 M219.498,48.5 L232.498,63.5" fill="none" style="stroke:#E7E7E7;stroke-width:0.5;"/></g><g class="participant participant-tail" data-participant="PlayerA"><text fill="#FFFFFF" font-family="sans-serif" font-size="14" lengthAdjust="spacing" textLength="102.1424" x="165.4268" y="803.0811">PlayerA_&#26039;&#32218;&#32773;</text><ellipse cx="219.498" cy="814.8828" fill="#222222" rx="8" ry="8" style="stroke:#E7E7E7;stroke-width:0.5;"/><path d="M219.498,822.8828 L219.498,849.8828 M206.498,830.8828 L232.498,830.8828 M219.498,849.8828 L206.498,864.8828 M219.498,849.8828 L232.498,864.8828" fill="none" style="stroke:#E7E7E7;stroke-width:0.5;"/></g><g class="participant participant-head" data-participant="HttpRestController"><rect fill="#222222" height="30.2969" rx="2.5" ry="2.5" style="stroke:#E7E7E7;stroke-width:0.5;" width="144.6895" x="283.5692" y="50"/><text fill="#FFFFFF" font-family="sans-serif" font-size="14" lengthAdjust="spacing" textLength="130.6895" x="290.5692" y="69.9951">HttpRestController</text></g><g class="participant participant-tail" data-participant="HttpRestController"><rect fill="#222222" height="30.2969" rx="2.5" ry="2.5" style="stroke:#E7E7E7;stroke-width:0.5;" width="144.6895" x="283.5692" y="790.0859"/><text fill="#FFFFFF" font-family="sans-serif" font-size="14" lengthAdjust="spacing" textLength="130.6895" x="290.5692" y="810.0811">HttpRestController</text></g><g class="participant participant-head" data-participant="WebSocketHandler"><rect fill="#222222" height="30.2969" rx="2.5" ry="2.5" style="stroke:#E7E7E7;stroke-width:0.5;" width="147.8271" x="438.2586" y="50"/><text fill="#FFFFFF" font-family="sans-serif" font-size="14" lengthAdjust="spacing" textLength="133.8271" x="445.2586" y="69.9951">WebSocketHandler</text></g><g class="participant participant-tail" data-participant="WebSocketHandler"><rect fill="#222222" height="30.2969" rx="2.5" ry="2.5" style="stroke:#E7E7E7;stroke-width:0.5;" width="147.8271" x="438.2586" y="790.0859"/><text fill="#FFFFFF" font-family="sans-serif" font-size="14" lengthAdjust="spacing" textLength="133.8271" x="445.2586" y="810.0811">WebSocketHandler</text></g><g class="participant participant-head" data-participant="GameService"><rect fill="#222222" height="30.2969" rx="2.5" ry="2.5" style="stroke:#E7E7E7;stroke-width:0.5;" width="107.4199" x="734.4625" y="50"/><text fill="#FFFFFF" font-family="sans-serif" font-size="14" lengthAdjust="spacing" textLength="93.4199" x="741.4625" y="69.9951">GameService</text></g><g class="participant participant-tail" data-participant="GameService"><rect fill="#222222" height="30.2969" rx="2.5" ry="2.5" style="stroke:#E7E7E7;stroke-width:0.5;" width="107.4199" x="734.4625" y="790.0859"/><text fill="#FFFFFF" font-family="sans-serif" font-size="14" lengthAdjust="spacing" textLength="93.4199" x="741.4625" y="810.0811">GameService</text></g><g class="participant participant-head" data-participant="PlayerManagement"><rect fill="#222222" height="30.2969" rx="2.5" ry="2.5" style="stroke:#E7E7E7;stroke-width:0.5;" width="149.7891" x="942.2782" y="50"/><text fill="#FFFFFF" font-family="sans-serif" font-size="14" lengthAdjust="spacing" textLength="135.7891" x="949.2782" y="69.9951">PlayerManagement</text></g><g class="participant participant-tail" data-participant="PlayerManagement"><rect fill="#222222" height="30.2969" rx="2.5" ry="2.5" style="stroke:#E7E7E7;stroke-width:0.5;" width="149.7891" x="942.2782" y="790.0859"/><text fill="#FFFFFF" font-family="sans-serif" font-size="14" lengthAdjust="spacing" textLength="135.7891" x="949.2782" y="810.0811">PlayerManagement</text></g><g class="participant participant-head" data-participant="RedisAccess"><rect fill="#222222" height="30.2969" rx="2.5" ry="2.5" style="stroke:#E7E7E7;stroke-width:0.5;" width="100.584" x="1154.02" y="50"/><text fill="#FFFFFF" font-family="sans-serif" font-size="14" lengthAdjust="spacing" textLength="86.584" x="1161.02" y="69.9951">RedisAccess</text></g><g class="participant participant-tail" data-participant="RedisAccess"><rect fill="#222222" height="30.2969" rx="2.5" ry="2.5" style="stroke:#E7E7E7;stroke-width:0.5;" width="100.584" x="1154.02" y="790.0859"/><text fill="#FFFFFF" font-family="sans-serif" font-size="14" lengthAdjust="spacing" textLength="86.584" x="1161.02" y="810.0811">RedisAccess</text></g><g class="participant participant-head" data-participant="GameThreadManager"><rect fill="#222222" height="30.2969" rx="2.5" ry="2.5" style="stroke:#E7E7E7;stroke-width:0.5;" width="166.3047" x="1264.604" y="50"/><text fill="#FFFFFF" font-family="sans-serif" font-size="14" lengthAdjust="spacing" textLength="152.3047" x="1271.604" y="69.9951">GameThreadManager</text></g><g class="participant participant-tail" data-participant="GameThreadManager"><rect fill="#222222" height="30.2969" rx="2.5" ry="2.5" style="stroke:#E7E7E7;stroke-width:0.5;" width="166.3047" x="1264.604" y="790.0859"/><text fill="#FFFFFF" font-family="sans-serif" font-size="14" lengthAdjust="spacing" textLength="152.3047" x="1271.604" y="810.0811">GameThreadManager</text></g><g class="participant participant-head" data-participant="GameThread"><rect fill="#222222" height="30.2969" rx="2.5" ry="2.5" style="stroke:#E7E7E7;stroke-width:0.5;" width="104.9385" x="1467.2873" y="50"/><text fill="#FFFFFF" font-family="sans-serif" font-size="14" lengthAdjust="spacing" textLength="90.9385" x="1474.2873" y="69.9951">GameThread</text></g><g class="participant participant-tail" data-participant="GameThread"><rect fill="#222222" height="30.2969" rx="2.5" ry="2.5" style="stroke:#E7E7E7;stroke-width:0.5;" width="104.9385" x="1467.2873" y="790.0859"/><text fill="#FFFFFF" font-family="sans-serif" font-size="14" lengthAdjust="spacing" textLength="90.9385" x="1474.2873" y="810.0811">GameThread</text></g><g><title>Spectators</title><rect fill="#FFFFFF" height="690.7891" style="stroke:#E7E7E7;stroke-width:1;" width="10" x="40.6284" y="91.2969"/></g><g><title>PlayerB</title><rect fill="#FFFFFF" height="690.7891" style="stroke:#E7E7E7;stroke-width:1;" width="10" x="120.8418" y="91.2969"/></g><g><title>PlayerA_...</title><rect fill="#FFFFFF" height="690.7891" style="stroke:#E7E7E7;stroke-width:1;" width="10" x="214.498" y="91.2969"/></g><g><title>HttpRestController</title><rect fill="#FFFFFF" height="24.1328" style="stroke:#E7E7E7;stroke-width:1;" width="10" x="350.9139" y="91.2969"/></g><g><title>WebSocketHandler</title><rect fill="#FFFFFF" height="87.3984" style="stroke:#E7E7E7;stroke-width:1;" width="10" x="507.1722" y="524.1563"/></g><g><title>GameService</title><rect fill="#FFFFFF" height="632.6563" style="stroke:#E7E7E7;stroke-width:1;" width="10" x="783.1725" y="115.4297"/></g><g><title>PlayerManagement</title><rect fill="#FFFFFF" height="87.3984" style="stroke:#E7E7E7;stroke-width:1;" width="10" x="1012.1727" y="190.6953"/></g><g><title>RedisAccess</title><rect fill="#FFFFFF" height="29.1328" style="stroke:#E7E7E7;stroke-width:1;" width="10" x="1199.312" y="219.8281"/></g><g><title>RedisAccess</title><rect fill="#FFFFFF" height="29.1328" style="stroke:#E7E7E7;stroke-width:1;" width="10" x="1199.312" y="350.3594"/></g><g><title>RedisAccess</title><rect fill="#FFFFFF" height="29.1328" style="stroke:#E7E7E7;stroke-width:1;" width="10" x="1199.312" y="465.8906"/></g><g><title>GameThreadManager</title><rect fill="#FFFFFF" height="64.2656" style="stroke:#E7E7E7;stroke-width:1;" width="10" x="1342.7563" y="683.8203"/></g><g><title>GameThread</title><rect fill="#FFFFFF" height="32.1328" style="stroke:#E7E7E7;stroke-width:1;" width="10" x="1514.7565" y="715.9531"/></g><g class="message" data-participant-1="HttpRestController" data-participant-2="GameService"><polygon fill="#E7E7E7" points="771.1725,111.4297,781.1725,115.4297,771.1725,119.4297,775.1725,115.4297" style="stroke:#E7E7E7;stroke-width:1;"/><line style="stroke:#E7E7E7;stroke-width:1;" x1="355.9139" x2="777.1725" y1="115.4297" y2="115.4297"/><text fill="#FFFFFF" font-family="sans-serif" font-size="13" lengthAdjust="spacing" textLength="104.0001" x="362.9139" y="110.3638">&#21855;&#21205;&#26039;&#32218;&#37325;&#36899;&#27969;&#31243;</text></g><path d="M181,96.2969 L181,121.2969 L345,121.2969 L345,106.2969 L335,96.2969 L181,96.2969" fill="#714137" style="stroke:#E7E7E7;stroke-width:0.5;"/><path d="M335,96.2969 L335,106.2969 L345,106.2969 L335,96.2969" fill="#714137" style="stroke:#E7E7E7;stroke-width:0.5;"/><text fill="#FFFFFF" font-family="sans-serif" font-size="13" lengthAdjust="spacing" textLength="143.0002" x="187" y="113.3638">&#25509;&#32396;&#12300;&#29609;&#23478;&#36899;&#32218;&#27969;&#31243;&#12301;&#12290;</text><rect fill="#111111" height="3" style="stroke:#111111;stroke-width:1;" width="1735.3318" x="0" y="146.9961"/><line style="stroke:#FFFFFF;stroke-width:1;" x1="0" x2="1735.3318" y1="146.9961" y2="146.9961"/><line style="stroke:#FFFFFF;stroke-width:1;" x1="0" x2="1735.3318" y1="149.9961" y2="149.9961"/><rect fill="#111111" height="23.1328" style="stroke:#FFFFFF;stroke-width:2;" width="122.526" x="806.4029" y="136.4297"/><text fill="#FFFFFF" font-family="sans-serif" font-size="13" font-weight="bold" lengthAdjust="spacing" textLength="104.0001" x="812.4029" y="152.4966">&#29554;&#21462;&#12300;&#29609;&#23478;&#25976;&#25818;&#12301;</text><g class="message" data-participant-1="GameService" data-participant-2="PlayerManagement"><polygon fill="#E7E7E7" points="1000.1727,186.6953,1010.1727,190.6953,1000.1727,194.6953,1004.1727,190.6953" style="stroke:#E7E7E7;stroke-width:1;"/><line style="stroke:#E7E7E7;stroke-width:1;" x1="793.1725" x2="1006.1727" y1="190.6953" y2="190.6953"/><text fill="#FFFFFF" font-family="sans-serif" font-size="13" lengthAdjust="spacing" textLength="104.0001" x="800.1725" y="185.6294">&#29554;&#21462;&#12300;&#29609;&#23478;&#25976;&#25818;&#12301;</text></g><g class="message" data-participant-1="PlayerManagement" data-participant-2="RedisAccess"><polygon fill="#E7E7E7" points="1187.312,215.8281,1197.312,219.8281,1187.312,223.8281,1191.312,219.8281" style="stroke:#E7E7E7;stroke-width:1;"/><line style="stroke:#E7E7E7;stroke-width:1;" x1="1022.1727" x2="1193.312" y1="219.8281" y2="219.8281"/><text fill="#FFFFFF" font-family="sans-serif" font-size="13" lengthAdjust="spacing" textLength="158.1393" x="1029.1727" y="214.7622">&#20351;&#29992;&#35442; UUID &#26597;&#35426;&#29609;&#23478;&#25976;&#25818;</text></g><g class="message" data-participant-1="RedisAccess" data-participant-2="PlayerManagement"><polygon fill="#E7E7E7" points="1033.1727,244.9609,1023.1727,248.9609,1033.1727,252.9609,1029.1727,248.9609" style="stroke:#E7E7E7;stroke-width:1;"/><line style="stroke:#E7E7E7;stroke-width:1;stroke-dasharray:2,2;" x1="1027.1727" x2="1203.312" y1="248.9609" y2="248.9609"/><text fill="#FFFFFF" font-family="sans-serif" font-size="13" lengthAdjust="spacing" textLength="78.0001" x="1039.1727" y="243.895">&#36820;&#22238;&#26597;&#35426;&#32080;&#26524;</text></g><g class="message" data-participant-1="PlayerManagement" data-participant-2="GameService"><polygon fill="#E7E7E7" points="804.1725,274.0938,794.1725,278.0938,804.1725,282.0938,800.1725,278.0938" style="stroke:#E7E7E7;stroke-width:1;"/><line style="stroke:#E7E7E7;stroke-width:1;stroke-dasharray:2,2;" x1="798.1725" x2="1016.1727" y1="278.0938" y2="278.0938"/><text fill="#FFFFFF" font-family="sans-serif" font-size="13" lengthAdjust="spacing" textLength="104.0001" x="810.1725" y="273.0278">&#36820;&#22238;&#12300;&#29609;&#23478;&#25976;&#25818;&#12301;</text></g><rect fill="#111111" height="3" style="stroke:#111111;stroke-width:1;" width="1735.3318" x="0" y="306.6602"/><line style="stroke:#FFFFFF;stroke-width:1;" x1="0" x2="1735.3318" y1="306.6602" y2="306.6602"/><line style="stroke:#FFFFFF;stroke-width:1;" x1="0" x2="1735.3318" y1="309.6602" y2="309.6602"/><rect fill="#111111" height="23.1328" style="stroke:#FFFFFF;stroke-width:2;" width="122.526" x="806.4029" y="296.0938"/><text fill="#FFFFFF" font-family="sans-serif" font-size="13" font-weight="bold" lengthAdjust="spacing" textLength="104.0001" x="812.4029" y="312.1606">&#36820;&#22238;&#30070;&#21069;&#23565;&#23616;&#25976;&#25818;</text><g class="message" data-participant-1="GameService" data-participant-2="RedisAccess"><polygon fill="#E7E7E7" points="1187.312,346.3594,1197.312,350.3594,1187.312,354.3594,1191.312,350.3594" style="stroke:#E7E7E7;stroke-width:1;"/><line style="stroke:#E7E7E7;stroke-width:1;" x1="793.1725" x2="1193.312" y1="350.3594" y2="350.3594"/><text fill="#FFFFFF" font-family="sans-serif" font-size="13" lengthAdjust="spacing" textLength="292.259" x="800.1725" y="345.2935">&#26681;&#25818;&#23565;&#23616; ID &#29554;&#21462;&#26368;&#26032;&#23565;&#23616;&#25976;&#25818; (GameData &#29289;&#20214;)</text></g><g class="message" data-participant-1="RedisAccess" data-participant-2="GameService"><polygon fill="#E7E7E7" points="804.1725,375.4922,794.1725,379.4922,804.1725,383.4922,800.1725,379.4922" style="stroke:#E7E7E7;stroke-width:1;"/><line style="stroke:#E7E7E7;stroke-width:1;stroke-dasharray:2,2;" x1="798.1725" x2="1203.312" y1="379.4922" y2="379.4922"/><text fill="#FFFFFF" font-family="sans-serif" font-size="13" lengthAdjust="spacing" textLength="78.0001" x="810.1725" y="374.4263">&#36820;&#22238;&#23565;&#23616;&#25976;&#25818;</text></g><g class="message" data-participant-1="GameService" data-participant-2="GameService"><line style="stroke:#E7E7E7;stroke-width:1;" x1="793.1725" x2="835.1725" y1="423.7578" y2="423.7578"/><line style="stroke:#E7E7E7;stroke-width:1;" x1="835.1725" x2="835.1725" y1="423.7578" y2="436.7578"/><line style="stroke:#E7E7E7;stroke-width:1;" x1="794.1725" x2="835.1725" y1="436.7578" y2="436.7578"/><polygon fill="#E7E7E7" points="804.1725,432.7578,794.1725,436.7578,804.1725,440.7578,800.1725,436.7578" style="stroke:#E7E7E7;stroke-width:1;"/><text fill="#FFFFFF" font-family="sans-serif" font-size="13" lengthAdjust="spacing" textLength="195.0002" x="800.1725" y="403.5591">&#26356;&#26032;&#23565;&#23616;&#25976;&#25818;&#20013;&#30340;&#29609;&#23478;&#36899;&#32218;&#29376;&#24907;&#65292;</text><text fill="#FFFFFF" font-family="sans-serif" font-size="13" lengthAdjust="spacing" textLength="104.0001" x="800.1725" y="418.6919">&#31227;&#38500;&#12300;&#26039;&#32218;&#12301;&#23383;&#27171;</text></g><g class="message" data-participant-1="GameService" data-participant-2="RedisAccess"><polygon fill="#E7E7E7" points="1187.312,461.8906,1197.312,465.8906,1187.312,469.8906,1191.312,465.8906" style="stroke:#E7E7E7;stroke-width:1;"/><line style="stroke:#E7E7E7;stroke-width:1;" x1="793.1725" x2="1193.312" y1="465.8906" y2="465.8906"/><text fill="#FFFFFF" font-family="sans-serif" font-size="13" lengthAdjust="spacing" textLength="78.0001" x="800.1725" y="460.8247">&#26356;&#26032;&#23565;&#23616;&#25976;&#25818;</text></g><g class="message" data-participant-1="RedisAccess" data-participant-2="GameService"><polygon fill="#E7E7E7" points="804.1725,491.0234,794.1725,495.0234,804.1725,499.0234,800.1725,495.0234" style="stroke:#E7E7E7;stroke-width:1;"/><line style="stroke:#E7E7E7;stroke-width:1;stroke-dasharray:2,2;" x1="798.1725" x2="1203.312" y1="495.0234" y2="495.0234"/><text fill="#FFFFFF" font-family="sans-serif" font-size="13" lengthAdjust="spacing" textLength="52.0001" x="810.1725" y="489.9575">&#26356;&#26032;&#23436;&#25104;</text></g><g class="message" data-participant-1="GameService" data-participant-2="WebSocketHandler"><polygon fill="#E7E7E7" points="528.1722,520.1563,518.1722,524.1563,528.1722,528.1563,524.1722,524.1563" style="stroke:#E7E7E7;stroke-width:1;"/><line style="stroke:#E7E7E7;stroke-width:1;stroke-dasharray:2,2;" x1="522.1722" x2="782.1725" y1="524.1563" y2="524.1563"/><text fill="#FFFFFF" font-family="sans-serif" font-size="13" lengthAdjust="spacing" textLength="247.0003" x="534.1722" y="519.0903">&#36820;&#22238;&#26032;&#30340;&#12300;&#23565;&#23616;&#12301;&#25976;&#25818;&#32102;&#35442;&#23565;&#23616;&#20013;&#30340;&#25152;&#26377;&#20154;</text></g><g class="message" data-participant-1="WebSocketHandler" data-participant-2="PlayerA"><polygon fill="#E7E7E7" points="235.498,549.2891,225.498,553.2891,235.498,557.2891,231.498,553.2891" style="stroke:#E7E7E7;stroke-width:1;"/><line style="stroke:#E7E7E7;stroke-width:1;stroke-dasharray:2,2;" x1="229.498" x2="506.1722" y1="553.2891" y2="553.2891"/><text fill="#FFFFFF" font-family="sans-serif" font-size="13" lengthAdjust="spacing" textLength="156.0002" x="241.498" y="548.2231">&#22238;&#20659;&#23565;&#23616;&#25976;&#25818;&#28210;&#26579;&#23565;&#23616;&#38913;&#38754;</text></g><g class="message" data-participant-1="WebSocketHandler" data-participant-2="PlayerB"><polygon fill="#E7E7E7" points="141.8418,578.4219,131.8418,582.4219,141.8418,586.4219,137.8418,582.4219" style="stroke:#E7E7E7;stroke-width:1;"/><line style="stroke:#E7E7E7;stroke-width:1;stroke-dasharray:2,2;" x1="135.8418" x2="506.1722" y1="582.4219" y2="582.4219"/><text fill="#FFFFFF" font-family="sans-serif" font-size="13" lengthAdjust="spacing" textLength="156.0002" x="147.8418" y="577.356">&#22238;&#20659;&#23565;&#23616;&#25976;&#25818;&#28210;&#26579;&#23565;&#23616;&#38913;&#38754;</text></g><g class="message" data-participant-1="WebSocketHandler" data-participant-2="Spectators"><polygon fill="#E7E7E7" points="61.6284,607.5547,51.6284,611.5547,61.6284,615.5547,57.6284,611.5547" style="stroke:#E7E7E7;stroke-width:1;"/><line style="stroke:#E7E7E7;stroke-width:1;stroke-dasharray:2,2;" x1="55.6284" x2="511.1722" y1="611.5547" y2="611.5547"/><text fill="#FFFFFF" font-family="sans-serif" font-size="13" lengthAdjust="spacing" textLength="156.0002" x="67.6284" y="606.4888">&#22238;&#20659;&#23565;&#23616;&#25976;&#25818;&#28210;&#26579;&#23565;&#23616;&#38913;&#38754;</text></g><rect fill="#111111" height="3" style="stroke:#111111;stroke-width:1;" width="1735.3318" x="0" y="640.1211"/><line style="stroke:#FFFFFF;stroke-width:1;" x1="0" x2="1735.3318" y1="640.1211" y2="640.1211"/><line style="stroke:#FFFFFF;stroke-width:1;" x1="0" x2="1735.3318" y1="643.1211" y2="643.1211"/><rect fill="#111111" height="23.1328" style="stroke:#FFFFFF;stroke-width:2;" width="114.274" x="810.5289" y="629.5547"/><text fill="#FFFFFF" font-family="sans-serif" font-size="13" font-weight="bold" lengthAdjust="spacing" textLength="95.7482" x="816.5289" y="645.6216">&#37325;&#21855;/&#27512;&#38646;&#35336;&#26178;&#22120;</text><g class="message" data-participant-1="GameService" data-participant-2="GameThreadManager"><polygon fill="#E7E7E7" points="1330.7563,679.8203,1340.7563,683.8203,1330.7563,687.8203,1334.7563,683.8203" style="stroke:#E7E7E7;stroke-width:1;"/><line style="stroke:#E7E7E7;stroke-width:1;" x1="793.1725" x2="1336.7563" y1="683.8203" y2="683.8203"/><text fill="#FFFFFF" font-family="sans-serif" font-size="13" lengthAdjust="spacing" textLength="195.0002" x="800.1725" y="678.7544">&#36890;&#30693;&#35442;&#23565;&#23616;&#20013;&#30340;&#35442;&#29609;&#23478;&#24050;&#37325;&#26032;&#36899;&#32218;</text></g><g class="message" data-participant-1="GameThreadManager" data-participant-2="GameThread"><line style="stroke:#E7E7E7;stroke-width:1;" x1="1512.7565" x2="1502.7565" y1="715.9531" y2="711.9531"/><line style="stroke:#E7E7E7;stroke-width:1;" x1="1512.7565" x2="1502.7565" y1="715.9531" y2="719.9531"/><line style="stroke:#E7E7E7;stroke-width:1;" x1="1352.7563" x2="1513.7565" y1="715.9531" y2="715.9531"/><text fill="#FFFFFF" font-family="sans-serif" font-size="13" lengthAdjust="spacing" textLength="143.0002" x="1359.7563" y="710.8872">&#37325;&#32622;&#35442;&#29609;&#23478;&#30340;&#35336;&#26178;&#22120;&#28858;&#38646;</text></g><path d="M1529,696.8203 L1529,721.8203 L1729,721.8203 L1729,706.8203 L1719,696.8203 L1529,696.8203" fill="#714137" style="stroke:#E7E7E7;stroke-width:0.5;"/><path d="M1719,696.8203 L1719,706.8203 L1729,706.8203 L1719,696.8203" fill="#714137" style="stroke:#E7E7E7;stroke-width:0.5;"/><text fill="#FFFFFF" font-family="sans-serif" font-size="13" lengthAdjust="spacing" textLength="179.5753" x="1535" y="713.8872">GameThread &#26412;&#36523;&#26159;&#23376;&#22519;&#34892;&#32210;</text><g class="message" data-participant-1="GameThreadManager" data-participant-2="GameService"><polygon fill="#E7E7E7" points="799.1725,744.0859,789.1725,748.0859,799.1725,752.0859,795.1725,748.0859" style="stroke:#E7E7E7;stroke-width:1;"/><line style="stroke:#E7E7E7;stroke-width:1;stroke-dasharray:2,2;" x1="793.1725" x2="1346.7563" y1="748.0859" y2="748.0859"/><text fill="#FFFFFF" font-family="sans-serif" font-size="13" lengthAdjust="spacing" textLength="91.0001" x="805.1725" y="743.02">&#35336;&#26178;&#22120;&#37325;&#32622;&#23436;&#25104;</text></g><!--SRC=[fLHTJnD157tVNp7X1GqfO1EZCPQaI28-c1YG-69YrZ92Ozassms92GzB8u6cBLQXrPPA4KJRQ06hjBL8-35qPtQV_0lUxVHZjjFwe6yxT-yvzzmpT-umefMoMJsspbxJp3avY24N8kaghMQjzOIb7v3JLLg8ISF8FUw-FZP-SypjHijO7RqsUaEIP9yMLD5i2Fiq6Rx2hS23WFm2gvEEa_S9OpNrDII7sq4f9AkQt-SFoOg6XgOrBJI3mzgTeAAfmK00gqDshXXsmXxXfxD1ttEiJSlAV1lK6tH2xifBU1QhotuVRcPpPsSYqtbVLkG5l8GLRQWhlXjqGcRml3_izVbmEDpCviwYY8UBAfRd6PNQaUA83WBrP4jIznxGo8ZKkeJkfzV-5BqS47LDyAOWbmlTGaOgRyHIVQQ3pmGw9QXX5C3FDC2GpKDQZr_gSRfPD8ugW04mWrtgYKiz8aaU3wA9il4gtSaYgHhPoi9_vF4uo45Lh_bG4CeC8f24TA3WReIX6-SNTBjW5ijeRkxU52BvGxEuppE9DBV14PwdQP1viMtixBRWfqcoctEejp6YdYwmZtpR7FQJfYf6D66S98nlEllVnnoXCxBt4p8P2a5hp2UIqqdwnC5rnMQQaZKPqMYnSLQvAYWVq2tF8lNguOyWPkT7Jzb6hKIpB_dHe36ThCL-_ue_LkZdColp4KnX4mTs6AMtf70WLEdJjb19Q4VifmKwYfEDP4yDADAxK5YXresdJw0DKCegWb9Mb9v-Wg5YGTOgYUea5stKwvB0v-eCjzT-Q-1iv3lV0QcLINwBHQozLUlz_jyu9l-BWribxEN_8rDpVc5LmEOO8wMQjLCn2nia4p4oXJxJAwm-vh6bPwdzf1n6mf6DZL4jGm6u0JO_aaZYck2fMvph2Nf-r26n2Tl2QAGEEjaIK_qBY_OMu-0azzMiVo7lZerIqiXNpGznMdqZJ5SV5Sqdqox2whTcZMC7ovo39wsihFm1]--></g></svg>