<svg xmlns="http://www.w3.org/2000/svg" xmlns:xlink="http://www.w3.org/1999/xlink" contentStyleType="text/css" data-diagram-type="DESCRIPTION" height="393px" preserveAspectRatio="none" style="width:1700px;height:393px;background:#1B1B1B;" version="1.1" viewBox="0 0 1700 393" width="1700px" zoomAndPan="magnify"><defs/><g><rect fill="#1B1B1B" height="393" style="stroke:none;stroke-width:1;" width="1700" x="0" y="0"/><!--cluster ??? (???)--><g class="cluster" data-entity="... ....." data-source-line="6" data-uid="ent0002" id="cluster_... ....."><polygon fill="none" points="16,183,26,173,498.17,173,498.17,259,488.17,269,16,269,16,183" style="stroke:#E7E7E7;stroke-width:1;"/><line style="stroke:#E7E7E7;stroke-width:1;" x1="488.17" x2="498.17" y1="183" y2="173"/><line style="stroke:#E7E7E7;stroke-width:1;" x1="16" x2="488.17" y1="183" y2="183"/><line style="stroke:#E7E7E7;stroke-width:1;" x1="488.17" x2="488.17" y1="183" y2="269"/><text fill="#FFFFFF" font-family="sans-serif" font-size="14" font-weight="bold" lengthAdjust="spacing" textLength="101.6705" x="202.2497" y="198.9951">&#23458;&#25142;&#31471; (&#28687;&#35261;&#22120;)</text></g><!--cluster ??? (Linux)--><g class="cluster" data-entity="... .Linux." data-source-line="13" data-uid="ent0006" id="cluster_... .Linux."><polygon fill="none" points="583.17,16,593.17,6,1683.9,6,1683.9,366,1673.9,376,583.17,376,583.17,16" style="stroke:#E7E7E7;stroke-width:1;"/><line style="stroke:#E7E7E7;stroke-width:1;" x1="1673.9" x2="1683.9" y1="16" y2="6"/><line style="stroke:#E7E7E7;stroke-width:1;" x1="583.17" x2="1673.9" y1="16" y2="16"/><line style="stroke:#E7E7E7;stroke-width:1;" x1="1673.9" x2="1673.9" y1="16" y2="376"/><text fill="#FFFFFF" font-family="sans-serif" font-size="14" font-weight="bold" lengthAdjust="spacing" textLength="102.3543" x="1078.3578" y="31.9951">&#20282;&#26381;&#22120; (Linux)</text></g><!--cluster tomcat--><g class="cluster" data-entity="tomcat" data-source-line="14" data-uid="ent0007" id="cluster_tomcat"><polygon fill="none" points="615.17,72,625.17,62,1360.9,62,1360.9,334,1350.9,344,615.17,344,615.17,72" style="stroke:#E7E7E7;stroke-width:1;"/><line style="stroke:#E7E7E7;stroke-width:1;" x1="1350.9" x2="1360.9" y1="72" y2="62"/><line style="stroke:#E7E7E7;stroke-width:1;" x1="615.17" x2="1350.9" y1="72" y2="72"/><line style="stroke:#E7E7E7;stroke-width:1;" x1="1350.9" x2="1350.9" y1="72" y2="344"/><text fill="#FFFFFF" font-family="sans-serif" font-size="14" font-style="italic" lengthAdjust="spacing" textLength="104.665" x="931.7025" y="87.9951">&#171;Web Service&#187;</text><text fill="#FFFFFF" font-family="sans-serif" font-size="14" font-weight="bold" lengthAdjust="spacing" textLength="58.1943" x="954.9378" y="104.292">Tomcat</text></g><!--cluster Spring Boot ?? (WAR)--><g class="cluster" data-entity="Spring Boot .. .WAR." data-source-line="15" data-uid="ent0008" id="cluster_Spring Boot .. .WAR."><rect fill="none" height="178" rx="2.5" ry="2.5" style="stroke:#E7E7E7;stroke-width:1;" width="568.01" x="760.89" y="134"/><polygon fill="none" points="1311.9,139,1311.9,153,1323.9,153,1323.9,145,1317.9,139,1311.9,139" style="stroke:#E7E7E7;stroke-width:1;"/><line style="stroke:#E7E7E7;stroke-width:1;" x1="1317.9" x2="1317.9" y1="139" y2="145"/><line style="stroke:#E7E7E7;stroke-width:1;" x1="1323.9" x2="1317.9" y1="145" y2="145"/><text fill="#FFFFFF" font-family="sans-serif" font-size="14" font-weight="bold" lengthAdjust="spacing" textLength="180.8719" x="954.459" y="148.9951">Spring Boot &#25033;&#29992; (WAR)</text></g><!--cluster redis--><g class="cluster" data-entity="redis" data-source-line="24" data-uid="ent0014" id="cluster_redis"><polygon fill="none" points="1459.9,139,1469.9,129,1651.9,129,1651.9,334,1641.9,344,1459.9,344,1459.9,139" style="stroke:#E7E7E7;stroke-width:1;"/><line style="stroke:#E7E7E7;stroke-width:1;" x1="1641.9" x2="1651.9" y1="139" y2="129"/><line style="stroke:#E7E7E7;stroke-width:1;" x1="1459.9" x2="1641.9" y1="139" y2="139"/><line style="stroke:#E7E7E7;stroke-width:1;" x1="1641.9" x2="1641.9" y1="139" y2="344"/><text fill="#FFFFFF" font-family="sans-serif" font-size="14" font-style="italic" lengthAdjust="spacing" textLength="116.8604" x="1493.4698" y="154.9951">&#171;Cache Service&#187;</text><text fill="#FFFFFF" font-family="sans-serif" font-size="14" font-weight="bold" lengthAdjust="spacing" textLength="43.4287" x="1530.1856" y="171.292">Redis</text></g><!--entity ui_render--><g class="entity" data-entity="ui_render" data-source-line="7" data-uid="ent0003" id="entity_ui_render"><rect fill="#313139" height="39.2969" rx="2.5" ry="2.5" style="stroke:#E7E7E7;stroke-width:0.5;" width="128.1708" x="32" y="213.35"/><polygon fill="#313139" points="143.1708,218.35,143.1708,232.35,155.1708,232.35,155.1708,224.35,149.1708,218.35,143.1708,218.35" style="stroke:#E7E7E7;stroke-width:0.5;"/><line style="stroke:#E7E7E7;stroke-width:0.5;" x1="149.1708" x2="149.1708" y1="218.35" y2="224.35"/><line style="stroke:#E7E7E7;stroke-width:0.5;" x1="155.1708" x2="149.1708" y1="224.35" y2="224.35"/><text fill="#FFFFFF" font-family="sans-serif" font-size="14" lengthAdjust="spacing" textLength="98.1708" x="42" y="239.3451">UI &#28210;&#26579; (Vue3)</text></g><!--entity service_logic_client--><g class="entity" data-entity="service_logic_client" data-source-line="8" data-uid="ent0004" id="entity_service_logic_client"><rect fill="#313139" height="39.2969" rx="2.5" ry="2.5" style="stroke:#E7E7E7;stroke-width:0.5;" width="113.9996" x="221.17" y="213.35"/><polygon fill="#313139" points="318.1696,218.35,318.1696,232.35,330.1696,232.35,330.1696,224.35,324.1696,218.35,318.1696,218.35" style="stroke:#E7E7E7;stroke-width:0.5;"/><line style="stroke:#E7E7E7;stroke-width:0.5;" x1="324.1696" x2="324.1696" y1="218.35" y2="224.35"/><line style="stroke:#E7E7E7;stroke-width:0.5;" x1="330.1696" x2="324.1696" y1="224.35" y2="224.35"/><text fill="#FFFFFF" font-family="sans-serif" font-size="14" lengthAdjust="spacing" textLength="83.9996" x="231.17" y="239.3451">&#26989;&#21209;&#37007;&#36655;&#34389;&#29702;</text></g><!--entity comm_handle--><g class="entity" data-entity="comm_handle" data-source-line="9" data-uid="ent0005" id="entity_comm_handle"><rect fill="#313139" height="39.2969" rx="2.5" ry="2.5" style="stroke:#E7E7E7;stroke-width:0.5;" width="85.9998" x="396.17" y="213.35"/><polygon fill="#313139" points="465.1698,218.35,465.1698,232.35,477.1698,232.35,477.1698,224.35,471.1698,218.35,465.1698,218.35" style="stroke:#E7E7E7;stroke-width:0.5;"/><line style="stroke:#E7E7E7;stroke-width:0.5;" x1="471.1698" x2="471.1698" y1="218.35" y2="224.35"/><line style="stroke:#E7E7E7;stroke-width:0.5;" x1="477.1698" x2="471.1698" y1="224.35" y2="224.35"/><text fill="#FFFFFF" font-family="sans-serif" font-size="14" lengthAdjust="spacing" textLength="55.9998" x="406.17" y="239.3451">&#36890;&#35338;&#34389;&#29702;</text></g><!--entity websocket_handle--><g class="entity" data-entity="websocket_handle" data-source-line="16" data-uid="ent0009" id="entity_websocket_handle"><rect fill="#313139" height="46.2969" rx="2.5" ry="2.5" style="stroke:#E7E7E7;stroke-width:0.5;" width="151.1522" x="776.89" y="249.85"/><rect fill="#313139" height="10" style="stroke:#E7E7E7;stroke-width:0.5;" width="15" x="908.0422" y="254.85"/><rect fill="#313139" height="2" style="stroke:#E7E7E7;stroke-width:0.5;" width="4" x="906.0422" y="256.85"/><rect fill="#313139" height="2" style="stroke:#E7E7E7;stroke-width:0.5;" width="4" x="906.0422" y="260.85"/><text fill="#FFFFFF" font-family="sans-serif" font-size="14" lengthAdjust="spacing" textLength="111.1522" x="791.89" y="282.8451">WebSocket &#34389;&#29702;</text></g><!--entity http_rest_handle--><g class="entity" data-entity="http_rest_handle" data-source-line="17" data-uid="ent0010" id="entity_http_rest_handle"><rect fill="#313139" height="46.2969" rx="2.5" ry="2.5" style="stroke:#E7E7E7;stroke-width:0.5;" width="148.9852" x="777.97" y="168.85"/><rect fill="#313139" height="10" style="stroke:#E7E7E7;stroke-width:0.5;" width="15" x="906.9552" y="173.85"/><rect fill="#313139" height="2" style="stroke:#E7E7E7;stroke-width:0.5;" width="4" x="904.9552" y="175.85"/><rect fill="#313139" height="2" style="stroke:#E7E7E7;stroke-width:0.5;" width="4" x="904.9552" y="179.85"/><text fill="#FFFFFF" font-family="sans-serif" font-size="14" lengthAdjust="spacing" textLength="108.9852" x="792.97" y="201.8451">HTTP REST &#34389;&#29702;</text></g><!--entity game_logic--><g class="entity" data-entity="game_logic" data-source-line="18" data-uid="ent0011" id="entity_game_logic"><rect fill="#313139" height="46.2969" rx="2.5" ry="2.5" style="stroke:#E7E7E7;stroke-width:0.5;" width="123.9996" x="989.04" y="249.85"/><rect fill="#313139" height="10" style="stroke:#E7E7E7;stroke-width:0.5;" width="15" x="1093.0396" y="254.85"/><rect fill="#313139" height="2" style="stroke:#E7E7E7;stroke-width:0.5;" width="4" x="1091.0396" y="256.85"/><rect fill="#313139" height="2" style="stroke:#E7E7E7;stroke-width:0.5;" width="4" x="1091.0396" y="260.85"/><text fill="#FFFFFF" font-family="sans-serif" font-size="14" lengthAdjust="spacing" textLength="83.9996" x="1004.04" y="282.8451">&#36938;&#25138;&#37007;&#36655;&#34389;&#29702;</text></g><!--entity service_logic--><g class="entity" data-entity="service_logic" data-source-line="19" data-uid="ent0012" id="entity_service_logic"><rect fill="#313139" height="46.2969" rx="2.5" ry="2.5" style="stroke:#E7E7E7;stroke-width:0.5;" width="123.9996" x="989.04" y="168.85"/><rect fill="#313139" height="10" style="stroke:#E7E7E7;stroke-width:0.5;" width="15" x="1093.0396" y="173.85"/><rect fill="#313139" height="2" style="stroke:#E7E7E7;stroke-width:0.5;" width="4" x="1091.0396" y="175.85"/><rect fill="#313139" height="2" style="stroke:#E7E7E7;stroke-width:0.5;" width="4" x="1091.0396" y="179.85"/><text fill="#FFFFFF" font-family="sans-serif" font-size="14" lengthAdjust="spacing" textLength="83.9996" x="1004.04" y="201.8451">&#26989;&#21209;&#37007;&#36655;&#34389;&#29702;</text></g><!--entity redis_conn--><g class="entity" data-entity="redis_conn" data-source-line="20" data-uid="ent0013" id="entity_redis_conn"><rect fill="#313139" height="46.2969" rx="2.5" ry="2.5" style="stroke:#E7E7E7;stroke-width:0.5;" width="138.8611" x="1174.04" y="168.85"/><rect fill="#313139" height="10" style="stroke:#E7E7E7;stroke-width:0.5;" width="15" x="1292.9011" y="173.85"/><rect fill="#313139" height="2" style="stroke:#E7E7E7;stroke-width:0.5;" width="4" x="1290.9011" y="175.85"/><rect fill="#313139" height="2" style="stroke:#E7E7E7;stroke-width:0.5;" width="4" x="1290.9011" y="179.85"/><text fill="#FFFFFF" font-family="sans-serif" font-size="14" lengthAdjust="spacing" textLength="98.8611" x="1189.04" y="201.8451">Redis &#36899;&#32218;&#23384;&#21462;</text></g><!--entity game_data--><g class="entity" data-entity="game_data" data-source-line="25" data-uid="ent0015" id="entity_game_data"><rect fill="#313139" height="36.2969" rx="35" ry="35" style="stroke:#E7E7E7;stroke-width:0.5;" width="75.9998" x="1517.9" y="283.85"/><text fill="#FFFFFF" font-family="sans-serif" font-size="14" lengthAdjust="spacing" textLength="55.9998" x="1527.9" y="306.8451">&#23565;&#23616;&#25976;&#25818;</text></g><!--entity player_status--><g class="entity" data-entity="player_status" data-source-line="26" data-uid="ent0016" id="entity_player_status"><rect fill="#313139" height="36.2969" rx="35" ry="35" style="stroke:#E7E7E7;stroke-width:0.5;" width="75.9998" x="1517.9" y="212.85"/><text fill="#FFFFFF" font-family="sans-serif" font-size="14" lengthAdjust="spacing" textLength="55.9998" x="1527.9" y="235.8451">&#29609;&#23478;&#25976;&#25818;</text></g><!--link ui_render to service_logic_client--><g class="link" data-entity-1="ui_render" data-entity-2="service_logic_client" data-source-line="31" data-uid="lnk17" id="link_ui_render_service_logic_client"><path d="M166.58,233 C186.22,233 195.72,233 214.84,233" fill="none" id="ui_render-service_logic_client" style="stroke:#E7E7E7;stroke-width:1;"/><polygon fill="#E7E7E7" points="160.58,233,169.58,237,165.58,233,169.58,229,160.58,233" style="stroke:#E7E7E7;stroke-width:1;"/><polygon fill="#E7E7E7" points="220.84,233,211.84,229,215.84,233,211.84,237,220.84,233" style="stroke:#E7E7E7;stroke-width:1;"/></g><!--link service_logic_client to comm_handle--><g class="link" data-entity-1="service_logic_client" data-entity-2="comm_handle" data-source-line="32" data-uid="lnk18" id="link_service_logic_client_comm_handle"><path d="M341.23,233 C361.17,233 371.26,233 389.86,233" fill="none" id="service_logic_client-comm_handle" style="stroke:#E7E7E7;stroke-width:1;"/><polygon fill="#E7E7E7" points="335.23,233,344.23,237,340.23,233,344.23,229,335.23,233" style="stroke:#E7E7E7;stroke-width:1;"/><polygon fill="#E7E7E7" points="395.86,233,386.86,229,390.86,233,386.86,237,395.86,233" style="stroke:#E7E7E7;stroke-width:1;"/></g><!--link comm_handle to tomcat--><g class="link" data-entity-1="comm_handle" data-entity-2="tomcat" data-source-line="33" data-uid="lnk19" id="link_comm_handle_tomcat"><path d="M488.47,233 C514.98,233 543.3225,233 571.3663,233 C585.3881,233 597.8353,233 606.9414,233 C609.2179,233 611.2856,233 613.1169,233 C613.5747,233 614.0178,233 614.4456,233 C614.6595,233 608.8697,233 609.0759,233" fill="none" id="comm_handle-tomcat" style="stroke:#E7E7E7;stroke-width:1;"/><polygon fill="#E7E7E7" points="482.47,233,491.47,237,487.47,233,491.47,229,482.47,233" style="stroke:#E7E7E7;stroke-width:1;"/><polygon fill="#E7E7E7" points="615.0759,233,606.0759,229,610.0759,233,606.0759,237,615.0759,233" style="stroke:#E7E7E7;stroke-width:1;"/><text fill="#FFFFFF" font-family="sans-serif" font-size="13" lengthAdjust="spacing" textLength="51.6255" x="515.17" y="229.0669">internet</text></g><!--link tomcat to websocket_handle--><g class="link" data-entity-1="tomcat" data-entity-2="websocket_handle" data-source-line="35" data-uid="lnk20" id="link_tomcat_websocket_handle"><path d="M627.9483,238.1847 C630.2183,241.0847 639.31,252.09 653.89,258 C692.46,273.64 732.71,277.8358 770.76,277.9258" fill="none" id="tomcat-websocket_handle" style="stroke:#E7E7E7;stroke-width:1;"/><polygon fill="#E7E7E7" points="624.25,233.46,626.6476,243.0126,627.3319,237.3972,632.9472,238.0815,624.25,233.46" style="stroke:#E7E7E7;stroke-width:1;"/><polygon fill="#E7E7E7" points="776.76,277.94,767.7695,273.9187,771.76,277.9282,767.7506,281.9187,776.76,277.94" style="stroke:#E7E7E7;stroke-width:1;"/><text fill="#FFFFFF" font-family="sans-serif" font-size="13" lengthAdjust="spacing" textLength="73.0806" x="654.89" y="254.0669">WebSocket</text></g><!--link tomcat to http_rest_handle--><g class="link" data-entity-1="tomcat" data-entity-2="http_rest_handle" data-source-line="36" data-uid="lnk21" id="link_tomcat_http_rest_handle"><path d="M629.965,231.9065 C634.185,231.1465 706.9551,218.0338 771.7351,206.3638" fill="none" id="tomcat-http_rest_handle" style="stroke:#E7E7E7;stroke-width:1;"/><polygon fill="#E7E7E7" points="624.06,232.97,633.6265,235.3115,628.9808,232.0838,632.2085,227.4381,624.06,232.97" style="stroke:#E7E7E7;stroke-width:1;"/><polygon fill="#E7E7E7" points="777.64,205.3,768.0734,202.959,772.7192,206.1865,769.4918,210.8323,777.64,205.3" style="stroke:#E7E7E7;stroke-width:1;"/><text fill="#FFFFFF" font-family="sans-serif" font-size="13" lengthAdjust="spacing" textLength="71.0684" x="655.89" y="211.0669">HTTP REST</text></g><!--link websocket_handle to game_logic--><g class="link" data-entity-1="websocket_handle" data-entity-2="game_logic" data-source-line="38" data-uid="lnk22" id="link_websocket_handle_game_logic"><path d="M934.34,273 C954.31,273 963.64,273 982.78,273" fill="none" id="websocket_handle-game_logic" style="stroke:#E7E7E7;stroke-width:1;"/><polygon fill="#E7E7E7" points="928.34,273,937.34,277,933.34,273,937.34,269,928.34,273" style="stroke:#E7E7E7;stroke-width:1;"/><polygon fill="#E7E7E7" points="988.78,273,979.78,269,983.78,273,979.78,277,988.78,273" style="stroke:#E7E7E7;stroke-width:1;"/></g><!--link http_rest_handle to service_logic--><g class="link" data-entity-1="http_rest_handle" data-entity-2="service_logic" data-source-line="39" data-uid="lnk23" id="link_http_rest_handle_service_logic"><path d="M933.22,192 C953.49,192 963.24,192 982.72,192" fill="none" id="http_rest_handle-service_logic" style="stroke:#E7E7E7;stroke-width:1;"/><polygon fill="#E7E7E7" points="927.22,192,936.22,196,932.22,192,936.22,188,927.22,192" style="stroke:#E7E7E7;stroke-width:1;"/><polygon fill="#E7E7E7" points="988.72,192,979.72,188,983.72,192,979.72,196,988.72,192" style="stroke:#E7E7E7;stroke-width:1;"/></g><!--link game_logic to redis_conn--><g class="link" data-entity-1="game_logic" data-entity-2="redis_conn" data-source-line="40" data-uid="lnk24" id="link_game_logic_redis_conn"><path d="M1113.1518,247.0027 C1138.1818,236.3627 1156.6184,228.5178 1181.6184,217.8878" fill="none" id="game_logic-redis_conn" style="stroke:#E7E7E7;stroke-width:1;"/><polygon fill="#E7E7E7" points="1107.63,249.35,1117.4776,249.5103,1112.2315,247.3939,1114.3479,242.1479,1107.63,249.35" style="stroke:#E7E7E7;stroke-width:1;"/><polygon fill="#E7E7E7" points="1187.14,215.54,1177.2924,215.3806,1182.5387,217.4965,1180.4228,222.7427,1187.14,215.54" style="stroke:#E7E7E7;stroke-width:1;"/></g><!--link service_logic to redis_conn--><g class="link" data-entity-1="service_logic" data-entity-2="redis_conn" data-source-line="41" data-uid="lnk25" id="link_service_logic_redis_conn"><path d="M1119.34,192 C1138.59,192 1147.96,192 1167.69,192" fill="none" id="service_logic-redis_conn" style="stroke:#E7E7E7;stroke-width:1;"/><polygon fill="#E7E7E7" points="1113.34,192,1122.34,196,1118.34,192,1122.34,188,1113.34,192" style="stroke:#E7E7E7;stroke-width:1;"/><polygon fill="#E7E7E7" points="1173.69,192,1164.69,188,1168.69,192,1164.69,196,1173.69,192" style="stroke:#E7E7E7;stroke-width:1;"/></g><!--link redis_conn to redis--><g class="link" data-entity-1="redis_conn" data-entity-2="redis" data-source-line="43" data-uid="lnk26" id="link_redis_conn_redis"><path d="M1319.363,188.3804 C1341.868,187.2929 1361.9313,186.3238 1388.4278,185.0439 C1401.6761,184.404 1415.0345,183.7588 1428.114,183.1271 C1434.6538,182.8112 1441.1239,182.4988 1447.4757,182.192 C1450.6516,182.0386 1453.7979,181.8867 1456.9085,181.7365 C1457.6862,181.6989 1452.4686,181.9509 1453.2417,181.9135" fill="none" id="redis_conn-redis" style="stroke:#E7E7E7;stroke-width:1;"/><polygon fill="#E7E7E7" points="1313.37,188.67,1322.5526,192.2309,1318.3642,188.4287,1322.1664,184.2403,1313.37,188.67" style="stroke:#E7E7E7;stroke-width:1;"/><polygon fill="#E7E7E7" points="1459.2348,181.6241,1450.0523,178.0629,1454.2406,181.8653,1450.4382,186.0536,1459.2348,181.6241" style="stroke:#E7E7E7;stroke-width:1;"/><text fill="#FFFFFF" font-family="sans-serif" font-size="13" lengthAdjust="spacing" textLength="25.8604" x="1385.9" y="181.0669">LAN</text></g><!--SRC=[ZL9TQnD157sVNt7PbqGaRLCHHMAWYg1GH9fe7vVfxZHPJ6R2xgGgKaXRr7uOezHM4mA2HObe6vk7jDXM_qnsD_ildEoccqssGUTXcRdtdBltt7iYOBTRtQEcS_BEhfvPUriG0sUjOHx-WCjWlbZhdBJD-YwAmFJKzDN9gUkJyMkmHFI9-4GSvSWY1yv0rp9P3ggc4uLhZ28KkTaxO6wKxUzDS1-8CfM0P1vyjjRRlMZKBbMwNy_CQkEI1CyHY8DrhYrYXOFqy1vOnothqpP47nN95O701XGrMITK9Ve8sFgoRsvLdTLAzxJPhUxORr-wS8FeIvf2v1pBQ8giv3H2-GZJATMwZSq0Hs7vl9p5LCqHj3pGyVlrg8xEwI-hNXRDGtHMeyMdlWOldMPv1NC94ebviW0fhvDailSBxgRwwE5sKWLTencunHW7wzM6_LvKdv-PyskV7z5bWL4X1oHHFiMKnuH3GCKJic2umNCfOyXtq-a7C7SdbGwIivmNn9oDVv6TbKrhlHMQUWRd-oCVH_oVTOtZpX5LCy0fxTb7DNF_erdPTRbwBomhZ5AVk8oyRs0fBba2iPJRMCcIuRMu9G9pDZZJSQRds9zbyx1axHnRsxM1GXLp7CRQRxwP1-q0jf33puWk6nppej7lQE0hvqEzysUrxolVtP28nP8Nk_UYe0SF6ZTmzv9zozq0ZNAYKy8HweVSzAXT1D2trH1mr1e2w5i8eL0PbnFmGuWU5ee6S2yRsEmGC9H5WtiW9pgSdRd_5m00]--></g></svg>