<svg xmlns="http://www.w3.org/2000/svg" xmlns:xlink="http://www.w3.org/1999/xlink" contentStyleType="text/css" data-diagram-type="DESCRIPTION" height="290px" preserveAspectRatio="none" style="width:743px;height:290px;background:#1B1B1B;" version="1.1" viewBox="0 0 743 290" width="743px" zoomAndPan="magnify"><defs/><g><rect fill="#1B1B1B" height="290" style="stroke:none;stroke-width:1;" width="743" x="0" y="0"/><!--cluster ?????--><g class="cluster" data-entity="....." data-source-line="6" data-uid="ent0003" id="cluster_....."><rect fill="none" height="277" rx="2.5" ry="2.5" style="stroke:#E7E7E7;stroke-width:1;" width="656.9" x="81" y="7"/><text fill="#FFFFFF" font-family="sans-serif" font-size="14" font-weight="bold" lengthAdjust="spacing" textLength="69.9997" x="374.4502" y="21.9951">&#32178;&#36335;&#40657;&#30333;&#26827;</text></g><!--entity ?????--><g class="entity" data-entity="....." data-source-line="7" data-uid="ent0004" id="entity_....."><ellipse cx="169.2473" cy="57.0036" fill="#313139" rx="52.4973" ry="14.5236" style="stroke:#E7E7E7;stroke-width:0.5;"/><text fill="#FFFFFF" font-family="sans-serif" font-size="14" lengthAdjust="spacing" textLength="69.9997" x="134.2474" y="61.6521">&#36914;&#20837;&#24453;&#27231;&#23460;</text></g><!--entity ????--><g class="entity" data-entity="...." data-source-line="8" data-uid="ent0006" id="entity_...."><ellipse cx="169.2478" cy="121.0036" fill="#313139" rx="42.5978" ry="14.5236" style="stroke:#E7E7E7;stroke-width:0.5;"/><text fill="#FFFFFF" font-family="sans-serif" font-size="14" lengthAdjust="spacing" textLength="55.9998" x="141.2479" y="125.6521">&#25991;&#23383;&#32842;&#22825;</text></g><!--entity ??--><g class="entity" data-entity=".." data-source-line="9" data-uid="ent0008" id="entity_.."><ellipse cx="169.2489" cy="185.0036" fill="#313139" rx="22.7989" ry="14.5236" style="stroke:#E7E7E7;stroke-width:0.5;"/><text fill="#FFFFFF" font-family="sans-serif" font-size="14" lengthAdjust="spacing" textLength="27.9999" x="155.249" y="189.6521">&#25490;&#38538;</text></g><!--entity ????????--><g class="entity" data-entity="........" data-source-line="10" data-uid="ent0010" id="entity_........"><ellipse cx="169.2524" cy="251.0005" fill="#313139" rx="72.2524" ry="16.8505" style="stroke:#E7E7E7;stroke-width:0.5;"/><text fill="#FFFFFF" font-family="sans-serif" font-size="14" lengthAdjust="spacing" textLength="111.9995" x="113.2527" y="255.6489">&#36984;&#25799;&#35201;&#35264;&#25136;&#30340;&#23565;&#23616;</text></g><!--entity ????--><g class="entity" data-entity="...." data-source-line="13" data-uid="ent0012" id="entity_...."><ellipse cx="409.0978" cy="171.0036" fill="#313139" rx="42.5978" ry="14.5236" style="stroke:#E7E7E7;stroke-width:0.5;"/><text fill="#FFFFFF" font-family="sans-serif" font-size="14" lengthAdjust="spacing" textLength="55.9998" x="381.0979" y="175.6521">&#36914;&#20837;&#23565;&#23616;</text></g><!--entity ????--><g class="entity" data-entity="...." data-source-line="14" data-uid="ent0014" id="entity_...."><ellipse cx="409.0978" cy="235.0036" fill="#313139" rx="42.5978" ry="14.5236" style="stroke:#E7E7E7;stroke-width:0.5;"/><text fill="#FFFFFF" font-family="sans-serif" font-size="14" lengthAdjust="spacing" textLength="55.9998" x="381.0979" y="239.6521">&#36914;&#20837;&#35264;&#25136;</text></g><!--entity ????--><g class="entity" data-entity="...." data-source-line="15" data-uid="ent0016" id="entity_...."><ellipse cx="679.2978" cy="171.0036" fill="#313139" rx="42.5978" ry="14.5236" style="stroke:#E7E7E7;stroke-width:0.5;"/><text fill="#FFFFFF" font-family="sans-serif" font-size="14" lengthAdjust="spacing" textLength="55.9998" x="651.2979" y="175.6521">&#26039;&#32218;&#37325;&#36899;</text></g><!--entity ??--><g class="entity" data-entity=".." data-source-line="4" data-uid="ent0002" id="entity_.."><ellipse cx="19.9999" cy="129.35" fill="#313139" rx="8" ry="8" style="stroke:#E7E7E7;stroke-width:0.5;"/><path d="M19.9999,137.35 L19.9999,164.35 M6.9999,145.35 L32.9999,145.35 M19.9999,164.35 L6.9999,179.35 M19.9999,164.35 L32.9999,179.35" fill="none" style="stroke:#E7E7E7;stroke-width:0.5;"/><text fill="#FFFFFF" font-family="sans-serif" font-size="14" lengthAdjust="spacing" textLength="27.9999" x="6" y="193.8451">&#29609;&#23478;</text></g><!--link ?? to ?????--><g class="link" data-entity-1=".." data-entity-2="....." data-source-line="7" data-uid="lnk5" id="link_.._....."><path d="M34.4,133.9 C43.51,118.98 56.83,100.74 73,89 C88.53,77.73 102.5205,71.8417 120.0205,66.9617" fill="none" id="&#29609;&#23478;-to-&#36914;&#20837;&#24453;&#27231;&#23460;" style="stroke:#E7E7E7;stroke-width:1;"/><polygon fill="#E7E7E7" points="125.8,65.35,116.0563,63.9145,120.9838,66.693,118.2052,71.6205,125.8,65.35" style="stroke:#E7E7E7;stroke-width:1;"/></g><!--link ?? to ????--><g class="link" data-entity-1=".." data-entity-2="...." data-source-line="8" data-uid="lnk7" id="link_.._...."><path d="M34.33,155.56 C56.77,149.77 96.9503,139.399 128.7303,131.199" fill="none" id="&#29609;&#23478;-to-&#25991;&#23383;&#32842;&#22825;" style="stroke:#E7E7E7;stroke-width:1;"/><polygon fill="#E7E7E7" points="134.54,129.7,124.8261,128.0754,129.6986,130.9492,126.8248,135.8217,134.54,129.7" style="stroke:#E7E7E7;stroke-width:1;"/></g><!--link ?? to ??--><g class="link" data-entity-1=".." data-entity-2=".." data-source-line="9" data-uid="lnk9" id="link_.._.."><path d="M34.33,161.35 C59.88,165.87 110.0714,174.7269 140.9414,180.1769" fill="none" id="&#29609;&#23478;-to-&#25490;&#38538;" style="stroke:#E7E7E7;stroke-width:1;"/><polygon fill="#E7E7E7" points="146.85,181.22,138.6825,175.7162,141.9261,180.3507,137.2916,183.5944,146.85,181.22" style="stroke:#E7E7E7;stroke-width:1;"/></g><!--link ?? to ????????--><g class="link" data-entity-1=".." data-entity-2="........" data-source-line="10" data-uid="lnk11" id="link_.._........"><path d="M34.29,178.25 C43.81,190.79 57.62,206.67 73,217 C86.85,226.3 97.8545,231.4629 113.3645,236.6929" fill="none" id="&#29609;&#23478;-to-&#36984;&#25799;&#35201;&#35264;&#25136;&#30340;&#23565;&#23616;" style="stroke:#E7E7E7;stroke-width:1;"/><polygon fill="#E7E7E7" points="119.05,238.61,111.7999,231.944,114.3121,237.0124,109.2437,239.5246,119.05,238.61" style="stroke:#E7E7E7;stroke-width:1;"/></g><!--link ?? to ????--><g class="link" data-entity-1=".." data-entity-2="...." data-source-line="13" data-uid="lnk13" id="link_.._...."><path d="M192.2,183.71 C231.88,181.37 310.1203,176.7618 360.8503,173.7818" fill="none" id="&#25490;&#38538;-to-&#36914;&#20837;&#23565;&#23616;" style="stroke:#0000FF;stroke-width:1;"/><polygon fill="#0000FF" points="366.84,173.43,357.6209,169.9647,361.8486,173.7232,358.0901,177.9509,366.84,173.43" style="stroke:#0000FF;stroke-width:1;"/><text fill="#FFFFFF" font-family="sans-serif" font-size="13" lengthAdjust="spacing" textLength="63.0068" x="272.5" y="172.0669">&#171;include&#187;</text></g><!--link ???????? to ????--><g class="link" data-entity-1="........" data-entity-2="...." data-source-line="14" data-uid="lnk15" id="link_........_...."><path d="M239.05,246.37 C280.48,243.58 325.8636,240.5334 361.0336,238.1634" fill="none" id="&#36984;&#25799;&#35201;&#35264;&#25136;&#30340;&#23565;&#23616;-to-&#36914;&#20837;&#35264;&#25136;" style="stroke:#0000FF;stroke-width:1;"/><polygon fill="#0000FF" points="367.02,237.76,357.7714,234.3742,362.0313,238.0962,358.3093,242.3561,367.02,237.76" style="stroke:#0000FF;stroke-width:1;"/><text fill="#FFFFFF" font-family="sans-serif" font-size="13" lengthAdjust="spacing" textLength="63.0068" x="272.5" y="237.0669">&#171;include&#187;</text></g><!--link ???? to ????--><g class="link" data-entity-1="...." data-entity-2="...." data-source-line="15" data-uid="lnk17" id="link_...._...."><path d="M452.01,171 C502.25,171 579.94,171 630.25,171" fill="none" id="&#36914;&#20837;&#23565;&#23616;-to-&#26039;&#32218;&#37325;&#36899;" style="stroke:#FF0000;stroke-width:1;stroke-dasharray:7,7;"/><polygon fill="#FF0000" points="636.25,171,627.25,167,631.25,171,627.25,175,636.25,171" style="stroke:#FF0000;stroke-width:1;"/><text fill="#FFFFFF" font-family="sans-serif" font-size="13" lengthAdjust="spacing" textLength="61.1851" x="513.7" y="167.0669">&#171;extend&#187;</text></g><!--SRC=[KrTulctJY-thN-wU-7pctcUBknLq5PxitVzyoefd2pkUxEj-EcSQbxg2aO6HgRu122cKfHRf6UePSEMaffKebEGh56McPvGef6GMfIQNPERdSIKcb-GNAJplM_bqtJOkBf1eObvwJgg24fezIWhLN0f0056feAjhfw3nic7JqzQbJ_UrFbiv_-cw9PeO2fvDQt-wTlgBngwdIrPYaUsRz79M5wRuoyOTpoQtlrZM-69vmxEE3SzdjJpTqFjqOmD49HUOX6bMq8rMJiefJOr5SWz4iOALWerDPbvoJcbAgfqTH1DEax4O0r62tHWKU_IYbOjIKsAX7jx-VFkib-szBniMGxIcLfIavgK0TTO20000]--></g></svg>